<svg xmlns="http://www.w3.org/2000/svg" xmlns:xlink="http://www.w3.org/1999/xlink" width="61pt" height="58pt" viewBox="0 0 61 58"><g id="graph0" class="graph" transform="scale(1 1) rotate(0) translate(4 54)"><title>G</title><polygon fill="#fff" stroke="transparent" points="-4 4 -4 -54 57 -54 57 4 -4 4"/><g id="node1" class="node"><title>node4597757952</title><polygon fill="none" stroke="#000" stroke-width=".5" points="53 -50 0 -50 0 0 53 0 53 -50"/><polygon fill="#fefecd" stroke="transparent" points="1.5 -33 1.5 -49 23.5 -49 23.5 -33 1.5 -33"/><text x="6.939" y="-38" fill="#444443" font-family="Helvetica,sans-Serif" font-size="10" text-anchor="start">99</text><polygon fill="#fefecd" stroke="transparent" points="23.5 -33 23.5 -49 52.5 -49 52.5 -33 23.5 -33"/><text x="27.719" y="-38" fill="#444443" font-family="Helvetica,sans-Serif" font-size="10" text-anchor="start">parrt</text><polygon fill="#fefecd" stroke="transparent" points="1.5 -17 1.5 -33 23.5 -33 23.5 -17 1.5 -17"/><text x="4.158" y="-22" fill="#444443" font-family="Helvetica,sans-Serif" font-size="10" text-anchor="start">101</text><polygon fill="#fefecd" stroke="transparent" points="23.5 -17 23.5 -33 52.5 -33 52.5 -17 23.5 -17"/><text x="32.724" y="-22" fill="#444443" font-family="Helvetica,sans-Serif" font-size="10" text-anchor="start">sri</text><polygon fill="#fefecd" stroke="transparent" points="1.5 -1 1.5 -17 23.5 -17 23.5 -1 1.5 -1"/><text x="6.939" y="-6" fill="#444443" font-family="Helvetica,sans-Serif" font-size="10" text-anchor="start">42</text><polygon fill="#fefecd" stroke="transparent" points="23.5 -1 23.5 -17 52.5 -17 52.5 -1 23.5 -1"/><text x="26.328" y="-6" fill="#444443" font-family="Helvetica,sans-Serif" font-size="10" text-anchor="start">kayla</text></g></g></svg>