<svg xmlns="http://www.w3.org/2000/svg" xmlns:xlink="http://www.w3.org/1999/xlink" width="56pt" height="41pt" viewBox="0 0 56 41"><g id="graph0" class="graph" transform="scale(1 1) rotate(0) translate(4 37)"><title>G</title><polygon fill="#fff" stroke="transparent" points="-4 4 -4 -37 52 -37 52 4 -4 4"/><g id="node1" class="node"><title>node4354692856</title><polygon fill="#fefecd" stroke="#444443" stroke-width=".5" points="48 -33 0 -33 0 0 48 0 48 -33"/><polygon fill="#fbfeb0" stroke="transparent" points="10 -17.5 10 -28.5 17 -28.5 17 -17.5 10 -17.5"/><polyline fill="none" stroke="#444443" points="10 -17.5 17 -17.5 17 -28.5"/><text x="10.997" y="-20.3" fill="#444443" font-family="Helvetica,sans-Serif" font-size="9" text-anchor="start">0</text><polygon fill="#fbfeb0" stroke="transparent" points="17 -17.5 17 -28.5 24 -28.5 24 -17.5 17 -17.5"/><polyline fill="none" stroke="#444443" points="17 -17.5 24 -17.5 24 -28.5"/><text x="17.997" y="-20.3" fill="#444443" font-family="Helvetica,sans-Serif" font-size="9" text-anchor="start">1</text><polygon fill="#fbfeb0" stroke="transparent" points="24 -17.5 24 -28.5 31 -28.5 31 -17.5 24 -17.5"/><polyline fill="none" stroke="#444443" points="24 -17.5 31 -17.5 31 -28.5"/><text x="24.997" y="-20.3" fill="#444443" font-family="Helvetica,sans-Serif" font-size="9" text-anchor="start">2</text><polygon fill="#fbfeb0" stroke="transparent" points="31 -17.5 31 -28.5 38 -28.5 38 -17.5 31 -17.5"/><polyline fill="none" stroke="#444443" points="31 -17.5 38 -17.5"/><text x="31.997" y="-20.3" fill="#444443" font-family="Helvetica,sans-Serif" font-size="9" text-anchor="start">3</text><text x="7.664" y="-6.3" fill="#444443" font-family="Helvetica,sans-Serif" font-size="14" text-anchor="start">&apos;</text><polygon fill="#fbfeb0" stroke="transparent" points="10 -3.5 10 -17.5 17 -17.5 17 -3.5 10 -3.5"/><text x="10.2" y="-8.7" fill="#444443" font-family="Monaco" font-size="11" text-anchor="start">M</text><polygon fill="#fbfeb0" stroke="transparent" points="17 -3.5 17 -17.5 24 -17.5 24 -3.5 17 -3.5"/><text x="17.2" y="-8.7" fill="#444443" font-family="Monaco" font-size="11" text-anchor="start">a</text><polygon fill="#fbfeb0" stroke="transparent" points="24 -3.5 24 -17.5 31 -17.5 31 -3.5 24 -3.5"/><text x="24.2" y="-8.7" fill="#444443" font-family="Monaco" font-size="11" text-anchor="start">r</text><polygon fill="#fbfeb0" stroke="transparent" points="31 -3.5 31 -17.5 38 -17.5 38 -3.5 31 -3.5"/><text x="31.2" y="-8.7" fill="#444443" font-family="Monaco" font-size="11" text-anchor="start">y</text><text x="37.664" y="-6.3" fill="#444443" font-family="Helvetica,sans-Serif" font-size="14" text-anchor="start">&apos;</text></g></g></svg>