<svg xmlns="http://www.w3.org/2000/svg" xmlns:xlink="http://www.w3.org/1999/xlink" width="202pt" height="38pt" viewBox="0 0 202 38"><g id="graph0" class="graph" transform="scale(1 1) rotate(0) translate(4 34)"><title>G</title><polygon fill="#fff" stroke="transparent" points="-4 4 -4 -34 198 -34 198 4 -4 4"/><g id="node1" class="node"><title>node4354997576</title><polygon fill="none" stroke="#000" stroke-width=".5" points="194 -30 0 -30 0 0 194 0 194 -30"/><polygon fill="#fefecd" stroke="transparent" points="1 -18 1 -29 34 -29 34 -18 1 -18"/><polyline fill="none" stroke="#000" points="1 -18 34 -18 34 -29"/><text x="14.997" y="-20.8" fill="#444443" font-family="Helvetica,sans-Serif" font-size="9" text-anchor="start">0</text><polygon fill="#fefecd" stroke="transparent" points="34 -18 34 -29 85 -29 85 -18 34 -18"/><polyline fill="none" stroke="#000" points="34 -18 85 -18 85 -29"/><text x="56.997" y="-20.8" fill="#444443" font-family="Helvetica,sans-Serif" font-size="9" text-anchor="start">1</text><polygon fill="#fefecd" stroke="transparent" points="85 -18 85 -29 142 -29 142 -18 85 -18"/><polyline fill="none" stroke="#000" points="85 -18 142 -18 142 -29"/><text x="110.997" y="-20.8" fill="#444443" font-family="Helvetica,sans-Serif" font-size="9" text-anchor="start">2</text><polygon fill="#fefecd" stroke="transparent" points="142 -18 142 -29 193 -29 193 -18 142 -18"/><polyline fill="none" stroke="#000" points="142 -18 193 -18"/><text x="164.997" y="-20.8" fill="#444443" font-family="Helvetica,sans-Serif" font-size="9" text-anchor="start">3</text><polygon fill="#fefecd" stroke="transparent" points="1 -1 1 -18 34 -18 34 -1 1 -1"/><polyline fill="none" stroke="#000" points="34 -1 34 -18"/><text x="3.782" y="-6.2" fill="#444443" font-family="Helvetica,sans-Serif" font-size="11" text-anchor="start">&apos;Date&apos;</text><polygon fill="#fefecd" stroke="transparent" points="34 -1 34 -18 85 -18 85 -1 34 -1"/><polyline fill="none" stroke="#000" points="85 -1 85 -18"/><text x="36.917" y="-6.2" fill="#444443" font-family="Helvetica,sans-Serif" font-size="11" text-anchor="start">&apos;Quantity&apos;</text><polygon fill="#fefecd" stroke="transparent" points="85 -1 85 -18 142 -18 142 -1 85 -1"/><polyline fill="none" stroke="#000" points="142 -1 142 -18"/><text x="87.56" y="-6.2" fill="#444443" font-family="Helvetica,sans-Serif" font-size="11" text-anchor="start">&apos;Unit Price&apos;</text><polygon fill="#fefecd" stroke="transparent" points="142 -1 142 -18 193 -18 193 -1 142 -1"/><text x="143.993" y="-6.2" fill="#444443" font-family="Helvetica,sans-Serif" font-size="11" text-anchor="start">&apos;Shipping&apos;</text></g></g></svg>