<svg xmlns="http://www.w3.org/2000/svg" xmlns:xlink="http://www.w3.org/1999/xlink" width="94pt" height="56" viewBox="0 0 94 42"><g id="graph0" class="graph" transform="scale(1 1) rotate(0) translate(4 38)"><title>G</title><polygon fill="#fff" stroke="transparent" points="-4 4 -4 -38 90 -38 90 4 -4 4"/><g id="node1" class="node"><title>node4597802688</title><polygon fill="none" stroke="#000" stroke-width=".5" points="86 -34 0 -34 0 0 86 0 86 -34"/><polygon fill="#fefecd" stroke="transparent" points="1 -17 1 -33 18 -33 18 -17 1 -17"/><text x="3.938" y="-22" fill="#444443" font-family="Helvetica,sans-Serif" font-size="10" text-anchor="start">19</text><polygon fill="#fefecd" stroke="transparent" points="18 -17 18 -33 35 -33 35 -17 18 -17"/><text x="20.939" y="-22" fill="#444443" font-family="Helvetica,sans-Serif" font-size="10" text-anchor="start">21</text><polygon fill="#fefecd" stroke="transparent" points="35 -17 35 -33 57 -33 57 -17 35 -17"/><text x="37.658" y="-22" fill="#444443" font-family="Helvetica,sans-Serif" font-size="10" text-anchor="start">103</text><polygon fill="#fefecd" stroke="transparent" points="57 -17 57 -33 74 -33 74 -17 57 -17"/><text x="59.938" y="-22" fill="#444443" font-family="Helvetica,sans-Serif" font-size="10" text-anchor="start">99</text><polygon fill="#fefecd" stroke="transparent" points="74 -17 74 -33 85 -33 85 -17 74 -17"/><text x="76.719" y="-22" fill="#444443" font-family="Helvetica,sans-Serif" font-size="10" text-anchor="start">8</text><polygon fill="#fefecd" stroke="transparent" points="1 -1 1 -17 18 -17 18 -1 1 -1"/><text x="4.307" y="-6" fill="#444443" font-family="Helvetica,sans-Serif" font-size="10" text-anchor="start">11</text><polygon fill="#fefecd" stroke="transparent" points="18 -1 18 -17 35 -17 35 -1 18 -1"/><text x="20.939" y="-6" fill="#444443" font-family="Helvetica,sans-Serif" font-size="10" text-anchor="start">15</text><polygon fill="#fefecd" stroke="transparent" points="35 -1 35 -17 57 -17 57 -1 35 -1"/><text x="40.438" y="-6" fill="#444443" font-family="Helvetica,sans-Serif" font-size="10" text-anchor="start">18</text><polygon fill="#fefecd" stroke="transparent" points="57 -1 57 -17 74 -17 74 -1 57 -1"/><text x="59.938" y="-6" fill="#444443" font-family="Helvetica,sans-Serif" font-size="10" text-anchor="start">13</text><polygon fill="#fefecd" stroke="transparent" points="74 -1 74 -17 85 -17 85 -1 74 -1"/><text x="76.719" y="-6" fill="#444443" font-family="Helvetica,sans-Serif" font-size="10" text-anchor="start">2</text></g></g></svg>