<svg xmlns="http://www.w3.org/2000/svg" xmlns:xlink="http://www.w3.org/1999/xlink" width="49pt" height="120" viewBox="0 0 49 90"><g id="graph0" class="graph" transform="scale(1 1) rotate(0) translate(4 86)"><title>G</title><polygon fill="#fff" stroke="transparent" points="-4 4 -4 -86 45 -86 45 4 -4 4"/><g id="node1" class="node"><title>node4597757712</title><polygon fill="none" stroke="#000" stroke-width=".5" points="41 -82 0 -82 0 0 41 0 41 -82"/><polygon fill="#fefecd" stroke="transparent" points="1.5 -65 1.5 -81 23.5 -81 23.5 -65 1.5 -65"/><text x="6.939" y="-70" fill="#444443" font-family="Helvetica,sans-Serif" font-size="10" text-anchor="start">19</text><polygon fill="#fefecd" stroke="transparent" points="23.5 -65 23.5 -81 40.5 -81 40.5 -65 23.5 -65"/><text x="26.807" y="-70" fill="#444443" font-family="Helvetica,sans-Serif" font-size="10" text-anchor="start">11</text><polygon fill="#fefecd" stroke="transparent" points="1.5 -49 1.5 -65 23.5 -65 23.5 -49 1.5 -49"/><text x="6.939" y="-54" fill="#444443" font-family="Helvetica,sans-Serif" font-size="10" text-anchor="start">21</text><polygon fill="#fefecd" stroke="transparent" points="23.5 -49 23.5 -65 40.5 -65 40.5 -49 23.5 -49"/><text x="26.439" y="-54" fill="#444443" font-family="Helvetica,sans-Serif" font-size="10" text-anchor="start">15</text><polygon fill="#fefecd" stroke="transparent" points="1.5 -33 1.5 -49 23.5 -49 23.5 -33 1.5 -33"/><text x="4.158" y="-38" fill="#444443" font-family="Helvetica,sans-Serif" font-size="10" text-anchor="start">103</text><polygon fill="#fefecd" stroke="transparent" points="23.5 -33 23.5 -49 40.5 -49 40.5 -33 23.5 -33"/><text x="26.439" y="-38" fill="#444443" font-family="Helvetica,sans-Serif" font-size="10" text-anchor="start">18</text><polygon fill="#fefecd" stroke="transparent" points="1.5 -17 1.5 -33 23.5 -33 23.5 -17 1.5 -17"/><text x="6.939" y="-22" fill="#444443" font-family="Helvetica,sans-Serif" font-size="10" text-anchor="start">99</text><polygon fill="#fefecd" stroke="transparent" points="23.5 -17 23.5 -33 40.5 -33 40.5 -17 23.5 -17"/><text x="26.439" y="-22" fill="#444443" font-family="Helvetica,sans-Serif" font-size="10" text-anchor="start">13</text><polygon fill="#fefecd" stroke="transparent" points="1.5 -1 1.5 -17 23.5 -17 23.5 -1 1.5 -1"/><text x="9.719" y="-6" fill="#444443" font-family="Helvetica,sans-Serif" font-size="10" text-anchor="start">8</text><polygon fill="#fefecd" stroke="transparent" points="23.5 -1 23.5 -17 40.5 -17 40.5 -1 23.5 -1"/><text x="29.219" y="-6" fill="#444443" font-family="Helvetica,sans-Serif" font-size="10" text-anchor="start">2</text></g></g></svg>