<svg xmlns="http://www.w3.org/2000/svg" xmlns:xlink="http://www.w3.org/1999/xlink" width="71pt" height="38pt" viewBox="0 0 71 38"><g id="graph0" class="graph" transform="scale(1 1) rotate(0) translate(4 34)"><title>G</title><polygon fill="#fff" stroke="transparent" points="-4 4 -4 -34 67 -34 67 4 -4 4"/><g id="node1" class="node"><title>node4354796424</title><polygon fill="none" stroke="#000" stroke-width=".5" points="63 -30 0 -30 0 0 63 0 63 -30"/><polygon fill="#fefecd" stroke="transparent" points="1.5 -18 1.5 -29 20.5 -29 20.5 -18 1.5 -18"/><polyline fill="none" stroke="#000" points="1.5 -18 20.5 -18 20.5 -29"/><text x="8.497" y="-20.8" fill="#444443" font-family="Helvetica,sans-Serif" font-size="9" text-anchor="start">0</text><polygon fill="#fefecd" stroke="transparent" points="20.5 -18 20.5 -29 36.5 -29 36.5 -18 20.5 -18"/><polyline fill="none" stroke="#000" points="20.5 -18 36.5 -18 36.5 -29"/><text x="25.997" y="-20.8" fill="#444443" font-family="Helvetica,sans-Serif" font-size="9" text-anchor="start">1</text><polygon fill="#fefecd" stroke="transparent" points="36.5 -18 36.5 -29 49.5 -29 49.5 -18 36.5 -18"/><polyline fill="none" stroke="#000" points="36.5 -18 49.5 -18 49.5 -29"/><text x="40.497" y="-20.8" fill="#444443" font-family="Helvetica,sans-Serif" font-size="9" text-anchor="start">2</text><polygon fill="#fefecd" stroke="transparent" points="49.5 -18 49.5 -29 62.5 -29 62.5 -18 49.5 -18"/><polyline fill="none" stroke="#000" points="49.5 -18 62.5 -18"/><text x="53.497" y="-20.8" fill="#444443" font-family="Helvetica,sans-Serif" font-size="9" text-anchor="start">3</text><polygon fill="#fefecd" stroke="transparent" points="1.5 -1 1.5 -18 20.5 -18 20.5 -1 1.5 -1"/><polyline fill="none" stroke="#000" points="20.5 -1 20.5 -18"/><text x="4.318" y="-6.2" fill="#444443" font-family="Helvetica,sans-Serif" font-size="11" text-anchor="start">&apos;M&apos;</text><polygon fill="#fefecd" stroke="transparent" points="20.5 -1 20.5 -18 36.5 -18 36.5 -1 20.5 -1"/><polyline fill="none" stroke="#000" points="36.5 -1 36.5 -18"/><text x="23.341" y="-6.2" fill="#444443" font-family="Helvetica,sans-Serif" font-size="11" text-anchor="start">&apos;a&apos;</text><polygon fill="#fefecd" stroke="transparent" points="36.5 -1 36.5 -18 49.5 -18 49.5 -1 36.5 -1"/><polyline fill="none" stroke="#000" points="49.5 -1 49.5 -18"/><text x="39.068" y="-6.2" fill="#444443" font-family="Helvetica,sans-Serif" font-size="11" text-anchor="start">&apos;r&apos;</text><polygon fill="#fefecd" stroke="transparent" points="49.5 -1 49.5 -18 62.5 -18 62.5 -1 49.5 -1"/><text x="51.15" y="-6.2" fill="#444443" font-family="Helvetica,sans-Serif" font-size="11" text-anchor="start">&apos;y&apos;</text></g></g></svg>