<svg xmlns="http://www.w3.org/2000/svg" xmlns:xlink="http://www.w3.org/1999/xlink" width="127pt" height="38pt" viewBox="0 0 127 38"><g id="graph0" class="graph" transform="scale(1 1) rotate(0) translate(4 34)"><title>G</title><polygon fill="#fff" stroke="transparent" points="-4 4 -4 -34 123 -34 123 4 -4 4"/><g id="node1" class="node"><title>node4355073992</title><polygon fill="none" stroke="#000" stroke-width=".5" points="119 -30 0 -30 0 0 119 0 119 -30"/><polygon fill="#fefecd" stroke="transparent" points="1.5 -18 1.5 -29 25.5 -29 25.5 -18 1.5 -18"/><polyline fill="none" stroke="#000" points="1.5 -18 25.5 -18 25.5 -29"/><text x="10.997" y="-20.8" fill="#444443" font-family="Helvetica,sans-Serif" font-size="9" text-anchor="start">0</text><polygon fill="#fefecd" stroke="transparent" points="25.5 -18 25.5 -29 49.5 -29 49.5 -18 25.5 -18"/><polyline fill="none" stroke="#000" points="25.5 -18 49.5 -18 49.5 -29"/><text x="34.997" y="-20.8" fill="#444443" font-family="Helvetica,sans-Serif" font-size="9" text-anchor="start">1</text><polygon fill="#fefecd" stroke="transparent" points="49.5 -18 49.5 -29 73.5 -29 73.5 -18 49.5 -18"/><polyline fill="none" stroke="#000" points="49.5 -18 73.5 -18 73.5 -29"/><text x="58.997" y="-20.8" fill="#444443" font-family="Helvetica,sans-Serif" font-size="9" text-anchor="start">2</text><polygon fill="#fefecd" stroke="transparent" points="73.5 -18 73.5 -29 96.5 -29 96.5 -18 73.5 -18"/><polyline fill="none" stroke="#000" points="73.5 -18 96.5 -18 96.5 -29"/><text x="82.497" y="-20.8" fill="#444443" font-family="Helvetica,sans-Serif" font-size="9" text-anchor="start">3</text><polygon fill="#fefecd" stroke="transparent" points="96.5 -18 96.5 -29 118.5 -29 118.5 -18 96.5 -18"/><polyline fill="none" stroke="#000" points="96.5 -18 118.5 -18"/><text x="104.997" y="-20.8" fill="#444443" font-family="Helvetica,sans-Serif" font-size="9" text-anchor="start">4</text><polygon fill="#fefecd" stroke="transparent" points="1.5 -1 1.5 -18 25.5 -18 25.5 -1 1.5 -1"/><polyline fill="none" stroke="#000" points="25.5 -1 25.5 -18"/><text x="4.324" y="-6.2" fill="#444443" font-family="Helvetica,sans-Serif" font-size="11" text-anchor="start">100</text><polygon fill="#fefecd" stroke="transparent" points="25.5 -1 25.5 -18 49.5 -18 49.5 -1 25.5 -1"/><polyline fill="none" stroke="#000" points="49.5 -1 49.5 -18"/><text x="28.323" y="-6.2" fill="#444443" font-family="Helvetica,sans-Serif" font-size="11" text-anchor="start">102</text><polygon fill="#fefecd" stroke="transparent" points="49.5 -1 49.5 -18 73.5 -18 73.5 -1 49.5 -1"/><polyline fill="none" stroke="#000" points="73.5 -1 73.5 -18"/><text x="52.324" y="-6.2" fill="#444443" font-family="Helvetica,sans-Serif" font-size="11" text-anchor="start">103</text><polygon fill="#fefecd" stroke="transparent" points="73.5 -1 73.5 -18 96.5 -18 96.5 -1 73.5 -1"/><polyline fill="none" stroke="#000" points="96.5 -1 96.5 -18"/><text x="76.229" y="-6.2" fill="#444443" font-family="Helvetica,sans-Serif" font-size="11" text-anchor="start">113</text><polygon fill="#fefecd" stroke="transparent" points="96.5 -1 96.5 -18 118.5 -18 118.5 -1 96.5 -1"/><text x="98.323" y="-6.2" fill="#444443" font-family="Helvetica,sans-Serif" font-size="11" text-anchor="start">121</text></g></g></svg>