<svg xmlns="http://www.w3.org/2000/svg" xmlns:xlink="http://www.w3.org/1999/xlink" width="331pt" height="38pt" viewBox="0 0 331 38"><g id="graph0" class="graph" transform="scale(1 1) rotate(0) translate(4 34)"><title>G</title><polygon fill="#fff" stroke="transparent" points="-4 4 -4 -34 327 -34 327 4 -4 4"/><g id="node1" class="node"><title>node4354997192</title><polygon fill="none" stroke="#000" stroke-width=".5" points="323 -30 0 -30 0 0 323 0 323 -30"/><polygon fill="#fefecd" stroke="transparent" points="1.5 -18 1.5 -29 142.5 -29 142.5 -18 1.5 -18"/><polyline fill="none" stroke="#000" points="1.5 -18 142.5 -18 142.5 -29"/><text x="69.497" y="-20.8" fill="#444443" font-family="Helvetica,sans-Serif" font-size="9" text-anchor="start">0</text><polygon fill="#fefecd" stroke="transparent" points="142.5 -18 142.5 -29 154.5 -29 154.5 -18 142.5 -18"/><polyline fill="none" stroke="#000" points="142.5 -18 154.5 -18 154.5 -29"/><text x="145.997" y="-20.8" fill="#444443" font-family="Helvetica,sans-Serif" font-size="9" text-anchor="start">1</text><polygon fill="#fefecd" stroke="transparent" points="154.5 -18 154.5 -29 187.5 -29 187.5 -18 154.5 -18"/><polyline fill="none" stroke="#000" points="154.5 -18 187.5 -18 187.5 -29"/><text x="168.497" y="-20.8" fill="#444443" font-family="Helvetica,sans-Serif" font-size="9" text-anchor="start">2</text><polygon fill="#fefecd" stroke="transparent" points="187.5 -18 187.5 -29 205.5 -29 205.5 -18 187.5 -18"/><polyline fill="none" stroke="#000" points="187.5 -18 205.5 -18 205.5 -29"/><text x="193.997" y="-20.8" fill="#444443" font-family="Helvetica,sans-Serif" font-size="9" text-anchor="start">3</text><polygon fill="#fefecd" stroke="transparent" points="205.5 -18 205.5 -29 322.5 -29 322.5 -18 205.5 -18"/><polyline fill="none" stroke="#000" points="205.5 -18 322.5 -18"/><text x="261.497" y="-20.8" fill="#444443" font-family="Helvetica,sans-Serif" font-size="9" text-anchor="start">4</text><polygon fill="#fefecd" stroke="transparent" points="1.5 -1 1.5 -18 142.5 -18 142.5 -1 1.5 -1"/><polyline fill="none" stroke="#000" points="142.5 -1 142.5 -18"/><text x="4.426" y="-6.2" fill="#444443" font-family="Helvetica,sans-Serif" font-size="11" text-anchor="start">datetime.date(2010, 10, 13)</text><polygon fill="#fefecd" stroke="transparent" points="142.5 -1 142.5 -18 154.5 -18 154.5 -1 142.5 -1"/><polyline fill="none" stroke="#000" points="154.5 -1 154.5 -18"/><text x="145.441" y="-6.2" fill="#444443" font-family="Helvetica,sans-Serif" font-size="11" text-anchor="start">6</text><polygon fill="#fefecd" stroke="transparent" points="154.5 -1 154.5 -18 187.5 -18 187.5 -1 154.5 -1"/><polyline fill="none" stroke="#000" points="187.5 -1 187.5 -18"/><text x="157.237" y="-6.2" fill="#444443" font-family="Helvetica,sans-Serif" font-size="11" text-anchor="start">38.94</text><polygon fill="#fefecd" stroke="transparent" points="187.5 -1 187.5 -18 205.5 -18 205.5 -1 187.5 -1"/><polyline fill="none" stroke="#000" points="205.5 -1 205.5 -18"/><text x="190.382" y="-6.2" fill="#444443" font-family="Helvetica,sans-Serif" font-size="11" text-anchor="start">35</text><polygon fill="#fefecd" stroke="transparent" points="205.5 -1 205.5 -18 322.5 -18 322.5 -1 205.5 -1"/><text x="207.187" y="-6.2" fill="#444443" font-family="Helvetica,sans-Serif" font-size="11" text-anchor="start">&apos;Muhammed MacIntyre&apos;</text></g></g></svg>