<svg xmlns="http://www.w3.org/2000/svg" xmlns:xlink="http://www.w3.org/1999/xlink" width="92pt" height="232" viewBox="0 0 92 174"><g id="graph0" class="graph" transform="scale(1 1) rotate(0) translate(4 170)"><title>G</title><polygon fill="#fff" stroke="transparent" points="-4 4 -4 -170 88 -170 88 4 -4 4"/><g id="node1" class="node"><title>node4597751944</title><polygon fill="#cfe2d4" stroke="#444443" stroke-width=".5" points="13 -122.5 0 -122.5 0 -45.5 13 -45.5 13 -122.5"/><polygon fill="#cfe2d4" stroke="transparent" points="1.5 -106 1.5 -121 12.5 -121 12.5 -106 1.5 -106"/><polyline fill="none" stroke="#444443" points="1.5 -106 12.5 -106"/><text x="4.497" y="-110.8" fill="#444443" font-family="Helvetica,sans-Serif" font-size="9" text-anchor="start">0</text><polygon fill="#cfe2d4" stroke="transparent" points="1.5 -91 1.5 -106 12.5 -106 12.5 -91 1.5 -91"/><polyline fill="none" stroke="#444443" points="1.5 -91 12.5 -91"/><text x="4.497" y="-95.8" fill="#444443" font-family="Helvetica,sans-Serif" font-size="9" text-anchor="start">1</text><polygon fill="#cfe2d4" stroke="transparent" points="1.5 -76 1.5 -91 12.5 -91 12.5 -76 1.5 -76"/><polyline fill="none" stroke="#444443" points="1.5 -76 12.5 -76"/><text x="4.497" y="-80.8" fill="#444443" font-family="Helvetica,sans-Serif" font-size="9" text-anchor="start">2</text><polygon fill="#cfe2d4" stroke="transparent" points="1.5 -61 1.5 -76 12.5 -76 12.5 -61 1.5 -61"/><polyline fill="none" stroke="#444443" points="1.5 -61 12.5 -61"/><text x="4.497" y="-65.8" fill="#444443" font-family="Helvetica,sans-Serif" font-size="9" text-anchor="start">3</text><polygon fill="#cfe2d4" stroke="transparent" points="1.5 -46 1.5 -61 12.5 -61 12.5 -46 1.5 -46"/><text x="4.497" y="-50.8" fill="#444443" font-family="Helvetica,sans-Serif" font-size="9" text-anchor="start">4</text></g><g id="node2" class="node"><title>node4597754824</title><polygon fill="none" stroke="#000" stroke-width=".5" points="80.5 -166 45.5 -166 45.5 -136 80.5 -136 80.5 -166"/><polygon fill="#fefecd" stroke="transparent" points="47 -154 47 -165 65 -165 65 -154 47 -154"/><polyline fill="none" stroke="#000" points="47 -154 65 -154 65 -165"/><text x="53.497" y="-156.8" fill="#444443" font-family="Helvetica,sans-Serif" font-size="9" text-anchor="start">0</text><polygon fill="#fefecd" stroke="transparent" points="65 -154 65 -165 80 -165 80 -154 65 -154"/><polyline fill="none" stroke="#000" points="65 -154 80 -154"/><text x="69.997" y="-156.8" fill="#444443" font-family="Helvetica,sans-Serif" font-size="9" text-anchor="start">1</text><polygon fill="#fefecd" stroke="transparent" points="47 -137 47 -154 65 -154 65 -137 47 -137"/><polyline fill="none" stroke="#000" points="65 -137 65 -154"/><text x="49.882" y="-142.2" fill="#444443" font-family="Helvetica,sans-Serif" font-size="11" text-anchor="start">19</text><polygon fill="#fefecd" stroke="transparent" points="65 -137 65 -154 80 -154 80 -137 65 -137"/><text x="66.788" y="-142.2" fill="#444443" font-family="Helvetica,sans-Serif" font-size="11" text-anchor="start">11</text></g><g id="edge1" class="edge"><title>node4597751944:0-&gt;node4597754824:w</title><path fill="none" stroke="#444443" stroke-width=".5" d="M12.5,-114C32.8485,-114 24.5341,-145.9798 40.8519,-150.477"/><polygon fill="#444443" stroke="#444443" stroke-width=".5" points="40.856 -151.888 45 -151 41.207 -149.111 40.856 -151.888"/></g><g id="node3" class="node"><title>node4597753480</title><polygon fill="none" stroke="#000" stroke-width=".5" points="81 -132 45 -132 45 -102 81 -102 81 -132"/><polygon fill="#fefecd" stroke="transparent" points="46 -120 46 -131 64 -131 64 -120 46 -120"/><polyline fill="none" stroke="#000" points="46 -120 64 -120 64 -131"/><text x="52.497" y="-122.8" fill="#444443" font-family="Helvetica,sans-Serif" font-size="9" text-anchor="start">0</text><polygon fill="#fefecd" stroke="transparent" points="64 -120 64 -131 80 -131 80 -120 64 -120"/><polyline fill="none" stroke="#000" points="64 -120 80 -120"/><text x="69.497" y="-122.8" fill="#444443" font-family="Helvetica,sans-Serif" font-size="9" text-anchor="start">1</text><polygon fill="#fefecd" stroke="transparent" points="46 -103 46 -120 64 -120 64 -103 46 -103"/><polyline fill="none" stroke="#000" points="64 -103 64 -120"/><text x="48.882" y="-108.2" fill="#444443" font-family="Helvetica,sans-Serif" font-size="11" text-anchor="start">21</text><polygon fill="#fefecd" stroke="transparent" points="64 -103 64 -120 80 -120 80 -103 64 -103"/><text x="65.882" y="-108.2" fill="#444443" font-family="Helvetica,sans-Serif" font-size="11" text-anchor="start">15</text></g><g id="edge2" class="edge"><title>node4597751944:1-&gt;node4597753480:w</title><path fill="none" stroke="#444443" stroke-width=".5" d="M12.5,-99C27.4639,-99 28.4366,-113.7832 40.7771,-116.5551"/><polygon fill="#444443" stroke="#444443" stroke-width=".5" points="40.875 -117.973 45 -117 41.169 -115.189 40.875 -117.973"/></g><g id="node4" class="node"><title>node4596931336</title><polygon fill="none" stroke="#000" stroke-width=".5" points="84 -98 42 -98 42 -68 84 -68 84 -98"/><polygon fill="#fefecd" stroke="transparent" points="43 -86 43 -97 67 -97 67 -86 43 -86"/><polyline fill="none" stroke="#000" points="43 -86 67 -86 67 -97"/><text x="52.497" y="-88.8" fill="#444443" font-family="Helvetica,sans-Serif" font-size="9" text-anchor="start">0</text><polygon fill="#fefecd" stroke="transparent" points="67 -86 67 -97 83 -97 83 -86 67 -86"/><polyline fill="none" stroke="#000" points="67 -86 83 -86"/><text x="72.497" y="-88.8" fill="#444443" font-family="Helvetica,sans-Serif" font-size="9" text-anchor="start">1</text><polygon fill="#fefecd" stroke="transparent" points="43 -69 43 -86 67 -86 67 -69 43 -69"/><polyline fill="none" stroke="#000" points="67 -69 67 -86"/><text x="45.824" y="-74.2" fill="#444443" font-family="Helvetica,sans-Serif" font-size="11" text-anchor="start">103</text><polygon fill="#fefecd" stroke="transparent" points="67 -69 67 -86 83 -86 83 -69 67 -69"/><text x="68.882" y="-74.2" fill="#444443" font-family="Helvetica,sans-Serif" font-size="11" text-anchor="start">18</text></g><g id="edge3" class="edge"><title>node4597751944:2-&gt;node4596931336:w</title><path fill="none" stroke="#444443" stroke-width=".5" d="M12.5,-83C24.0747,-83 27.9856,-83 37.7641,-83"/><polygon fill="#444443" stroke="#444443" stroke-width=".5" points="38 -84.4 42 -83 38 -81.6 38 -84.4"/></g><g id="node5" class="node"><title>node4597753224</title><polygon fill="none" stroke="#000" stroke-width=".5" points="81 -64 45 -64 45 -34 81 -34 81 -64"/><polygon fill="#fefecd" stroke="transparent" points="46 -52 46 -63 64 -63 64 -52 46 -52"/><polyline fill="none" stroke="#000" points="46 -52 64 -52 64 -63"/><text x="52.497" y="-54.8" fill="#444443" font-family="Helvetica,sans-Serif" font-size="9" text-anchor="start">0</text><polygon fill="#fefecd" stroke="transparent" points="64 -52 64 -63 80 -63 80 -52 64 -52"/><polyline fill="none" stroke="#000" points="64 -52 80 -52"/><text x="69.497" y="-54.8" fill="#444443" font-family="Helvetica,sans-Serif" font-size="9" text-anchor="start">1</text><polygon fill="#fefecd" stroke="transparent" points="46 -35 46 -52 64 -52 64 -35 46 -35"/><polyline fill="none" stroke="#000" points="64 -35 64 -52"/><text x="48.882" y="-40.2" fill="#444443" font-family="Helvetica,sans-Serif" font-size="11" text-anchor="start">99</text><polygon fill="#fefecd" stroke="transparent" points="64 -35 64 -52 80 -52 80 -35 64 -35"/><text x="65.882" y="-40.2" fill="#444443" font-family="Helvetica,sans-Serif" font-size="11" text-anchor="start">13</text></g><g id="edge4" class="edge"><title>node4597751944:3-&gt;node4597753224:w</title><path fill="none" stroke="#444443" stroke-width=".5" d="M12.5,-68C27.6631,-68 28.2934,-52.3955 40.7316,-49.4697"/><polygon fill="#444443" stroke="#444443" stroke-width=".5" points="41.177 -50.829 45 -49 40.871 -48.046 41.177 -50.829"/></g><g id="node6" class="node"><title>node4597752456</title><polygon fill="none" stroke="#000" stroke-width=".5" points="75 -30 51 -30 51 0 75 0 75 -30"/><polygon fill="#fefecd" stroke="transparent" points="52 -18 52 -29 64 -29 64 -18 52 -18"/><polyline fill="none" stroke="#000" points="52 -18 64 -18 64 -29"/><text x="55.497" y="-20.8" fill="#444443" font-family="Helvetica,sans-Serif" font-size="9" text-anchor="start">0</text><polygon fill="#fefecd" stroke="transparent" points="64 -18 64 -29 74 -29 74 -18 64 -18"/><polyline fill="none" stroke="#000" points="64 -18 74 -18"/><text x="66.497" y="-20.8" fill="#444443" font-family="Helvetica,sans-Serif" font-size="9" text-anchor="start">1</text><polygon fill="#fefecd" stroke="transparent" points="52 -1 52 -18 64 -18 64 -1 52 -1"/><polyline fill="none" stroke="#000" points="64 -1 64 -18"/><text x="54.941" y="-6.2" fill="#444443" font-family="Helvetica,sans-Serif" font-size="11" text-anchor="start">8</text><polygon fill="#fefecd" stroke="transparent" points="64 -1 64 -18 74 -18 74 -1 64 -1"/><text x="65.941" y="-6.2" fill="#444443" font-family="Helvetica,sans-Serif" font-size="11" text-anchor="start">2</text></g><g id="edge5" class="edge"><title>node4597751944:4-&gt;node4597752456:w</title><path fill="none" stroke="#444443" stroke-width=".5" d="M12.5,-53C35.0395,-53 28.0245,-19.6016 46.8697,-15.4268"/><polygon fill="#444443" stroke="#444443" stroke-width=".5" points="47.165 -16.804 51 -15 46.877 -14.019 47.165 -16.804"/></g></g></svg>