<svg xmlns="http://www.w3.org/2000/svg" xmlns:xlink="http://www.w3.org/1999/xlink" width="71pt" height="120" viewBox="0 0 71 90"><g id="graph0" class="graph" transform="scale(1 1) rotate(0) translate(4 86)"><title>G</title><polygon fill="#fff" stroke="transparent" points="-4 4 -4 -86 67 -86 67 4 -4 4"/><g id="node1" class="node"><title>node4597801728</title><polygon fill="none" stroke="#000" stroke-width=".5" points="63 -82 0 -82 0 0 63 0 63 -82"/><polygon fill="#fefecd" stroke="transparent" points="1.5 -65 1.5 -81 34.5 -81 34.5 -65 1.5 -65"/><text x="6.877" y="-70" fill="#444443" font-family="Helvetica,sans-Serif" font-size="10" text-anchor="start">1881</text><polygon fill="#fefecd" stroke="transparent" points="34.5 -65 34.5 -81 62.5 -81 62.5 -65 34.5 -65"/><text x="37.377" y="-70" fill="#444443" font-family="Helvetica,sans-Serif" font-size="10" text-anchor="start">1089</text><polygon fill="#fefecd" stroke="transparent" points="1.5 -49 1.5 -65 34.5 -65 34.5 -49 1.5 -49"/><text x="6.877" y="-54" fill="#444443" font-family="Helvetica,sans-Serif" font-size="10" text-anchor="start">2079</text><polygon fill="#fefecd" stroke="transparent" points="34.5 -49 34.5 -65 62.5 -65 62.5 -49 34.5 -49"/><text x="37.377" y="-54" fill="#444443" font-family="Helvetica,sans-Serif" font-size="10" text-anchor="start">1485</text><polygon fill="#fefecd" stroke="transparent" points="1.5 -33 1.5 -49 34.5 -49 34.5 -33 1.5 -33"/><text x="4.096" y="-38" fill="#444443" font-family="Helvetica,sans-Serif" font-size="10" text-anchor="start">10197</text><polygon fill="#fefecd" stroke="transparent" points="34.5 -33 34.5 -49 62.5 -49 62.5 -33 34.5 -33"/><text x="37.377" y="-38" fill="#444443" font-family="Helvetica,sans-Serif" font-size="10" text-anchor="start">1782</text><polygon fill="#fefecd" stroke="transparent" points="1.5 -17 1.5 -33 34.5 -33 34.5 -17 1.5 -17"/><text x="6.877" y="-22" fill="#444443" font-family="Helvetica,sans-Serif" font-size="10" text-anchor="start">9801</text><polygon fill="#fefecd" stroke="transparent" points="34.5 -17 34.5 -33 62.5 -33 62.5 -17 34.5 -17"/><text x="37.377" y="-22" fill="#444443" font-family="Helvetica,sans-Serif" font-size="10" text-anchor="start">1287</text><polygon fill="#fefecd" stroke="transparent" points="1.5 -1 1.5 -17 34.5 -17 34.5 -1 1.5 -1"/><text x="9.658" y="-6" fill="#444443" font-family="Helvetica,sans-Serif" font-size="10" text-anchor="start">792</text><polygon fill="#fefecd" stroke="transparent" points="34.5 -1 34.5 -17 62.5 -17 62.5 -1 34.5 -1"/><text x="40.158" y="-6" fill="#444443" font-family="Helvetica,sans-Serif" font-size="10" text-anchor="start">198</text></g></g></svg>