<svg xmlns="http://www.w3.org/2000/svg" xmlns:xlink="http://www.w3.org/1999/xlink" width="113pt" height="38pt" viewBox="0 0 113 38"><g id="graph0" class="graph" transform="scale(1 1) rotate(0) translate(4 34)"><title>G</title><polygon fill="#fff" stroke="transparent" points="-4 4 -4 -34 109 -34 109 4 -4 4"/><g id="node1" class="node"><title>node4600104584</title><polygon fill="none" stroke="#000" stroke-width=".5" points="105 -30 0 -30 0 0 105 0 105 -30"/><polygon fill="#fefecd" stroke="transparent" points="1.5 -18 1.5 -29 57.5 -29 57.5 -18 1.5 -18"/><polyline fill="none" stroke="#000" points="1.5 -18 57.5 -18 57.5 -29"/><text x="26.997" y="-20.8" fill="#444443" font-family="Helvetica,sans-Serif" font-size="9" text-anchor="start">0</text><polygon fill="#fefecd" stroke="transparent" points="57.5 -18 57.5 -29 104.5 -29 104.5 -18 57.5 -18"/><polyline fill="none" stroke="#000" points="57.5 -18 104.5 -18"/><text x="78.497" y="-20.8" fill="#444443" font-family="Helvetica,sans-Serif" font-size="9" text-anchor="start">1</text><polygon fill="#fefecd" stroke="transparent" points="1.5 -1 1.5 -18 57.5 -18 57.5 -1 1.5 -1"/><polyline fill="none" stroke="#000" points="57.5 -1 57.5 -18"/><text x="4.165" y="-6.2" fill="#444443" font-family="Helvetica,sans-Serif" font-size="11" text-anchor="start">&apos;Amadeus&apos;</text><polygon fill="#fefecd" stroke="transparent" points="57.5 -1 57.5 -18 104.5 -18 104.5 -1 57.5 -1"/><text x="59.341" y="-6.2" fill="#444443" font-family="Helvetica,sans-Serif" font-size="11" text-anchor="start">&apos;Witness&apos;</text></g></g></svg>