<svg xmlns="http://www.w3.org/2000/svg" xmlns:xlink="http://www.w3.org/1999/xlink" width="164pt" height="38pt" viewBox="0 0 164 38"><g id="graph0" class="graph" transform="scale(1 1) rotate(0) translate(4 34)"><title>G</title><polygon fill="#fff" stroke="transparent" points="-4 4 -4 -34 160 -34 160 4 -4 4"/><g id="node1" class="node"><title>node4354678472</title><polygon fill="none" stroke="#000" stroke-width=".5" points="156 -30 0 -30 0 0 156 0 156 -30"/><polygon fill="#fefecd" stroke="transparent" points="1 -18 1 -29 13 -29 13 -18 1 -18"/><polyline fill="none" stroke="#000" points="1 -18 13 -18 13 -29"/><text x="4.497" y="-20.8" fill="#444443" font-family="Helvetica,sans-Serif" font-size="9" text-anchor="start">0</text><polygon fill="#fefecd" stroke="transparent" points="13 -18 13 -29 31 -29 31 -18 13 -18"/><polyline fill="none" stroke="#000" points="13 -18 31 -18 31 -29"/><text x="19.497" y="-20.8" fill="#444443" font-family="Helvetica,sans-Serif" font-size="9" text-anchor="start">1</text><polygon fill="#fefecd" stroke="transparent" points="31 -18 31 -29 49 -29 49 -18 31 -18"/><polyline fill="none" stroke="#000" points="31 -18 49 -18 49 -29"/><text x="37.497" y="-20.8" fill="#444443" font-family="Helvetica,sans-Serif" font-size="9" text-anchor="start">2</text><polygon fill="#fefecd" stroke="transparent" points="49 -18 49 -29 67 -29 67 -18 49 -18"/><polyline fill="none" stroke="#000" points="49 -18 67 -18 67 -29"/><text x="55.497" y="-20.8" fill="#444443" font-family="Helvetica,sans-Serif" font-size="9" text-anchor="start">3</text><polygon fill="#fefecd" stroke="transparent" points="67 -18 67 -29 85 -29 85 -18 67 -18"/><polyline fill="none" stroke="#000" points="67 -18 85 -18 85 -29"/><text x="73.497" y="-20.8" fill="#444443" font-family="Helvetica,sans-Serif" font-size="9" text-anchor="start">4</text><polygon fill="#fefecd" stroke="transparent" points="85 -18 85 -29 103 -29 103 -18 85 -18"/><polyline fill="none" stroke="#000" points="85 -18 103 -18 103 -29"/><text x="91.497" y="-20.8" fill="#444443" font-family="Helvetica,sans-Serif" font-size="9" text-anchor="start">5</text><polygon fill="#fefecd" stroke="transparent" points="103 -18 103 -29 121 -29 121 -18 103 -18"/><polyline fill="none" stroke="#000" points="103 -18 121 -18 121 -29"/><text x="109.497" y="-20.8" fill="#444443" font-family="Helvetica,sans-Serif" font-size="9" text-anchor="start">6</text><polygon fill="#fefecd" stroke="transparent" points="121 -18 121 -29 139 -29 139 -18 121 -18"/><polyline fill="none" stroke="#000" points="121 -18 139 -18 139 -29"/><text x="127.497" y="-20.8" fill="#444443" font-family="Helvetica,sans-Serif" font-size="9" text-anchor="start">7</text><polygon fill="#fefecd" stroke="transparent" points="139 -18 139 -29 155 -29 155 -18 139 -18"/><polyline fill="none" stroke="#000" points="139 -18 155 -18"/><text x="144.497" y="-20.8" fill="#444443" font-family="Helvetica,sans-Serif" font-size="9" text-anchor="start">8</text><polygon fill="#fefecd" stroke="transparent" points="1 -1 1 -18 13 -18 13 -1 1 -1"/><polyline fill="none" stroke="#000" points="13 -1 13 -18"/><text x="3.941" y="-6.2" fill="#444443" font-family="Helvetica,sans-Serif" font-size="11" text-anchor="start">6</text><polygon fill="#fefecd" stroke="transparent" points="13 -1 13 -18 31 -18 31 -1 13 -1"/><polyline fill="none" stroke="#000" points="31 -1 31 -18"/><text x="15.882" y="-6.2" fill="#444443" font-family="Helvetica,sans-Serif" font-size="11" text-anchor="start">49</text><polygon fill="#fefecd" stroke="transparent" points="31 -1 31 -18 49 -18 49 -1 31 -1"/><polyline fill="none" stroke="#000" points="49 -1 49 -18"/><text x="33.882" y="-6.2" fill="#444443" font-family="Helvetica,sans-Serif" font-size="11" text-anchor="start">27</text><polygon fill="#fefecd" stroke="transparent" points="49 -1 49 -18 67 -18 67 -1 49 -1"/><polyline fill="none" stroke="#000" points="67 -1 67 -18"/><text x="51.882" y="-6.2" fill="#444443" font-family="Helvetica,sans-Serif" font-size="11" text-anchor="start">30</text><polygon fill="#fefecd" stroke="transparent" points="67 -1 67 -18 85 -18 85 -1 67 -1"/><polyline fill="none" stroke="#000" points="85 -1 85 -18"/><text x="69.882" y="-6.2" fill="#444443" font-family="Helvetica,sans-Serif" font-size="11" text-anchor="start">19</text><polygon fill="#fefecd" stroke="transparent" points="85 -1 85 -18 103 -18 103 -1 85 -1"/><polyline fill="none" stroke="#000" points="103 -1 103 -18"/><text x="87.882" y="-6.2" fill="#444443" font-family="Helvetica,sans-Serif" font-size="11" text-anchor="start">21</text><polygon fill="#fefecd" stroke="transparent" points="103 -1 103 -18 121 -18 121 -1 103 -1"/><polyline fill="none" stroke="#000" points="121 -1 121 -18"/><text x="105.882" y="-6.2" fill="#444443" font-family="Helvetica,sans-Serif" font-size="11" text-anchor="start">12</text><polygon fill="#fefecd" stroke="transparent" points="121 -1 121 -18 139 -18 139 -1 121 -1"/><polyline fill="none" stroke="#000" points="139 -1 139 -18"/><text x="123.882" y="-6.2" fill="#444443" font-family="Helvetica,sans-Serif" font-size="11" text-anchor="start">22</text><polygon fill="#fefecd" stroke="transparent" points="139 -1 139 -18 155 -18 155 -1 139 -1"/><text x="140.882" y="-6.2" fill="#444443" font-family="Helvetica,sans-Serif" font-size="11" text-anchor="start">21</text></g></g></svg>