<svg xmlns="http://www.w3.org/2000/svg" xmlns:xlink="http://www.w3.org/1999/xlink" width="79pt" height="100" viewBox="0 0 79 75"><g id="graph0" class="graph" transform="scale(1 1) rotate(0) translate(4 71)"><title>G</title><polygon fill="#fff" stroke="transparent" points="-4 4 -4 -71 75 -71 75 4 -4 4"/><g id="node1" class="node"><title>node4342684872</title><polygon fill="#cfe2d4" stroke="#444443" stroke-width=".5" points="13 -49 0 -49 0 -17 13 -17 13 -49"/><polygon fill="#cfe2d4" stroke="transparent" points="1.5 -33 1.5 -48 12.5 -48 12.5 -33 1.5 -33"/><polyline fill="none" stroke="#444443" points="1.5 -33 12.5 -33"/><text x="4.497" y="-37.8" fill="#444443" font-family="Helvetica,sans-Serif" font-size="9" text-anchor="start">0</text><polygon fill="#cfe2d4" stroke="transparent" points="1.5 -18 1.5 -33 12.5 -33 12.5 -18 1.5 -18"/><text x="4.497" y="-22.8" fill="#444443" font-family="Helvetica,sans-Serif" font-size="9" text-anchor="start">1</text></g><g id="node2" class="node"><title>node4374703048</title><polygon fill="none" stroke="#000" stroke-width=".5" points="71 -67 35 -67 35 -37 71 -37 71 -67"/><polygon fill="#fefecd" stroke="transparent" points="36 -55 36 -66 48 -66 48 -55 36 -55"/><polyline fill="none" stroke="#000" points="36 -55 48 -55 48 -66"/><text x="39.497" y="-57.8" fill="#444443" font-family="Helvetica,sans-Serif" font-size="9" text-anchor="start">0</text><polygon fill="#fefecd" stroke="transparent" points="48 -55 48 -66 60 -66 60 -55 48 -55"/><polyline fill="none" stroke="#000" points="48 -55 60 -55 60 -66"/><text x="51.497" y="-57.8" fill="#444443" font-family="Helvetica,sans-Serif" font-size="9" text-anchor="start">1</text><polygon fill="#fefecd" stroke="transparent" points="60 -55 60 -66 70 -66 70 -55 60 -55"/><polyline fill="none" stroke="#000" points="60 -55 70 -55"/><text x="62.497" y="-57.8" fill="#444443" font-family="Helvetica,sans-Serif" font-size="9" text-anchor="start">2</text><polygon fill="#fefecd" stroke="transparent" points="36 -38 36 -55 48 -55 48 -38 36 -38"/><polyline fill="none" stroke="#000" points="48 -38 48 -55"/><text x="38.941" y="-43.2" fill="#444443" font-family="Helvetica,sans-Serif" font-size="11" text-anchor="start">1</text><polygon fill="#fefecd" stroke="transparent" points="48 -38 48 -55 60 -55 60 -38 48 -38"/><polyline fill="none" stroke="#000" points="60 -38 60 -55"/><text x="50.941" y="-43.2" fill="#444443" font-family="Helvetica,sans-Serif" font-size="11" text-anchor="start">2</text><polygon fill="#fefecd" stroke="transparent" points="60 -38 60 -55 70 -55 70 -38 60 -38"/><text x="61.941" y="-43.2" fill="#444443" font-family="Helvetica,sans-Serif" font-size="11" text-anchor="start">3</text></g><g id="edge1" class="edge"><title>node4342684872:0-&gt;node4374703048:w</title><path fill="none" stroke="#444443" stroke-width=".5" d="M12.5,-41C22.0658,-41 23.5866,-49.1238 30.8897,-51.4086"/><polygon fill="#444443" stroke="#444443" stroke-width=".5" points="30.841 -52.816 35 -52 31.24 -50.044 30.841 -52.816"/></g><g id="node3" class="node"><title>node4374618248</title><polygon fill="none" stroke="#000" stroke-width=".5" points="71 -30 35 -30 35 0 71 0 71 -30"/><polygon fill="#fefecd" stroke="transparent" points="36 -18 36 -29 48 -29 48 -18 36 -18"/><polyline fill="none" stroke="#000" points="36 -18 48 -18 48 -29"/><text x="39.497" y="-20.8" fill="#444443" font-family="Helvetica,sans-Serif" font-size="9" text-anchor="start">0</text><polygon fill="#fefecd" stroke="transparent" points="48 -18 48 -29 60 -29 60 -18 48 -18"/><polyline fill="none" stroke="#000" points="48 -18 60 -18 60 -29"/><text x="51.497" y="-20.8" fill="#444443" font-family="Helvetica,sans-Serif" font-size="9" text-anchor="start">1</text><polygon fill="#fefecd" stroke="transparent" points="60 -18 60 -29 70 -29 70 -18 60 -18"/><polyline fill="none" stroke="#000" points="60 -18 70 -18"/><text x="62.497" y="-20.8" fill="#444443" font-family="Helvetica,sans-Serif" font-size="9" text-anchor="start">2</text><polygon fill="#fefecd" stroke="transparent" points="36 -1 36 -18 48 -18 48 -1 36 -1"/><polyline fill="none" stroke="#000" points="48 -1 48 -18"/><text x="38.941" y="-6.2" fill="#444443" font-family="Helvetica,sans-Serif" font-size="11" text-anchor="start">3</text><polygon fill="#fefecd" stroke="transparent" points="48 -1 48 -18 60 -18 60 -1 48 -1"/><polyline fill="none" stroke="#000" points="60 -1 60 -18"/><text x="50.941" y="-6.2" fill="#444443" font-family="Helvetica,sans-Serif" font-size="11" text-anchor="start">4</text><polygon fill="#fefecd" stroke="transparent" points="60 -1 60 -18 70 -18 70 -1 60 -1"/><text x="61.941" y="-6.2" fill="#444443" font-family="Helvetica,sans-Serif" font-size="11" text-anchor="start">5</text></g><g id="edge2" class="edge"><title>node4342684872:1-&gt;node4374618248:w</title><path fill="none" stroke="#444443" stroke-width=".5" d="M12.5,-25C21.9043,-25 23.68,-17.6147 30.9387,-15.5376"/><polygon fill="#444443" stroke="#444443" stroke-width=".5" points="31.218 -16.913 35 -15 30.851 -14.137 31.218 -16.913"/></g></g></svg>