<svg xmlns="http://www.w3.org/2000/svg" xmlns:xlink="http://www.w3.org/1999/xlink" width="203pt" height="371pt" viewBox="0 0 203 371"><g id="graph0" class="graph" transform="scale(1 1) rotate(0) translate(4 367)"><title>G</title><polygon fill="#fff" stroke="transparent" points="-4 4 -4 -367 199 -367 199 4 -4 4"/><g id="node1" class="node"><title>node4374500936</title><polygon fill="#cfe2d4" stroke="#444443" stroke-width=".5" points="13 -257 0 -257 0 -105 13 -105 13 -257"/><polygon fill="#cfe2d4" stroke="transparent" points="1.5 -241 1.5 -256 12.5 -256 12.5 -241 1.5 -241"/><polyline fill="none" stroke="#444443" points="1.5 -241 12.5 -241"/><text x="4.497" y="-245.8" fill="#444443" font-family="Helvetica,sans-Serif" font-size="9" text-anchor="start">0</text><polygon fill="#cfe2d4" stroke="transparent" points="1.5 -226 1.5 -241 12.5 -241 12.5 -226 1.5 -226"/><polyline fill="none" stroke="#444443" points="1.5 -226 12.5 -226"/><text x="4.497" y="-230.8" fill="#444443" font-family="Helvetica,sans-Serif" font-size="9" text-anchor="start">1</text><polygon fill="#cfe2d4" stroke="transparent" points="1.5 -211 1.5 -226 12.5 -226 12.5 -211 1.5 -211"/><polyline fill="none" stroke="#444443" points="1.5 -211 12.5 -211"/><text x="4.497" y="-215.8" fill="#444443" font-family="Helvetica,sans-Serif" font-size="9" text-anchor="start">2</text><polygon fill="#cfe2d4" stroke="transparent" points="1.5 -196 1.5 -211 12.5 -211 12.5 -196 1.5 -196"/><polyline fill="none" stroke="#444443" points="1.5 -196 12.5 -196"/><text x="4.497" y="-200.8" fill="#444443" font-family="Helvetica,sans-Serif" font-size="9" text-anchor="start">3</text><polygon fill="#cfe2d4" stroke="transparent" points="1.5 -181 1.5 -196 12.5 -196 12.5 -181 1.5 -181"/><polyline fill="none" stroke="#444443" points="1.5 -181 12.5 -181"/><text x="4.497" y="-185.8" fill="#444443" font-family="Helvetica,sans-Serif" font-size="9" text-anchor="start">4</text><polygon fill="#cfe2d4" stroke="transparent" points="1.5 -166 1.5 -181 12.5 -181 12.5 -166 1.5 -166"/><polyline fill="none" stroke="#444443" points="1.5 -166 12.5 -166"/><text x="4.497" y="-170.8" fill="#444443" font-family="Helvetica,sans-Serif" font-size="9" text-anchor="start">5</text><polygon fill="#cfe2d4" stroke="transparent" points="1.5 -151 1.5 -166 12.5 -166 12.5 -151 1.5 -151"/><polyline fill="none" stroke="#444443" points="1.5 -151 12.5 -151"/><text x="4.497" y="-155.8" fill="#444443" font-family="Helvetica,sans-Serif" font-size="9" text-anchor="start">6</text><polygon fill="#cfe2d4" stroke="transparent" points="1.5 -136 1.5 -151 12.5 -151 12.5 -136 1.5 -136"/><polyline fill="none" stroke="#444443" points="1.5 -136 12.5 -136"/><text x="4.497" y="-140.8" fill="#444443" font-family="Helvetica,sans-Serif" font-size="9" text-anchor="start">7</text><polygon fill="#cfe2d4" stroke="transparent" points="1.5 -121 1.5 -136 12.5 -136 12.5 -121 1.5 -121"/><polyline fill="none" stroke="#444443" points="1.5 -121 12.5 -121"/><text x="4.497" y="-125.8" fill="#444443" font-family="Helvetica,sans-Serif" font-size="9" text-anchor="start">8</text><polygon fill="#cfe2d4" stroke="transparent" points="1.5 -106 1.5 -121 12.5 -121 12.5 -106 1.5 -106"/><text x="4.497" y="-110.8" fill="#444443" font-family="Helvetica,sans-Serif" font-size="9" text-anchor="start">9</text></g><g id="node2" class="node"><title>node4374619272</title><polygon fill="none" stroke="#000" stroke-width=".5" points="183 -363 47 -363 47 -333 183 -333 183 -363"/><polygon fill="#fefecd" stroke="transparent" points="48 -351 48 -362 78 -362 78 -351 48 -351"/><polyline fill="none" stroke="#000" points="48 -351 78 -351 78 -362"/><text x="60.497" y="-353.8" fill="#444443" font-family="Helvetica,sans-Serif" font-size="9" text-anchor="start">0</text><polygon fill="#fefecd" stroke="transparent" points="78 -351 78 -362 172 -362 172 -351 78 -351"/><polyline fill="none" stroke="#000" points="78 -351 172 -351 172 -362"/><text x="122.497" y="-353.8" fill="#444443" font-family="Helvetica,sans-Serif" font-size="9" text-anchor="start">1</text><polygon fill="#fefecd" stroke="transparent" points="172 -351 172 -362 182 -362 182 -351 172 -351"/><polyline fill="none" stroke="#000" points="172 -351 182 -351"/><text x="174.497" y="-353.8" fill="#444443" font-family="Helvetica,sans-Serif" font-size="9" text-anchor="start">2</text><polygon fill="#fefecd" stroke="transparent" points="48 -334 48 -351 78 -351 78 -334 48 -334"/><polyline fill="none" stroke="#000" points="78 -334 78 -351"/><text x="50.765" y="-339.2" fill="#444443" font-family="Helvetica,sans-Serif" font-size="11" text-anchor="start">1984</text><polygon fill="#fefecd" stroke="transparent" points="78 -334 78 -351 172 -351 172 -334 78 -334"/><polyline fill="none" stroke="#000" points="172 -334 172 -351"/><text x="80.914" y="-339.2" fill="#444443" font-family="Helvetica,sans-Serif" font-size="11" text-anchor="start">&quot;A Soldier&apos;s Story&quot;</text><polygon fill="#fefecd" stroke="transparent" points="172 -334 172 -351 182 -351 182 -334 172 -334"/><text x="173.941" y="-339.2" fill="#444443" font-family="Helvetica,sans-Serif" font-size="11" text-anchor="start">0</text></g><g id="edge1" class="edge"><title>node4374500936:0-&gt;node4374619272:w</title><path fill="none" stroke="#444443" stroke-width=".5" d="M7.5,-256C7.5,-276.8586 22.6619,-339.4667 42.8898,-347.2112"/><polygon fill="#444443" stroke="#444443" stroke-width=".5" points="42.808 -348.621 47 -348 43.336 -345.871 42.808 -348.621"/></g><g id="node3" class="node"><title>node4374621384</title><polygon fill="none" stroke="#000" stroke-width=".5" points="187.5 -326 42.5 -326 42.5 -296 187.5 -296 187.5 -326"/><polygon fill="#fefecd" stroke="transparent" points="44 -314 44 -325 74 -325 74 -314 44 -314"/><polyline fill="none" stroke="#000" points="44 -314 74 -314 74 -325"/><text x="56.497" y="-316.8" fill="#444443" font-family="Helvetica,sans-Serif" font-size="9" text-anchor="start">0</text><polygon fill="#fefecd" stroke="transparent" points="74 -314 74 -325 177 -325 177 -314 74 -314"/><polyline fill="none" stroke="#000" points="74 -314 177 -314 177 -325"/><text x="122.997" y="-316.8" fill="#444443" font-family="Helvetica,sans-Serif" font-size="9" text-anchor="start">1</text><polygon fill="#fefecd" stroke="transparent" points="177 -314 177 -325 187 -325 187 -314 177 -314"/><polyline fill="none" stroke="#000" points="177 -314 187 -314"/><text x="179.497" y="-316.8" fill="#444443" font-family="Helvetica,sans-Serif" font-size="9" text-anchor="start">2</text><polygon fill="#fefecd" stroke="transparent" points="44 -297 44 -314 74 -314 74 -297 44 -297"/><polyline fill="none" stroke="#000" points="74 -297 74 -314"/><text x="46.765" y="-302.2" fill="#444443" font-family="Helvetica,sans-Serif" font-size="11" text-anchor="start">1984</text><polygon fill="#fefecd" stroke="transparent" points="74 -297 74 -314 177 -314 177 -297 74 -297"/><polyline fill="none" stroke="#000" points="177 -297 177 -314"/><text x="76.932" y="-302.2" fill="#444443" font-family="Helvetica,sans-Serif" font-size="11" text-anchor="start">&apos;Places in the Heart&apos;</text><polygon fill="#fefecd" stroke="transparent" points="177 -297 177 -314 187 -314 187 -297 177 -297"/><text x="178.941" y="-302.2" fill="#444443" font-family="Helvetica,sans-Serif" font-size="11" text-anchor="start">0</text></g><g id="edge2" class="edge"><title>node4374500936:1-&gt;node4374621384:w</title><path fill="none" stroke="#444443" stroke-width=".5" d="M12.5,-234C47.5731,-234 8.9674,-304.525 37.7087,-310.5857"/><polygon fill="#444443" stroke="#444443" stroke-width=".5" points="37.884 -312.009 42 -311 38.153 -309.222 37.884 -312.009"/></g><g id="node4" class="node"><title>node4374619208</title><polygon fill="none" stroke="#000" stroke-width=".5" points="182.5 -289 47.5 -289 47.5 -259 182.5 -259 182.5 -289"/><polygon fill="#fefecd" stroke="transparent" points="49 -277 49 -288 79 -288 79 -277 49 -277"/><polyline fill="none" stroke="#000" points="49 -277 79 -277 79 -288"/><text x="61.497" y="-279.8" fill="#444443" font-family="Helvetica,sans-Serif" font-size="9" text-anchor="start">0</text><polygon fill="#fefecd" stroke="transparent" points="79 -277 79 -288 172 -288 172 -277 79 -277"/><polyline fill="none" stroke="#000" points="79 -277 172 -277 172 -288"/><text x="122.997" y="-279.8" fill="#444443" font-family="Helvetica,sans-Serif" font-size="9" text-anchor="start">1</text><polygon fill="#fefecd" stroke="transparent" points="172 -277 172 -288 182 -288 182 -277 172 -277"/><polyline fill="none" stroke="#000" points="172 -277 182 -277"/><text x="174.497" y="-279.8" fill="#444443" font-family="Helvetica,sans-Serif" font-size="9" text-anchor="start">2</text><polygon fill="#fefecd" stroke="transparent" points="49 -260 49 -277 79 -277 79 -260 49 -260"/><polyline fill="none" stroke="#000" points="79 -260 79 -277"/><text x="51.765" y="-265.2" fill="#444443" font-family="Helvetica,sans-Serif" font-size="11" text-anchor="start">1984</text><polygon fill="#fefecd" stroke="transparent" points="79 -260 79 -277 172 -277 172 -260 79 -260"/><polyline fill="none" stroke="#000" points="172 -260 172 -277"/><text x="81.522" y="-265.2" fill="#444443" font-family="Helvetica,sans-Serif" font-size="11" text-anchor="start">&apos;The Killing Fields&apos;</text><polygon fill="#fefecd" stroke="transparent" points="172 -260 172 -277 182 -277 182 -260 172 -260"/><text x="173.941" y="-265.2" fill="#444443" font-family="Helvetica,sans-Serif" font-size="11" text-anchor="start">0</text></g><g id="edge3" class="edge"><title>node4374500936:2-&gt;node4374619208:w</title><path fill="none" stroke="#444443" stroke-width=".5" d="M12.5,-219C39.8902,-219 20.3676,-268.5559 42.9932,-273.5889"/><polygon fill="#444443" stroke="#444443" stroke-width=".5" points="42.878 -274.984 47 -274 43.164 -272.199 42.878 -274.984"/></g><g id="node5" class="node"><title>node4374621512</title><polygon fill="none" stroke="#000" stroke-width=".5" points="186.5 -252 43.5 -252 43.5 -222 186.5 -222 186.5 -252"/><polygon fill="#fefecd" stroke="transparent" points="45 -240 45 -251 75 -251 75 -240 45 -240"/><polyline fill="none" stroke="#000" points="45 -240 75 -240 75 -251"/><text x="57.497" y="-242.8" fill="#444443" font-family="Helvetica,sans-Serif" font-size="9" text-anchor="start">0</text><polygon fill="#fefecd" stroke="transparent" points="75 -240 75 -251 176 -251 176 -240 75 -240"/><polyline fill="none" stroke="#000" points="75 -240 176 -240 176 -251"/><text x="122.997" y="-242.8" fill="#444443" font-family="Helvetica,sans-Serif" font-size="9" text-anchor="start">1</text><polygon fill="#fefecd" stroke="transparent" points="176 -240 176 -251 186 -251 186 -240 176 -240"/><polyline fill="none" stroke="#000" points="176 -240 186 -240"/><text x="178.497" y="-242.8" fill="#444443" font-family="Helvetica,sans-Serif" font-size="9" text-anchor="start">2</text><polygon fill="#fefecd" stroke="transparent" points="45 -223 45 -240 75 -240 75 -223 45 -223"/><polyline fill="none" stroke="#000" points="75 -223 75 -240"/><text x="47.765" y="-228.2" fill="#444443" font-family="Helvetica,sans-Serif" font-size="11" text-anchor="start">1984</text><polygon fill="#fefecd" stroke="transparent" points="75 -223 75 -240 176 -240 176 -223 75 -223"/><polyline fill="none" stroke="#000" points="176 -223 176 -240"/><text x="77.531" y="-228.2" fill="#444443" font-family="Helvetica,sans-Serif" font-size="11" text-anchor="start">&apos;A Passage to India&apos;</text><polygon fill="#fefecd" stroke="transparent" points="176 -223 176 -240 186 -240 186 -223 176 -223"/><text x="177.941" y="-228.2" fill="#444443" font-family="Helvetica,sans-Serif" font-size="11" text-anchor="start">0</text></g><g id="edge4" class="edge"><title>node4374500936:3-&gt;node4374621512:w</title><path fill="none" stroke="#444443" stroke-width=".5" d="M12.5,-204C30.9113,-204 24.3244,-232.0452 38.8297,-236.4272"/><polygon fill="#444443" stroke="#444443" stroke-width=".5" points="38.847 -237.843 43 -237 39.228 -235.069 38.847 -237.843"/></g><g id="node6" class="node"><title>node4374619336</title><polygon fill="none" stroke="#000" stroke-width=".5" points="164 -215 66 -215 66 -185 164 -185 164 -215"/><polygon fill="#fefecd" stroke="transparent" points="67 -203 67 -214 97 -214 97 -203 67 -203"/><polyline fill="none" stroke="#000" points="67 -203 97 -203 97 -214"/><text x="79.497" y="-205.8" fill="#444443" font-family="Helvetica,sans-Serif" font-size="9" text-anchor="start">0</text><polygon fill="#fefecd" stroke="transparent" points="97 -203 97 -214 153 -214 153 -203 97 -203"/><polyline fill="none" stroke="#000" points="97 -203 153 -203 153 -214"/><text x="122.497" y="-205.8" fill="#444443" font-family="Helvetica,sans-Serif" font-size="9" text-anchor="start">1</text><polygon fill="#fefecd" stroke="transparent" points="153 -203 153 -214 163 -214 163 -203 153 -203"/><polyline fill="none" stroke="#000" points="153 -203 163 -203"/><text x="155.497" y="-205.8" fill="#444443" font-family="Helvetica,sans-Serif" font-size="9" text-anchor="start">2</text><polygon fill="#fefecd" stroke="transparent" points="67 -186 67 -203 97 -203 97 -186 67 -186"/><polyline fill="none" stroke="#000" points="97 -186 97 -203"/><text x="69.765" y="-191.2" fill="#444443" font-family="Helvetica,sans-Serif" font-size="11" text-anchor="start">1984</text><polygon fill="#fefecd" stroke="transparent" points="97 -186 97 -203 153 -203 153 -186 97 -186"/><polyline fill="none" stroke="#000" points="153 -186 153 -203"/><text x="99.665" y="-191.2" fill="#444443" font-family="Helvetica,sans-Serif" font-size="11" text-anchor="start">&apos;Amadeus&apos;</text><polygon fill="#fefecd" stroke="transparent" points="153 -186 153 -203 163 -203 163 -186 153 -186"/><text x="154.941" y="-191.2" fill="#444443" font-family="Helvetica,sans-Serif" font-size="11" text-anchor="start">1</text></g><g id="edge5" class="edge"><title>node4374500936:4-&gt;node4374619336:w</title><path fill="none" stroke="#444443" stroke-width=".5" d="M12.5,-189C35.3528,-189 41.0784,-198.7487 61.9242,-199.8911"/><polygon fill="#444443" stroke="#444443" stroke-width=".5" points="61.964 -201.293 66 -200 62.039 -198.494 61.964 -201.293"/></g><g id="node7" class="node"><title>node4374621576</title><polygon fill="none" stroke="#000" stroke-width=".5" points="176.5 -178 53.5 -178 53.5 -148 176.5 -148 176.5 -178"/><polygon fill="#fefecd" stroke="transparent" points="55 -166 55 -177 85 -177 85 -166 55 -166"/><polyline fill="none" stroke="#000" points="55 -166 85 -166 85 -177"/><text x="67.497" y="-168.8" fill="#444443" font-family="Helvetica,sans-Serif" font-size="9" text-anchor="start">0</text><polygon fill="#fefecd" stroke="transparent" points="85 -166 85 -177 166 -177 166 -166 85 -166"/><polyline fill="none" stroke="#000" points="85 -166 166 -166 166 -177"/><text x="122.997" y="-168.8" fill="#444443" font-family="Helvetica,sans-Serif" font-size="9" text-anchor="start">1</text><polygon fill="#fefecd" stroke="transparent" points="166 -166 166 -177 176 -177 176 -166 166 -166"/><polyline fill="none" stroke="#000" points="166 -166 176 -166"/><text x="168.497" y="-168.8" fill="#444443" font-family="Helvetica,sans-Serif" font-size="9" text-anchor="start">2</text><polygon fill="#fefecd" stroke="transparent" points="55 -149 55 -166 85 -166 85 -149 55 -149"/><polyline fill="none" stroke="#000" points="85 -149 85 -166"/><text x="57.765" y="-154.2" fill="#444443" font-family="Helvetica,sans-Serif" font-size="11" text-anchor="start">1985</text><polygon fill="#fefecd" stroke="transparent" points="85 -149 85 -166 166 -166 166 -149 85 -149"/><polyline fill="none" stroke="#000" points="166 -149 166 -166"/><text x="87.843" y="-154.2" fill="#444443" font-family="Helvetica,sans-Serif" font-size="11" text-anchor="start">&quot;Prizzi&apos;s Honor&quot;</text><polygon fill="#fefecd" stroke="transparent" points="166 -149 166 -166 176 -166 176 -149 166 -149"/><text x="167.941" y="-154.2" fill="#444443" font-family="Helvetica,sans-Serif" font-size="11" text-anchor="start">0</text></g><g id="edge6" class="edge"><title>node4374500936:5-&gt;node4374621576:w</title><path fill="none" stroke="#444443" stroke-width=".5" d="M12.5,-173C29.5921,-173 33.8329,-164.5015 48.917,-163.1736"/><polygon fill="#444443" stroke="#444443" stroke-width=".5" points="49.063 -164.569 53 -163 48.944 -161.771 49.063 -164.569"/></g><g id="node8" class="node"><title>node4374621448</title><polygon fill="none" stroke="#000" stroke-width=".5" points="195 -141 35 -141 35 -111 195 -111 195 -141"/><polygon fill="#fefecd" stroke="transparent" points="36 -129 36 -140 66 -140 66 -129 36 -129"/><polyline fill="none" stroke="#000" points="36 -129 66 -129 66 -140"/><text x="48.497" y="-131.8" fill="#444443" font-family="Helvetica,sans-Serif" font-size="9" text-anchor="start">0</text><polygon fill="#fefecd" stroke="transparent" points="66 -129 66 -140 184 -140 184 -129 66 -129"/><polyline fill="none" stroke="#000" points="66 -129 184 -129 184 -140"/><text x="122.497" y="-131.8" fill="#444443" font-family="Helvetica,sans-Serif" font-size="9" text-anchor="start">1</text><polygon fill="#fefecd" stroke="transparent" points="184 -129 184 -140 194 -140 194 -129 184 -129"/><polyline fill="none" stroke="#000" points="184 -129 194 -129"/><text x="186.497" y="-131.8" fill="#444443" font-family="Helvetica,sans-Serif" font-size="9" text-anchor="start">2</text><polygon fill="#fefecd" stroke="transparent" points="36 -112 36 -129 66 -129 66 -112 36 -112"/><polyline fill="none" stroke="#000" points="66 -112 66 -129"/><text x="38.765" y="-117.2" fill="#444443" font-family="Helvetica,sans-Serif" font-size="11" text-anchor="start">1985</text><polygon fill="#fefecd" stroke="transparent" points="66 -112 66 -129 184 -129 184 -112 66 -112"/><polyline fill="none" stroke="#000" points="184 -112 184 -129"/><text x="68.791" y="-117.2" fill="#444443" font-family="Helvetica,sans-Serif" font-size="11" text-anchor="start">&apos;Kiss of the Spider W...&apos;</text><polygon fill="#fefecd" stroke="transparent" points="184 -112 184 -129 194 -129 194 -112 184 -112"/><text x="185.941" y="-117.2" fill="#444443" font-family="Helvetica,sans-Serif" font-size="11" text-anchor="start">0</text></g><g id="edge7" class="edge"><title>node4374500936:6-&gt;node4374621448:w</title><path fill="none" stroke="#444443" stroke-width=".5" d="M12.5,-158C28.256,-158 19.6544,-131.7188 30.8433,-126.791"/><polygon fill="#444443" stroke="#444443" stroke-width=".5" points="31.332 -128.123 35 -126 30.809 -125.373 31.332 -128.123"/></g><g id="node9" class="node"><title>node4374621640</title><polygon fill="none" stroke="#000" stroke-width=".5" points="160.5 -104 69.5 -104 69.5 -74 160.5 -74 160.5 -104"/><polygon fill="#fefecd" stroke="transparent" points="71 -92 71 -103 101 -103 101 -92 71 -92"/><polyline fill="none" stroke="#000" points="71 -92 101 -92 101 -103"/><text x="83.497" y="-94.8" fill="#444443" font-family="Helvetica,sans-Serif" font-size="9" text-anchor="start">0</text><polygon fill="#fefecd" stroke="transparent" points="101 -92 101 -103 150 -103 150 -92 101 -92"/><polyline fill="none" stroke="#000" points="101 -92 150 -92 150 -103"/><text x="122.997" y="-94.8" fill="#444443" font-family="Helvetica,sans-Serif" font-size="9" text-anchor="start">1</text><polygon fill="#fefecd" stroke="transparent" points="150 -92 150 -103 160 -103 160 -92 150 -92"/><polyline fill="none" stroke="#000" points="150 -92 160 -92"/><text x="152.497" y="-94.8" fill="#444443" font-family="Helvetica,sans-Serif" font-size="9" text-anchor="start">2</text><polygon fill="#fefecd" stroke="transparent" points="71 -75 71 -92 101 -92 101 -75 71 -75"/><polyline fill="none" stroke="#000" points="101 -75 101 -92"/><text x="73.765" y="-80.2" fill="#444443" font-family="Helvetica,sans-Serif" font-size="11" text-anchor="start">1985</text><polygon fill="#fefecd" stroke="transparent" points="101 -75 101 -92 150 -92 150 -75 101 -75"/><polyline fill="none" stroke="#000" points="150 -75 150 -92"/><text x="103.841" y="-80.2" fill="#444443" font-family="Helvetica,sans-Serif" font-size="11" text-anchor="start">&apos;Witness&apos;</text><polygon fill="#fefecd" stroke="transparent" points="150 -75 150 -92 160 -92 160 -75 150 -75"/><text x="151.941" y="-80.2" fill="#444443" font-family="Helvetica,sans-Serif" font-size="11" text-anchor="start">0</text></g><g id="edge8" class="edge"><title>node4374500936:7-&gt;node4374621640:w</title><path fill="none" stroke="#444443" stroke-width=".5" d="M12.5,-143C30.9926,-143 21.5264,-120.6664 35,-108 46.5285,-97.1622 50.9257,-90.2626 64.8165,-89.1567"/><polygon fill="#444443" stroke="#444443" stroke-width=".5" points="65.055 -90.549 69 -89 64.95 -87.751 65.055 -90.549"/></g><g id="node10" class="node"><title>node4374878344</title><polygon fill="none" stroke="#000" stroke-width=".5" points="182.5 -67 47.5 -67 47.5 -37 182.5 -37 182.5 -67"/><polygon fill="#fefecd" stroke="transparent" points="49 -55 49 -66 79 -66 79 -55 49 -55"/><polyline fill="none" stroke="#000" points="49 -55 79 -55 79 -66"/><text x="61.497" y="-57.8" fill="#444443" font-family="Helvetica,sans-Serif" font-size="9" text-anchor="start">0</text><polygon fill="#fefecd" stroke="transparent" points="79 -55 79 -66 172 -66 172 -55 79 -55"/><polyline fill="none" stroke="#000" points="79 -55 172 -55 172 -66"/><text x="122.997" y="-57.8" fill="#444443" font-family="Helvetica,sans-Serif" font-size="9" text-anchor="start">1</text><polygon fill="#fefecd" stroke="transparent" points="172 -55 172 -66 182 -66 182 -55 172 -55"/><polyline fill="none" stroke="#000" points="172 -55 182 -55"/><text x="174.497" y="-57.8" fill="#444443" font-family="Helvetica,sans-Serif" font-size="9" text-anchor="start">2</text><polygon fill="#fefecd" stroke="transparent" points="49 -38 49 -55 79 -55 79 -38 49 -38"/><polyline fill="none" stroke="#000" points="79 -38 79 -55"/><text x="51.765" y="-43.2" fill="#444443" font-family="Helvetica,sans-Serif" font-size="11" text-anchor="start">1985</text><polygon fill="#fefecd" stroke="transparent" points="79 -38 79 -55 172 -55 172 -38 79 -38"/><polyline fill="none" stroke="#000" points="172 -38 172 -55"/><text x="81.825" y="-43.2" fill="#444443" font-family="Helvetica,sans-Serif" font-size="11" text-anchor="start">&apos;The Color Purple&apos;</text><polygon fill="#fefecd" stroke="transparent" points="172 -38 172 -55 182 -55 182 -38 172 -38"/><text x="173.941" y="-43.2" fill="#444443" font-family="Helvetica,sans-Serif" font-size="11" text-anchor="start">0</text></g><g id="edge9" class="edge"><title>node4374500936:8-&gt;node4374878344:w</title><path fill="none" stroke="#444443" stroke-width=".5" d="M12.5,-128C48.1461,-128 12.8885,-57.8215 42.9953,-52.3388"/><polygon fill="#444443" stroke="#444443" stroke-width=".5" points="43.132 -53.732 47 -52 42.896 -50.942 43.132 -53.732"/></g><g id="node11" class="node"><title>node4374878920</title><polygon fill="none" stroke="#000" stroke-width=".5" points="171 -30 59 -30 59 0 171 0 171 -30"/><polygon fill="#fefecd" stroke="transparent" points="60 -18 60 -29 90 -29 90 -18 60 -18"/><polyline fill="none" stroke="#000" points="60 -18 90 -18 90 -29"/><text x="72.497" y="-20.8" fill="#444443" font-family="Helvetica,sans-Serif" font-size="9" text-anchor="start">0</text><polygon fill="#fefecd" stroke="transparent" points="90 -18 90 -29 160 -29 160 -18 90 -18"/><polyline fill="none" stroke="#000" points="90 -18 160 -18 160 -29"/><text x="122.497" y="-20.8" fill="#444443" font-family="Helvetica,sans-Serif" font-size="9" text-anchor="start">1</text><polygon fill="#fefecd" stroke="transparent" points="160 -18 160 -29 170 -29 170 -18 160 -18"/><polyline fill="none" stroke="#000" points="160 -18 170 -18"/><text x="162.497" y="-20.8" fill="#444443" font-family="Helvetica,sans-Serif" font-size="9" text-anchor="start">2</text><polygon fill="#fefecd" stroke="transparent" points="60 -1 60 -18 90 -18 90 -1 60 -1"/><polyline fill="none" stroke="#000" points="90 -1 90 -18"/><text x="62.765" y="-6.2" fill="#444443" font-family="Helvetica,sans-Serif" font-size="11" text-anchor="start">1985</text><polygon fill="#fefecd" stroke="transparent" points="90 -1 90 -18 160 -18 160 -1 90 -1"/><polyline fill="none" stroke="#000" points="160 -1 160 -18"/><text x="92.634" y="-6.2" fill="#444443" font-family="Helvetica,sans-Serif" font-size="11" text-anchor="start">&apos;Out of Africa&apos;</text><polygon fill="#fefecd" stroke="transparent" points="160 -1 160 -18 170 -18 170 -1 160 -1"/><text x="161.941" y="-6.2" fill="#444443" font-family="Helvetica,sans-Serif" font-size="11" text-anchor="start">1</text></g><g id="edge10" class="edge"><title>node4374500936:9-&gt;node4374878920:w</title><path fill="none" stroke="#444443" stroke-width=".5" d="M7.5,-106C7.5,-60.9802 12.2186,-17.7849 54.7635,-15.1292"/><polygon fill="#444443" stroke="#444443" stroke-width=".5" points="55.045 -16.521 59 -15 54.959 -13.723 55.045 -16.521"/></g></g></svg>