<svg xmlns="http://www.w3.org/2000/svg" xmlns:xlink="http://www.w3.org/1999/xlink" width="79pt" height="112pt" viewBox="0 0 79 112"><g id="graph0" class="graph" transform="scale(1 1) rotate(0) translate(4 108)"><title>G</title><polygon fill="#fff" stroke="transparent" points="-4 4 -4 -108 75 -108 75 4 -4 4"/><g id="node1" class="node"><title>node4374880072</title><polygon fill="#cfe2d4" stroke="#444443" stroke-width=".5" points="13 -76.5 0 -76.5 0 -29.5 13 -29.5 13 -76.5"/><polygon fill="#cfe2d4" stroke="transparent" points="1.5 -60 1.5 -75 12.5 -75 12.5 -60 1.5 -60"/><polyline fill="none" stroke="#444443" points="1.5 -60 12.5 -60"/><text x="4.497" y="-64.8" fill="#444443" font-family="Helvetica,sans-Serif" font-size="9" text-anchor="start">0</text><polygon fill="#cfe2d4" stroke="transparent" points="1.5 -45 1.5 -60 12.5 -60 12.5 -45 1.5 -45"/><polyline fill="none" stroke="#444443" points="1.5 -45 12.5 -45"/><text x="4.497" y="-49.8" fill="#444443" font-family="Helvetica,sans-Serif" font-size="9" text-anchor="start">1</text><polygon fill="#cfe2d4" stroke="transparent" points="1.5 -30 1.5 -45 12.5 -45 12.5 -30 1.5 -30"/><text x="4.497" y="-34.8" fill="#444443" font-family="Helvetica,sans-Serif" font-size="9" text-anchor="start">2</text></g><g id="node2" class="node"><title>node4374049416</title><polygon fill="none" stroke="#000" stroke-width=".5" points="71 -104 35 -104 35 -74 71 -74 71 -104"/><polygon fill="#fefecd" stroke="transparent" points="36 -92 36 -103 48 -103 48 -92 36 -92"/><polyline fill="none" stroke="#000" points="36 -92 48 -92 48 -103"/><text x="39.497" y="-94.8" fill="#444443" font-family="Helvetica,sans-Serif" font-size="9" text-anchor="start">0</text><polygon fill="#fefecd" stroke="transparent" points="48 -92 48 -103 60 -103 60 -92 48 -92"/><polyline fill="none" stroke="#000" points="48 -92 60 -92 60 -103"/><text x="51.497" y="-94.8" fill="#444443" font-family="Helvetica,sans-Serif" font-size="9" text-anchor="start">1</text><polygon fill="#fefecd" stroke="transparent" points="60 -92 60 -103 70 -103 70 -92 60 -92"/><polyline fill="none" stroke="#000" points="60 -92 70 -92"/><text x="62.497" y="-94.8" fill="#444443" font-family="Helvetica,sans-Serif" font-size="9" text-anchor="start">2</text><polygon fill="#fefecd" stroke="transparent" points="36 -75 36 -92 48 -92 48 -75 36 -75"/><polyline fill="none" stroke="#000" points="48 -75 48 -92"/><text x="38.941" y="-80.2" fill="#444443" font-family="Helvetica,sans-Serif" font-size="11" text-anchor="start">0</text><polygon fill="#fefecd" stroke="transparent" points="48 -75 48 -92 60 -92 60 -75 48 -75"/><polyline fill="none" stroke="#000" points="60 -75 60 -92"/><text x="50.941" y="-80.2" fill="#444443" font-family="Helvetica,sans-Serif" font-size="11" text-anchor="start">0</text><polygon fill="#fefecd" stroke="transparent" points="60 -75 60 -92 70 -92 70 -75 60 -75"/><text x="61.941" y="-80.2" fill="#444443" font-family="Helvetica,sans-Serif" font-size="11" text-anchor="start">0</text></g><g id="edge1" class="edge"><title>node4374880072:0-&gt;node4374049416:w</title><path fill="none" stroke="#444443" stroke-width=".5" d="M12.5,-68C24.469,-68 22.2459,-84.0781 30.6669,-88.0977"/><polygon fill="#444443" stroke="#444443" stroke-width=".5" points="30.799 -89.555 35 -89 31.369 -86.814 30.799 -89.555"/></g><g id="node3" class="node"><title>node4374052040</title><polygon fill="none" stroke="#000" stroke-width=".5" points="71 -67 35 -67 35 -37 71 -37 71 -67"/><polygon fill="#fefecd" stroke="transparent" points="36 -55 36 -66 48 -66 48 -55 36 -55"/><polyline fill="none" stroke="#000" points="36 -55 48 -55 48 -66"/><text x="39.497" y="-57.8" fill="#444443" font-family="Helvetica,sans-Serif" font-size="9" text-anchor="start">0</text><polygon fill="#fefecd" stroke="transparent" points="48 -55 48 -66 60 -66 60 -55 48 -55"/><polyline fill="none" stroke="#000" points="48 -55 60 -55 60 -66"/><text x="51.497" y="-57.8" fill="#444443" font-family="Helvetica,sans-Serif" font-size="9" text-anchor="start">1</text><polygon fill="#fefecd" stroke="transparent" points="60 -55 60 -66 70 -66 70 -55 60 -55"/><polyline fill="none" stroke="#000" points="60 -55 70 -55"/><text x="62.497" y="-57.8" fill="#444443" font-family="Helvetica,sans-Serif" font-size="9" text-anchor="start">2</text><polygon fill="#fefecd" stroke="transparent" points="36 -38 36 -55 48 -55 48 -38 36 -38"/><polyline fill="none" stroke="#000" points="48 -38 48 -55"/><text x="38.941" y="-43.2" fill="#444443" font-family="Helvetica,sans-Serif" font-size="11" text-anchor="start">0</text><polygon fill="#fefecd" stroke="transparent" points="48 -38 48 -55 60 -55 60 -38 48 -38"/><polyline fill="none" stroke="#000" points="60 -38 60 -55"/><text x="50.941" y="-43.2" fill="#444443" font-family="Helvetica,sans-Serif" font-size="11" text-anchor="start">0</text><polygon fill="#fefecd" stroke="transparent" points="60 -38 60 -55 70 -55 70 -38 60 -38"/><text x="61.941" y="-43.2" fill="#444443" font-family="Helvetica,sans-Serif" font-size="11" text-anchor="start">0</text></g><g id="edge2" class="edge"><title>node4374880072:1-&gt;node4374052040:w</title><path fill="none" stroke="#444443" stroke-width=".5" d="M12.5,-52C20.9375,-52 24.0356,-52 30.8046,-52"/><polygon fill="#444443" stroke="#444443" stroke-width=".5" points="31 -53.4 35 -52 31 -50.6 31 -53.4"/></g><g id="node4" class="node"><title>node4374701704</title><polygon fill="none" stroke="#000" stroke-width=".5" points="71 -30 35 -30 35 0 71 0 71 -30"/><polygon fill="#fefecd" stroke="transparent" points="36 -18 36 -29 48 -29 48 -18 36 -18"/><polyline fill="none" stroke="#000" points="36 -18 48 -18 48 -29"/><text x="39.497" y="-20.8" fill="#444443" font-family="Helvetica,sans-Serif" font-size="9" text-anchor="start">0</text><polygon fill="#fefecd" stroke="transparent" points="48 -18 48 -29 60 -29 60 -18 48 -18"/><polyline fill="none" stroke="#000" points="48 -18 60 -18 60 -29"/><text x="51.497" y="-20.8" fill="#444443" font-family="Helvetica,sans-Serif" font-size="9" text-anchor="start">1</text><polygon fill="#fefecd" stroke="transparent" points="60 -18 60 -29 70 -29 70 -18 60 -18"/><polyline fill="none" stroke="#000" points="60 -18 70 -18"/><text x="62.497" y="-20.8" fill="#444443" font-family="Helvetica,sans-Serif" font-size="9" text-anchor="start">2</text><polygon fill="#fefecd" stroke="transparent" points="36 -1 36 -18 48 -18 48 -1 36 -1"/><polyline fill="none" stroke="#000" points="48 -1 48 -18"/><text x="38.941" y="-6.2" fill="#444443" font-family="Helvetica,sans-Serif" font-size="11" text-anchor="start">0</text><polygon fill="#fefecd" stroke="transparent" points="48 -1 48 -18 60 -18 60 -1 48 -1"/><polyline fill="none" stroke="#000" points="60 -1 60 -18"/><text x="50.941" y="-6.2" fill="#444443" font-family="Helvetica,sans-Serif" font-size="11" text-anchor="start">0</text><polygon fill="#fefecd" stroke="transparent" points="60 -1 60 -18 70 -18 70 -1 60 -1"/><text x="61.941" y="-6.2" fill="#444443" font-family="Helvetica,sans-Serif" font-size="11" text-anchor="start">0</text></g><g id="edge3" class="edge"><title>node4374880072:2-&gt;node4374701704:w</title><path fill="none" stroke="#444443" stroke-width=".5" d="M12.5,-37C24.9562,-37 21.9783,-19.5493 31.0583,-15.732"/><polygon fill="#444443" stroke="#444443" stroke-width=".5" points="31.323 -17.107 35 -15 30.812 -14.354 31.323 -17.107"/></g></g></svg>