<svg xmlns="http://www.w3.org/2000/svg" xmlns:xlink="http://www.w3.org/1999/xlink" width="79pt" height="55pt" viewBox="0 0 79 55"><g id="graph0" class="graph" transform="scale(1 1) rotate(0) translate(4 51)"><title>G</title><polygon fill="#fff" stroke="transparent" points="-4 4 -4 -51 75 -51 75 4 -4 4"/><g id="node1" class="node"><title>node4375018696</title><polygon fill="#cfe2d4" stroke="#444443" stroke-width=".5" points="13 -47 0 -47 0 0 13 0 13 -47"/><polygon fill="#cfe2d4" stroke="transparent" points="1.5 -30.5 1.5 -45.5 12.5 -45.5 12.5 -30.5 1.5 -30.5"/><polyline fill="none" stroke="#444443" points="1.5 -30.5 12.5 -30.5"/><text x="4.497" y="-35.3" fill="#444443" font-family="Helvetica,sans-Serif" font-size="9" text-anchor="start">0</text><polygon fill="#cfe2d4" stroke="transparent" points="1.5 -15.5 1.5 -30.5 12.5 -30.5 12.5 -15.5 1.5 -15.5"/><polyline fill="none" stroke="#444443" points="1.5 -15.5 12.5 -15.5"/><text x="4.497" y="-20.3" fill="#444443" font-family="Helvetica,sans-Serif" font-size="9" text-anchor="start">1</text><polygon fill="#cfe2d4" stroke="transparent" points="1.5 -.5 1.5 -15.5 12.5 -15.5 12.5 -.5 1.5 -.5"/><text x="4.497" y="-5.3" fill="#444443" font-family="Helvetica,sans-Serif" font-size="9" text-anchor="start">2</text></g><g id="node2" class="node"><title>node4373336968</title><polygon fill="none" stroke="#000" stroke-width=".5" points="71 -37.5 35 -37.5 35 -7.5 71 -7.5 71 -37.5"/><polygon fill="#fefecd" stroke="transparent" points="36 -25.5 36 -36.5 48 -36.5 48 -25.5 36 -25.5"/><polyline fill="none" stroke="#000" points="36 -25.5 48 -25.5 48 -36.5"/><text x="39.497" y="-28.3" fill="#444443" font-family="Helvetica,sans-Serif" font-size="9" text-anchor="start">0</text><polygon fill="#fefecd" stroke="transparent" points="48 -25.5 48 -36.5 60 -36.5 60 -25.5 48 -25.5"/><polyline fill="none" stroke="#000" points="48 -25.5 60 -25.5 60 -36.5"/><text x="51.497" y="-28.3" fill="#444443" font-family="Helvetica,sans-Serif" font-size="9" text-anchor="start">1</text><polygon fill="#fefecd" stroke="transparent" points="60 -25.5 60 -36.5 70 -36.5 70 -25.5 60 -25.5"/><polyline fill="none" stroke="#000" points="60 -25.5 70 -25.5"/><text x="62.497" y="-28.3" fill="#444443" font-family="Helvetica,sans-Serif" font-size="9" text-anchor="start">2</text><polygon fill="#fefecd" stroke="transparent" points="36 -8.5 36 -25.5 48 -25.5 48 -8.5 36 -8.5"/><polyline fill="none" stroke="#000" points="48 -8.5 48 -25.5"/><text x="38.941" y="-13.7" fill="#444443" font-family="Helvetica,sans-Serif" font-size="11" text-anchor="start">0</text><polygon fill="#fefecd" stroke="transparent" points="48 -8.5 48 -25.5 60 -25.5 60 -8.5 48 -8.5"/><polyline fill="none" stroke="#000" points="60 -8.5 60 -25.5"/><text x="50.941" y="-13.7" fill="#444443" font-family="Helvetica,sans-Serif" font-size="11" text-anchor="start">0</text><polygon fill="#fefecd" stroke="transparent" points="60 -8.5 60 -25.5 70 -25.5 70 -8.5 60 -8.5"/><text x="61.941" y="-13.7" fill="#444443" font-family="Helvetica,sans-Serif" font-size="11" text-anchor="start">0</text></g><g id="edge1" class="edge"><title>node4375018696:0-&gt;node4373336968:w</title><path fill="none" stroke="#444443" stroke-width=".5" d="M12.5,-38.5C23.2368,-38.5 23.0161,-26.25 31.0135,-23.1875"/><polygon fill="#444443" stroke="#444443" stroke-width=".5" points="31.296 -24.559 35 -22.5 30.82 -21.8 31.296 -24.559"/></g><g id="edge2" class="edge"><title>node4375018696:1-&gt;node4373336968:w</title><path fill="none" stroke="#444443" stroke-width=".5" d="M12.5,-22.5C20.9375,-22.5 24.0356,-22.5 30.8046,-22.5"/><polygon fill="#444443" stroke="#444443" stroke-width=".5" points="31 -23.9 35 -22.5 31 -21.1 31 -23.9"/></g><g id="edge3" class="edge"><title>node4375018696:2-&gt;node4373336968:w</title><path fill="none" stroke="#444443" stroke-width=".5" d="M12.5,-7.5C22.8284,-7.5 23.1457,-18.5779 30.6585,-21.6935"/><polygon fill="#444443" stroke="#444443" stroke-width=".5" points="30.812 -23.146 35 -22.5 31.323 -20.393 30.812 -23.146"/></g></g></svg>