<svg xmlns="http://www.w3.org/2000/svg" xmlns:xlink="http://www.w3.org/1999/xlink" width="155pt" height="100" viewBox="0 0 155 75"><g id="graph0" class="graph" transform="scale(1 1) rotate(0) translate(4 71)"><title>G</title><polygon fill="#fff" stroke="transparent" points="-4 4 -4 -71 151 -71 151 4 -4 4"/><g id="node1" class="node"><title>node4375035400</title><polygon fill="#cfe2d4" stroke="#444443" stroke-width=".5" points="13 -49 0 -49 0 -17 13 -17 13 -49"/><polygon fill="#cfe2d4" stroke="transparent" points="1.5 -33 1.5 -48 12.5 -48 12.5 -33 1.5 -33"/><polyline fill="none" stroke="#444443" points="1.5 -33 12.5 -33"/><text x="4.497" y="-37.8" fill="#444443" font-family="Helvetica,sans-Serif" font-size="9" text-anchor="start">0</text><polygon fill="#cfe2d4" stroke="transparent" points="1.5 -18 1.5 -33 12.5 -33 12.5 -18 1.5 -18"/><text x="4.497" y="-22.8" fill="#444443" font-family="Helvetica,sans-Serif" font-size="9" text-anchor="start">1</text></g><g id="node2" class="node"><title>node4374620360</title><polygon fill="none" stroke="#000" stroke-width=".5" points="140 -67 42 -67 42 -37 140 -37 140 -67"/><polygon fill="#fefecd" stroke="transparent" points="43 -55 43 -66 73 -66 73 -55 43 -55"/><polyline fill="none" stroke="#000" points="43 -55 73 -55 73 -66"/><text x="55.497" y="-57.8" fill="#444443" font-family="Helvetica,sans-Serif" font-size="9" text-anchor="start">0</text><polygon fill="#fefecd" stroke="transparent" points="73 -55 73 -66 129 -66 129 -55 73 -55"/><polyline fill="none" stroke="#000" points="73 -55 129 -55 129 -66"/><text x="98.497" y="-57.8" fill="#444443" font-family="Helvetica,sans-Serif" font-size="9" text-anchor="start">1</text><polygon fill="#fefecd" stroke="transparent" points="129 -55 129 -66 139 -66 139 -55 129 -55"/><polyline fill="none" stroke="#000" points="129 -55 139 -55"/><text x="131.497" y="-57.8" fill="#444443" font-family="Helvetica,sans-Serif" font-size="9" text-anchor="start">2</text><polygon fill="#fefecd" stroke="transparent" points="43 -38 43 -55 73 -55 73 -38 43 -38"/><polyline fill="none" stroke="#000" points="73 -38 73 -55"/><text x="45.765" y="-43.2" fill="#444443" font-family="Helvetica,sans-Serif" font-size="11" text-anchor="start">1984</text><polygon fill="#fefecd" stroke="transparent" points="73 -38 73 -55 129 -55 129 -38 73 -38"/><polyline fill="none" stroke="#000" points="129 -38 129 -55"/><text x="75.665" y="-43.2" fill="#444443" font-family="Helvetica,sans-Serif" font-size="11" text-anchor="start">&apos;Amadeus&apos;</text><polygon fill="#fefecd" stroke="transparent" points="129 -38 129 -55 139 -55 139 -38 129 -38"/><text x="130.941" y="-43.2" fill="#444443" font-family="Helvetica,sans-Serif" font-size="11" text-anchor="start">1</text></g><g id="edge1" class="edge"><title>node4375035400:0-&gt;node4374620360:w</title><path fill="none" stroke="#444443" stroke-width=".5" d="M12.5,-41C24.9625,-41 27.5266,-49.7253 37.8238,-51.634"/><polygon fill="#444443" stroke="#444443" stroke-width=".5" points="37.893 -53.045 42 -52 38.138 -50.256 37.893 -53.045"/></g><g id="node3" class="node"><title>node4374621128</title><polygon fill="none" stroke="#000" stroke-width=".5" points="147 -30 35 -30 35 0 147 0 147 -30"/><polygon fill="#fefecd" stroke="transparent" points="36 -18 36 -29 66 -29 66 -18 36 -18"/><polyline fill="none" stroke="#000" points="36 -18 66 -18 66 -29"/><text x="48.497" y="-20.8" fill="#444443" font-family="Helvetica,sans-Serif" font-size="9" text-anchor="start">0</text><polygon fill="#fefecd" stroke="transparent" points="66 -18 66 -29 136 -29 136 -18 66 -18"/><polyline fill="none" stroke="#000" points="66 -18 136 -18 136 -29"/><text x="98.497" y="-20.8" fill="#444443" font-family="Helvetica,sans-Serif" font-size="9" text-anchor="start">1</text><polygon fill="#fefecd" stroke="transparent" points="136 -18 136 -29 146 -29 146 -18 136 -18"/><polyline fill="none" stroke="#000" points="136 -18 146 -18"/><text x="138.497" y="-20.8" fill="#444443" font-family="Helvetica,sans-Serif" font-size="9" text-anchor="start">2</text><polygon fill="#fefecd" stroke="transparent" points="36 -1 36 -18 66 -18 66 -1 36 -1"/><polyline fill="none" stroke="#000" points="66 -1 66 -18"/><text x="38.765" y="-6.2" fill="#444443" font-family="Helvetica,sans-Serif" font-size="11" text-anchor="start">1985</text><polygon fill="#fefecd" stroke="transparent" points="66 -1 66 -18 136 -18 136 -1 66 -1"/><polyline fill="none" stroke="#000" points="136 -1 136 -18"/><text x="68.634" y="-6.2" fill="#444443" font-family="Helvetica,sans-Serif" font-size="11" text-anchor="start">&apos;Out of Africa&apos;</text><polygon fill="#fefecd" stroke="transparent" points="136 -1 136 -18 146 -18 146 -1 136 -1"/><text x="137.941" y="-6.2" fill="#444443" font-family="Helvetica,sans-Serif" font-size="11" text-anchor="start">1</text></g><g id="edge2" class="edge"><title>node4375035400:1-&gt;node4374621128:w</title><path fill="none" stroke="#444443" stroke-width=".5" d="M12.5,-25C21.9043,-25 23.68,-17.6147 30.9387,-15.5376"/><polygon fill="#444443" stroke="#444443" stroke-width=".5" points="31.218 -16.913 35 -15 30.851 -14.137 31.218 -16.913"/></g></g></svg>