<svg xmlns="http://www.w3.org/2000/svg" xmlns:xlink="http://www.w3.org/1999/xlink" width="92pt" height="55pt" viewBox="0 0 92 55"><g id="graph0" class="graph" transform="scale(1 1) rotate(0) translate(4 51)"><title>G</title><polygon fill="#fff" stroke="transparent" points="-4 4 -4 -51 88 -51 88 4 -4 4"/><g id="node1" class="node"><title>node140553757475240</title><polygon fill="#d9e6f5" stroke="#444443" stroke-width=".5" points="40 -47 0 -47 0 0 40 0 40 -47"/><polygon fill="#d9e6f5" stroke="transparent" points="2 -31.5 2 -44.5 38 -44.5 38 -31.5 2 -31.5"/><polyline fill="none" stroke="#444443" points="2 -31.5 38 -31.5"/><text x="3.804" y="-34.7" fill="#444443" font-family="Times,serif" font-size="11" font-style="italic" text-anchor="start">globals</text><polygon fill="#d9e6f5" stroke="transparent" points="2 -29.5 2 -31.5 38 -31.5 38 -29.5 2 -29.5"/><polygon fill="#d9e6f5" stroke="transparent" points="2 -16.5 2 -29.5 24 -29.5 24 -16.5 2 -16.5"/><polyline fill="none" stroke="#444443" points="24 -16.5 24 -29.5"/><text x="2.604" y="-19.7" fill="#444443" font-family="Helvetica,sans-Serif" font-size="11" text-anchor="start">you</text><polygon fill="#d9e6f5" stroke="transparent" points="24 -16.5 24 -29.5 38 -29.5 38 -16.5 24 -16.5"/><polygon fill="#d9e6f5" stroke="transparent" points="2 -14.5 2 -16.5 38 -16.5 38 -14.5 2 -14.5"/><polygon fill="#d9e6f5" stroke="transparent" points="2 -1.5 2 -14.5 24 -14.5 24 -1.5 2 -1.5"/><polyline fill="none" stroke="#444443" points="24 -1.5 24 -14.5"/><text x="4.663" y="-4.7" fill="#444443" font-family="Helvetica,sans-Serif" font-size="11" text-anchor="start">me</text><polygon fill="#d9e6f5" stroke="transparent" points="24 -1.5 24 -14.5 38 -14.5 38 -1.5 24 -1.5"/></g><g id="node2" class="node"><title>node4508962632</title><polygon fill="none" stroke="#000" stroke-width=".5" points="84 -30.5 48 -30.5 48 -.5 84 -.5 84 -30.5"/><polygon fill="#fefecd" stroke="transparent" points="49 -18.5 49 -29.5 61 -29.5 61 -18.5 49 -18.5"/><polyline fill="none" stroke="#000" points="49 -18.5 61 -18.5 61 -29.5"/><text x="52.497" y="-21.3" fill="#444443" font-family="Helvetica,sans-Serif" font-size="9" text-anchor="start">0</text><polygon fill="#fefecd" stroke="transparent" points="61 -18.5 61 -29.5 73 -29.5 73 -18.5 61 -18.5"/><polyline fill="none" stroke="#000" points="61 -18.5 73 -18.5 73 -29.5"/><text x="64.497" y="-21.3" fill="#444443" font-family="Helvetica,sans-Serif" font-size="9" text-anchor="start">1</text><polygon fill="#fefecd" stroke="transparent" points="73 -18.5 73 -29.5 83 -29.5 83 -18.5 73 -18.5"/><polyline fill="none" stroke="#000" points="73 -18.5 83 -18.5"/><text x="75.497" y="-21.3" fill="#444443" font-family="Helvetica,sans-Serif" font-size="9" text-anchor="start">2</text><polygon fill="#fefecd" stroke="transparent" points="49 -1.5 49 -18.5 61 -18.5 61 -1.5 49 -1.5"/><polyline fill="none" stroke="#000" points="61 -1.5 61 -18.5"/><text x="51.941" y="-6.7" fill="#444443" font-family="Helvetica,sans-Serif" font-size="11" text-anchor="start">1</text><polygon fill="#fefecd" stroke="transparent" points="61 -1.5 61 -18.5 73 -18.5 73 -1.5 61 -1.5"/><polyline fill="none" stroke="#000" points="73 -1.5 73 -18.5"/><text x="63.941" y="-6.7" fill="#444443" font-family="Helvetica,sans-Serif" font-size="11" text-anchor="start">3</text><polygon fill="#fefecd" stroke="transparent" points="73 -1.5 73 -18.5 83 -18.5 83 -1.5 73 -1.5"/><text x="74.941" y="-6.7" fill="#444443" font-family="Helvetica,sans-Serif" font-size="11" text-anchor="start">5</text></g><g id="edge1" class="edge"><title>node140553757475240:c-&gt;node4508962632</title><path fill="none" stroke="#444443" stroke-width=".5" d="M34.2848,-21.843C36.5631,-21.3874 39.8204,-20.7359 43.3886,-20.0223"/><ellipse cx="32.569" cy="-22.186" fill="#444443" stroke="#444443" stroke-width=".5" rx="1.6" ry="1.6"/><polygon fill="#444443" stroke="#444443" stroke-width=".5" points="44.032 -21.321 47.68 -19.164 43.483 -18.576 44.032 -21.321"/></g><g id="edge2" class="edge"><title>node140553757475240:c-&gt;node4508962632</title><path fill="none" stroke="#444443" stroke-width=".5" d="M34.2848,-8.2508C36.5631,-8.7716 39.8204,-9.5161 43.3886,-10.3317"/><ellipse cx="32.56" cy="-7.857" fill="#444443" stroke="#444443" stroke-width=".5" rx="1.6" ry="1.6"/><polygon fill="#444443" stroke="#444443" stroke-width=".5" points="43.468 -11.786 47.68 -11.313 44.093 -9.056 43.468 -11.786"/></g></g></svg>