<svg xmlns="http://www.w3.org/2000/svg" xmlns:xlink="http://www.w3.org/1999/xlink" width="132" height="112" viewBox="0 0 99 84"><g id="graph0" class="graph" transform="scale(1 1) rotate(0) translate(4 80)"><title>G</title><polygon fill="#fff" stroke="transparent" points="-4 4 -4 -80 95 -80 95 4 -4 4"/><g id="node1" class="node"><title>node4508966360</title><polygon fill="#d9e6f5" stroke="#444443" stroke-width=".5" points="38 -70.5 0 -70.5 0 -23.5 38 -23.5 38 -70.5"/><polygon fill="#d9e6f5" stroke="transparent" points="2 -55 2 -68 36 -68 36 -55 2 -55"/><polyline fill="none" stroke="#444443" points="2 -55 36 -55"/><text x="2.804" y="-58.2" fill="#444443" font-family="Times,serif" font-size="11" font-style="italic" text-anchor="start">globals</text><polygon fill="#d9e6f5" stroke="transparent" points="2 -53 2 -55 36 -55 36 -53 2 -53"/><polygon fill="#d9e6f5" stroke="transparent" points="2 -40 2 -53 18 -53 18 -40 2 -40"/><polyline fill="none" stroke="#444443" points="18 -40 18 -53"/><text x="6.607" y="-43.2" fill="#444443" font-family="Helvetica,sans-Serif" font-size="11" text-anchor="start">X</text><polygon fill="#d9e6f5" stroke="transparent" points="20 -40 20 -53 36 -53 36 -40 20 -40"/><polygon fill="#d9e6f5" stroke="transparent" points="2 -38 2 -40 36 -40 36 -38 2 -38"/><polygon fill="#d9e6f5" stroke="transparent" points="2 -25 2 -38 18 -38 18 -25 2 -25"/><polyline fill="none" stroke="#444443" points="18 -25 18 -38"/><text x="6.8" y="-28.2" fill="#444443" font-family="Helvetica,sans-Serif" font-size="11" text-anchor="start">Y</text><polygon fill="#d9e6f5" stroke="transparent" points="20 -25 20 -38 36 -38 36 -25 20 -25"/></g><g id="node2" class="node"><title>node4508961416</title><polygon fill="#cfe2d4" stroke="#444443" stroke-width=".5" points="59 -74 46 -74 46 -42 59 -42 59 -74"/><polygon fill="#cfe2d4" stroke="transparent" points="47.5 -58 47.5 -73 58.5 -73 58.5 -58 47.5 -58"/><polyline fill="none" stroke="#444443" points="47.5 -58 58.5 -58"/><text x="50.497" y="-62.8" fill="#444443" font-family="Helvetica,sans-Serif" font-size="9" text-anchor="start">0</text><polygon fill="#cfe2d4" stroke="transparent" points="47.5 -43 47.5 -58 58.5 -58 58.5 -43 47.5 -43"/><text x="50.497" y="-47.8" fill="#444443" font-family="Helvetica,sans-Serif" font-size="9" text-anchor="start">1</text></g><g id="edge5" class="edge"><title>node4508966360:c-&gt;node4508961416</title><path fill="none" stroke="#444443" stroke-width=".5" d="M30.9188,-47.4296C33.6566,-48.7706 37.9199,-50.8587 41.9365,-52.826"/><ellipse cx="29.437" cy="-46.704" fill="#444443" stroke="#444443" stroke-width=".5" rx="1.6" ry="1.6"/><polygon fill="#444443" stroke="#444443" stroke-width=".5" points="41.597 -54.219 45.805 -54.721 42.829 -51.704 41.597 -54.219"/></g><g id="node5" class="node"><title>node4507679688</title><polygon fill="#cfe2d4" stroke="#444443" stroke-width=".5" points="59 -35 46 -35 46 -3 59 -3 59 -35"/><polygon fill="#cfe2d4" stroke="transparent" points="47.5 -19 47.5 -34 58.5 -34 58.5 -19 47.5 -19"/><polyline fill="none" stroke="#444443" points="47.5 -19 58.5 -19"/><text x="50.497" y="-23.8" fill="#444443" font-family="Helvetica,sans-Serif" font-size="9" text-anchor="start">0</text><polygon fill="#cfe2d4" stroke="transparent" points="47.5 -4 47.5 -19 58.5 -19 58.5 -4 47.5 -4"/><text x="50.497" y="-8.8" fill="#444443" font-family="Helvetica,sans-Serif" font-size="9" text-anchor="start">1</text></g><g id="edge6" class="edge"><title>node4508966360:c-&gt;node4507679688</title><path fill="none" stroke="#444443" stroke-width=".5" d="M30.9188,-29.5704C33.6566,-28.2294 37.9199,-26.1413 41.9365,-24.174"/><ellipse cx="29.437" cy="-30.296" fill="#444443" stroke="#444443" stroke-width=".5" rx="1.6" ry="1.6"/><polygon fill="#444443" stroke="#444443" stroke-width=".5" points="42.829 -25.296 45.805 -22.279 41.597 -22.781 42.829 -25.296"/></g><g id="node3" class="node"><title>node4508897096</title><polygon fill="none" stroke="#000" stroke-width=".5" points="91 -76 67 -76 67 -46 91 -46 91 -76"/><polygon fill="#fefecd" stroke="transparent" points="68 -64 68 -75 80 -75 80 -64 68 -64"/><polyline fill="none" stroke="#000" points="68 -64 80 -64 80 -75"/><text x="71.497" y="-66.8" fill="#444443" font-family="Helvetica,sans-Serif" font-size="9" text-anchor="start">0</text><polygon fill="#fefecd" stroke="transparent" points="80 -64 80 -75 90 -75 90 -64 80 -64"/><polyline fill="none" stroke="#000" points="80 -64 90 -64"/><text x="82.497" y="-66.8" fill="#444443" font-family="Helvetica,sans-Serif" font-size="9" text-anchor="start">1</text><polygon fill="#fefecd" stroke="transparent" points="68 -47 68 -64 80 -64 80 -47 68 -47"/><polyline fill="none" stroke="#000" points="80 -47 80 -64"/><text x="70.941" y="-52.2" fill="#444443" font-family="Helvetica,sans-Serif" font-size="11" text-anchor="start">1</text><polygon fill="#fefecd" stroke="transparent" points="80 -47 80 -64 90 -64 90 -47 80 -47"/><text x="81.941" y="-52.2" fill="#444443" font-family="Helvetica,sans-Serif" font-size="11" text-anchor="start">2</text></g><g id="edge1" class="edge"><title>node4508961416:0-&gt;node4508897096:w</title><path fill="none" stroke="#444443" stroke-width=".5" d="M58.5,-66C60.9654,-66 61.9599,-64.418 63.1382,-63.0337"/><polygon fill="#444443" stroke="#444443" stroke-width=".5" points="64.113 -64.103 67 -61 62.808 -61.625 64.113 -64.103"/></g><g id="node4" class="node"><title>node4509115272</title><polygon fill="none" stroke="#000" stroke-width=".5" points="91 -30 67 -30 67 0 91 0 91 -30"/><polygon fill="#fefecd" stroke="transparent" points="68 -18 68 -29 80 -29 80 -18 68 -18"/><polyline fill="none" stroke="#000" points="68 -18 80 -18 80 -29"/><text x="71.497" y="-20.8" fill="#444443" font-family="Helvetica,sans-Serif" font-size="9" text-anchor="start">0</text><polygon fill="#fefecd" stroke="transparent" points="80 -18 80 -29 90 -29 90 -18 80 -18"/><polyline fill="none" stroke="#000" points="80 -18 90 -18"/><text x="82.497" y="-20.8" fill="#444443" font-family="Helvetica,sans-Serif" font-size="9" text-anchor="start">1</text><polygon fill="#fefecd" stroke="transparent" points="68 -1 68 -18 80 -18 80 -1 68 -1"/><polyline fill="none" stroke="#000" points="80 -1 80 -18"/><text x="70.941" y="-6.2" fill="#444443" font-family="Helvetica,sans-Serif" font-size="11" text-anchor="start">3</text><polygon fill="#fefecd" stroke="transparent" points="80 -1 80 -18 90 -18 90 -1 80 -1"/><text x="81.941" y="-6.2" fill="#444443" font-family="Helvetica,sans-Serif" font-size="11" text-anchor="start">4</text></g><g id="edge2" class="edge"><title>node4508961416:1-&gt;node4509115272:w</title><path fill="none" stroke="#444443" stroke-width=".5" d="M53.5,-43C53.5,-39.6964 57.1789,-40.7563 59,-38 63.8475,-30.6631 58.9542,-20.0651 62.754,-16.3487"/><polygon fill="#444443" stroke="#444443" stroke-width=".5" points="63.612 -17.545 67 -15 62.764 -14.877 63.612 -17.545"/></g><g id="edge3" class="edge"><title>node4507679688:0-&gt;node4508897096:w</title><path fill="none" stroke="#444443" stroke-width=".5" d="M53.5,-34C53.5,-37.3036 57.1596,-36.2565 59,-39 63.7093,-46.0201 59.1789,-56.156 62.8949,-59.7101"/><polygon fill="#444443" stroke="#444443" stroke-width=".5" points="62.764 -61.136 67 -61 63.604 -58.465 62.764 -61.136"/></g><g id="edge4" class="edge"><title>node4507679688:1-&gt;node4509115272:w</title><path fill="none" stroke="#444443" stroke-width=".5" d="M58.5,-11C60.8485,-11 61.9234,-12.2656 63.1574,-13.373"/><polygon fill="#444443" stroke="#444443" stroke-width=".5" points="62.771 -14.73 67 -15 63.862 -12.151 62.771 -14.73"/></g></g></svg>