<svg xmlns="http://www.w3.org/2000/svg" xmlns:xlink="http://www.w3.org/1999/xlink" width="46pt" height="55pt" viewBox="0 0 46 55"><g id="graph0" class="graph" transform="scale(1 1) rotate(0) translate(4 51)"><title>G</title><polygon fill="#fff" stroke="transparent" points="-4 4 -4 -51 42 -51 42 4 -4 4"/><g id="node1" class="node"><title>node4509156840</title><polygon fill="#d9e6f5" stroke="#444443" stroke-width=".5" points="38 -47 0 -47 0 0 38 0 38 -47"/><polygon fill="#d9e6f5" stroke="transparent" points="2 -31.5 2 -44.5 36 -44.5 36 -31.5 2 -31.5"/><polyline fill="none" stroke="#444443" points="2 -31.5 36 -31.5"/><text x="2.804" y="-34.7" fill="#444443" font-family="Times,serif" font-size="11" font-style="italic" text-anchor="start">globals</text><polygon fill="#d9e6f5" stroke="transparent" points="2 -29.5 2 -31.5 36 -31.5 36 -29.5 2 -29.5"/><polygon fill="#d9e6f5" stroke="transparent" points="2 -16.5 2 -29.5 18 -29.5 18 -16.5 2 -16.5"/><polyline fill="none" stroke="#444443" points="18 -16.5 18 -29.5"/><text x="8.444" y="-19.7" fill="#444443" font-family="Helvetica,sans-Serif" font-size="11" text-anchor="start">x</text><polygon fill="#d9e6f5" stroke="transparent" points="21 -16.5 21 -29.5 36 -29.5 36 -16.5 21 -16.5"/><text x="22" y="-19.7" fill="#444443" font-family="Helvetica,sans-Serif" font-size="11" text-anchor="start">7</text><polygon fill="#d9e6f5" stroke="transparent" points="2 -14.5 2 -16.5 36 -16.5 36 -14.5 2 -14.5"/><polygon fill="#d9e6f5" stroke="transparent" points="2 -1.5 2 -14.5 18 -14.5 18 -1.5 2 -1.5"/><polyline fill="none" stroke="#444443" points="18 -1.5 18 -14.5"/><text x="8.444" y="-4.7" fill="#444443" font-family="Helvetica,sans-Serif" font-size="11" text-anchor="start">y</text><polygon fill="#d9e6f5" stroke="transparent" points="21 -1.5 21 -14.5 36 -14.5 36 -1.5 21 -1.5"/><text x="22" y="-4.7" fill="#444443" font-family="Helvetica,sans-Serif" font-size="11" text-anchor="start">7</text></g></g></svg>