<svg xmlns="http://www.w3.org/2000/svg" xmlns:xlink="http://www.w3.org/1999/xlink" width="98pt" height="55pt" viewBox="0 0 98 55"><g id="graph0" class="graph" transform="scale(1 1) rotate(0) translate(4 51)"><title>G</title><polygon fill="#fff" stroke="transparent" points="-4 4 -4 -51 94 -51 94 4 -4 4"/><g id="node1" class="node"><title>node4509061192</title><polygon fill="#d9e6f5" stroke="#444443" stroke-width=".5" points="40 -47 0 -47 0 0 40 0 40 -47"/><polygon fill="#d9e6f5" stroke="transparent" points="2 -31.5 2 -44.5 38 -44.5 38 -31.5 2 -31.5"/><polyline fill="none" stroke="#444443" points="2 -31.5 38 -31.5"/><text x="3.804" y="-34.7" fill="#444443" font-family="Times,serif" font-size="11" font-style="italic" text-anchor="start">globals</text><polygon fill="#d9e6f5" stroke="transparent" points="2 -29.5 2 -31.5 38 -31.5 38 -29.5 2 -29.5"/><polygon fill="#d9e6f5" stroke="transparent" points="2 -16.5 2 -29.5 24 -29.5 24 -16.5 2 -16.5"/><polyline fill="none" stroke="#444443" points="24 -16.5 24 -29.5"/><text x="2.604" y="-19.7" fill="#444443" font-family="Helvetica,sans-Serif" font-size="11" text-anchor="start">you</text><polygon fill="#d9e6f5" stroke="transparent" points="24 -16.5 24 -29.5 38 -29.5 38 -16.5 24 -16.5"/><polygon fill="#d9e6f5" stroke="transparent" points="2 -14.5 2 -16.5 38 -16.5 38 -14.5 2 -14.5"/><polygon fill="#d9e6f5" stroke="transparent" points="2 -1.5 2 -14.5 24 -14.5 24 -1.5 2 -1.5"/><polyline fill="none" stroke="#444443" points="24 -1.5 24 -14.5"/><text x="4.663" y="-4.7" fill="#444443" font-family="Helvetica,sans-Serif" font-size="11" text-anchor="start">me</text><polygon fill="#d9e6f5" stroke="transparent" points="24 -1.5 24 -14.5 38 -14.5 38 -1.5 24 -1.5"/></g><g id="node2" class="node"><title>node4508962504</title><polygon fill="none" stroke="#000" stroke-width=".5" points="90 -30.5 48 -30.5 48 -.5 90 -.5 90 -30.5"/><polygon fill="#fefecd" stroke="transparent" points="49 -18.5 49 -29.5 67 -29.5 67 -18.5 49 -18.5"/><polyline fill="none" stroke="#000" points="49 -18.5 67 -18.5 67 -29.5"/><text x="55.497" y="-21.3" fill="#444443" font-family="Helvetica,sans-Serif" font-size="9" text-anchor="start">0</text><polygon fill="#fefecd" stroke="transparent" points="67 -18.5 67 -29.5 79 -29.5 79 -18.5 67 -18.5"/><polyline fill="none" stroke="#000" points="67 -18.5 79 -18.5 79 -29.5"/><text x="70.497" y="-21.3" fill="#444443" font-family="Helvetica,sans-Serif" font-size="9" text-anchor="start">1</text><polygon fill="#fefecd" stroke="transparent" points="79 -18.5 79 -29.5 89 -29.5 89 -18.5 79 -18.5"/><polyline fill="none" stroke="#000" points="79 -18.5 89 -18.5"/><text x="81.497" y="-21.3" fill="#444443" font-family="Helvetica,sans-Serif" font-size="9" text-anchor="start">2</text><polygon fill="#fefecd" stroke="transparent" points="49 -1.5 49 -18.5 67 -18.5 67 -1.5 49 -1.5"/><polyline fill="none" stroke="#000" points="67 -1.5 67 -18.5"/><text x="51.882" y="-6.7" fill="#444443" font-family="Helvetica,sans-Serif" font-size="11" text-anchor="start">99</text><polygon fill="#fefecd" stroke="transparent" points="67 -1.5 67 -18.5 79 -18.5 79 -1.5 67 -1.5"/><polyline fill="none" stroke="#000" points="79 -1.5 79 -18.5"/><text x="69.941" y="-6.7" fill="#444443" font-family="Helvetica,sans-Serif" font-size="11" text-anchor="start">3</text><polygon fill="#fefecd" stroke="transparent" points="79 -1.5 79 -18.5 89 -18.5 89 -1.5 79 -1.5"/><text x="80.941" y="-6.7" fill="#444443" font-family="Helvetica,sans-Serif" font-size="11" text-anchor="start">5</text></g><g id="edge1" class="edge"><title>node4509061192:c-&gt;node4508962504</title><path fill="none" stroke="#444443" stroke-width=".5" d="M34.2522,-21.9009C36.5174,-21.4836 39.7736,-20.8838 43.3956,-20.2166"/><ellipse cx="32.574" cy="-22.21" fill="#444443" stroke="#444443" stroke-width=".5" rx="1.6" ry="1.6"/><polygon fill="#444443" stroke="#444443" stroke-width=".5" points="44.098 -21.511 47.778 -19.409 43.59 -18.757 44.098 -21.511"/></g><g id="edge2" class="edge"><title>node4509061192:c-&gt;node4508962504</title><path fill="none" stroke="#444443" stroke-width=".5" d="M34.2522,-8.1847C36.5174,-8.6616 39.7736,-9.3471 43.3956,-10.1096"/><ellipse cx="32.566" cy="-7.83" fill="#444443" stroke="#444443" stroke-width=".5" rx="1.6" ry="1.6"/><polygon fill="#444443" stroke="#444443" stroke-width=".5" points="43.575 -11.578 47.778 -11.032 44.152 -8.838 43.575 -11.578"/></g></g></svg>