<svg xmlns="http://www.w3.org/2000/svg" xmlns:xlink="http://www.w3.org/1999/xlink" width="236pt" height="95pt" viewBox="0 0 236 94.5"><g id="graph0" class="graph" transform="scale(1 1) rotate(0) translate(4 90.5)"><title>G</title><polygon fill="#fff" stroke="transparent" points="-4 4 -4 -90.5 232 -90.5 232 4 -4 4"/><g id="node1" class="node"><title>node4400734760</title><polygon fill="#d9e6f5" stroke="#444443" stroke-width=".5" points="64 -86.5 0 -86.5 0 -54.5 64 -54.5 64 -86.5"/><polygon fill="#d9e6f5" stroke="transparent" points="2 -71.5 2 -84.5 62 -84.5 62 -71.5 2 -71.5"/><polyline fill="none" stroke="#444443" points="2 -71.5 62 -71.5"/><text x="15.803" y="-74.7" fill="#444443" font-family="Times,serif" font-size="11" font-style="italic" text-anchor="start">globals</text><polygon fill="#d9e6f5" stroke="transparent" points="2 -69.5 2 -71.5 62 -71.5 62 -69.5 2 -69.5"/><polygon fill="#d9e6f5" stroke="transparent" points="2 -56.5 2 -69.5 48 -69.5 48 -56.5 2 -56.5"/><polyline fill="none" stroke="#444443" points="48 -56.5 48 -69.5"/><text x="2.989" y="-59.7" fill="#444443" font-family="Helvetica,sans-Serif" font-size="11" text-anchor="start">Quantity</text><polygon fill="#d9e6f5" stroke="transparent" points="48 -56.5 48 -69.5 62 -69.5 62 -56.5 48 -56.5"/></g><g id="node2" class="node"><title>node4400737640</title><polygon fill="#d9e6f5" stroke="#444443" stroke-width=".5" points="53 -47 11 -47 11 0 53 0 53 -47"/><polygon fill="#d9e6f5" stroke="transparent" points="13 -31.5 13 -44.5 51 -44.5 51 -31.5 13 -31.5"/><polyline fill="none" stroke="#444443" points="13 -31.5 51 -31.5"/><text x="23.138" y="-34.7" fill="#444443" font-family="Times,serif" font-size="11" font-style="italic" text-anchor="start">sum</text><polygon fill="#d9e6f5" stroke="transparent" points="13 -29.5 13 -31.5 51 -31.5 51 -29.5 13 -29.5"/><polygon fill="#d9e6f5" stroke="transparent" points="13 -16.5 13 -29.5 37 -29.5 37 -16.5 13 -16.5"/><polyline fill="none" stroke="#444443" points="37 -16.5 37 -29.5"/><text x="27.444" y="-19.7" fill="#444443" font-family="Helvetica,sans-Serif" font-size="11" text-anchor="start">s</text><polygon fill="#d9e6f5" stroke="transparent" points="37 -16.5 37 -29.5 51 -29.5 51 -16.5 37 -16.5"/><text x="38" y="-19.7" fill="#444443" font-family="Helvetica,sans-Serif" font-size="11" text-anchor="start">0</text><polygon fill="#d9e6f5" stroke="transparent" points="13 -14.5 13 -16.5 51 -16.5 51 -14.5 13 -14.5"/><polygon fill="#d9e6f5" stroke="transparent" points="13 -1.5 13 -14.5 37 -14.5 37 -1.5 13 -1.5"/><polyline fill="none" stroke="#444443" points="37 -1.5 37 -14.5"/><text x="13.847" y="-4.7" fill="#444443" font-family="Times,serif" font-size="11" font-style="italic" text-anchor="start">data</text><polygon fill="#d9e6f5" stroke="transparent" points="37 -1.5 37 -14.5 51 -14.5 51 -1.5 37 -1.5"/></g><g id="node3" class="node"><title>node4399617416</title><polygon fill="none" stroke="#000" stroke-width=".5" points="228 -49.5 72 -49.5 72 -19.5 228 -19.5 228 -49.5"/><polygon fill="#fefecd" stroke="transparent" points="73 -37.5 73 -48.5 85 -48.5 85 -37.5 73 -37.5"/><polyline fill="none" stroke="#000" points="73 -37.5 85 -37.5 85 -48.5"/><text x="76.497" y="-40.3" fill="#444443" font-family="Helvetica,sans-Serif" font-size="9" text-anchor="start">0</text><polygon fill="#fefecd" stroke="transparent" points="85 -37.5 85 -48.5 103 -48.5 103 -37.5 85 -37.5"/><polyline fill="none" stroke="#000" points="85 -37.5 103 -37.5 103 -48.5"/><text x="91.497" y="-40.3" fill="#444443" font-family="Helvetica,sans-Serif" font-size="9" text-anchor="start">1</text><polygon fill="#fefecd" stroke="transparent" points="103 -37.5 103 -48.5 121 -48.5 121 -37.5 103 -37.5"/><polyline fill="none" stroke="#000" points="103 -37.5 121 -37.5 121 -48.5"/><text x="109.497" y="-40.3" fill="#444443" font-family="Helvetica,sans-Serif" font-size="9" text-anchor="start">2</text><polygon fill="#fefecd" stroke="transparent" points="121 -37.5 121 -48.5 139 -48.5 139 -37.5 121 -37.5"/><polyline fill="none" stroke="#000" points="121 -37.5 139 -37.5 139 -48.5"/><text x="127.497" y="-40.3" fill="#444443" font-family="Helvetica,sans-Serif" font-size="9" text-anchor="start">3</text><polygon fill="#fefecd" stroke="transparent" points="139 -37.5 139 -48.5 157 -48.5 157 -37.5 139 -37.5"/><polyline fill="none" stroke="#000" points="139 -37.5 157 -37.5 157 -48.5"/><text x="145.497" y="-40.3" fill="#444443" font-family="Helvetica,sans-Serif" font-size="9" text-anchor="start">4</text><polygon fill="#fefecd" stroke="transparent" points="157 -37.5 157 -48.5 175 -48.5 175 -37.5 157 -37.5"/><polyline fill="none" stroke="#000" points="157 -37.5 175 -37.5 175 -48.5"/><text x="163.497" y="-40.3" fill="#444443" font-family="Helvetica,sans-Serif" font-size="9" text-anchor="start">5</text><polygon fill="#fefecd" stroke="transparent" points="175 -37.5 175 -48.5 193 -48.5 193 -37.5 175 -37.5"/><polyline fill="none" stroke="#000" points="175 -37.5 193 -37.5 193 -48.5"/><text x="181.497" y="-40.3" fill="#444443" font-family="Helvetica,sans-Serif" font-size="9" text-anchor="start">6</text><polygon fill="#fefecd" stroke="transparent" points="193 -37.5 193 -48.5 211 -48.5 211 -37.5 193 -37.5"/><polyline fill="none" stroke="#000" points="193 -37.5 211 -37.5 211 -48.5"/><text x="199.497" y="-40.3" fill="#444443" font-family="Helvetica,sans-Serif" font-size="9" text-anchor="start">7</text><polygon fill="#fefecd" stroke="transparent" points="211 -37.5 211 -48.5 227 -48.5 227 -37.5 211 -37.5"/><polyline fill="none" stroke="#000" points="211 -37.5 227 -37.5"/><text x="216.497" y="-40.3" fill="#444443" font-family="Helvetica,sans-Serif" font-size="9" text-anchor="start">8</text><polygon fill="#fefecd" stroke="transparent" points="73 -20.5 73 -37.5 85 -37.5 85 -20.5 73 -20.5"/><polyline fill="none" stroke="#000" points="85 -20.5 85 -37.5"/><text x="75.941" y="-25.7" fill="#444443" font-family="Helvetica,sans-Serif" font-size="11" text-anchor="start">6</text><polygon fill="#fefecd" stroke="transparent" points="85 -20.5 85 -37.5 103 -37.5 103 -20.5 85 -20.5"/><polyline fill="none" stroke="#000" points="103 -20.5 103 -37.5"/><text x="87.882" y="-25.7" fill="#444443" font-family="Helvetica,sans-Serif" font-size="11" text-anchor="start">49</text><polygon fill="#fefecd" stroke="transparent" points="103 -20.5 103 -37.5 121 -37.5 121 -20.5 103 -20.5"/><polyline fill="none" stroke="#000" points="121 -20.5 121 -37.5"/><text x="105.882" y="-25.7" fill="#444443" font-family="Helvetica,sans-Serif" font-size="11" text-anchor="start">27</text><polygon fill="#fefecd" stroke="transparent" points="121 -20.5 121 -37.5 139 -37.5 139 -20.5 121 -20.5"/><polyline fill="none" stroke="#000" points="139 -20.5 139 -37.5"/><text x="123.882" y="-25.7" fill="#444443" font-family="Helvetica,sans-Serif" font-size="11" text-anchor="start">30</text><polygon fill="#fefecd" stroke="transparent" points="139 -20.5 139 -37.5 157 -37.5 157 -20.5 139 -20.5"/><polyline fill="none" stroke="#000" points="157 -20.5 157 -37.5"/><text x="141.882" y="-25.7" fill="#444443" font-family="Helvetica,sans-Serif" font-size="11" text-anchor="start">19</text><polygon fill="#fefecd" stroke="transparent" points="157 -20.5 157 -37.5 175 -37.5 175 -20.5 157 -20.5"/><polyline fill="none" stroke="#000" points="175 -20.5 175 -37.5"/><text x="159.882" y="-25.7" fill="#444443" font-family="Helvetica,sans-Serif" font-size="11" text-anchor="start">21</text><polygon fill="#fefecd" stroke="transparent" points="175 -20.5 175 -37.5 193 -37.5 193 -20.5 175 -20.5"/><polyline fill="none" stroke="#000" points="193 -20.5 193 -37.5"/><text x="177.882" y="-25.7" fill="#444443" font-family="Helvetica,sans-Serif" font-size="11" text-anchor="start">12</text><polygon fill="#fefecd" stroke="transparent" points="193 -20.5 193 -37.5 211 -37.5 211 -20.5 193 -20.5"/><polyline fill="none" stroke="#000" points="211 -20.5 211 -37.5"/><text x="195.882" y="-25.7" fill="#444443" font-family="Helvetica,sans-Serif" font-size="11" text-anchor="start">22</text><polygon fill="#fefecd" stroke="transparent" points="211 -20.5 211 -37.5 227 -37.5 227 -20.5 211 -20.5"/><text x="212.882" y="-25.7" fill="#444443" font-family="Helvetica,sans-Serif" font-size="11" text-anchor="start">21</text></g><g id="edge2" class="edge"><title>node4400734760:c-&gt;node4399617416</title><path fill="none" stroke="#444443" stroke-width=".5" d="M58.265,-61.5377C64.5573,-59.6831 79.1384,-55.3855 94.866,-50.75"/><ellipse cx="56.535" cy="-62.048" fill="#444443" stroke="#444443" stroke-width=".5" rx="1.6" ry="1.6"/><polygon fill="#444443" stroke="#444443" stroke-width=".5" points="95.444 -52.039 98.885 -49.566 94.652 -49.353 95.444 -52.039"/></g><g id="edge3" class="edge"><title>node4400737640:c-&gt;node4399617416</title><path fill="none" stroke="#444443" stroke-width=".5" d="M47.4722,-8.3844C54.2281,-10.1053 69.9943,-14.1212 87.1881,-18.5007"/><ellipse cx="45.55" cy="-7.895" fill="#444443" stroke="#444443" stroke-width=".5" rx="1.6" ry="1.6"/><polygon fill="#444443" stroke="#444443" stroke-width=".5" points="86.889 -19.869 91.11 -19.5 87.58 -17.156 86.889 -19.869"/></g></g></svg>