<svg xmlns="http://www.w3.org/2000/svg" xmlns:xlink="http://www.w3.org/1999/xlink" width="46pt" height="40pt" viewBox="0 0 46 40"><g id="graph0" class="graph" transform="scale(1 1) rotate(0) translate(4 36)"><title>G</title><polygon fill="#fff" stroke="transparent" points="-4 4 -4 -36 42 -36 42 4 -4 4"/><g id="node1" class="node"><title>node4400722448</title><polygon fill="#d9e6f5" stroke="#444443" stroke-width=".5" points="38 -32 0 -32 0 0 38 0 38 -32"/><polygon fill="#d9e6f5" stroke="transparent" points="2 -17 2 -30 36 -30 36 -17 2 -17"/><polyline fill="none" stroke="#444443" points="2 -17 36 -17"/><text x="2.804" y="-20.2" fill="#444443" font-family="Times,serif" font-size="11" font-style="italic" text-anchor="start">globals</text><polygon fill="#d9e6f5" stroke="transparent" points="2 -15 2 -17 36 -17 36 -15 2 -15"/><polygon fill="#d9e6f5" stroke="transparent" points="2 -2 2 -15 15 -15 15 -2 2 -2"/><polyline fill="none" stroke="#444443" points="15 -2 15 -15"/><text x="5.444" y="-5.2" fill="#444443" font-family="Helvetica,sans-Serif" font-size="11" text-anchor="start">z</text><polygon fill="#d9e6f5" stroke="transparent" points="17 -2 17 -15 36 -15 36 -2 17 -2"/><text x="18" y="-5.2" fill="#444443" font-family="Helvetica,sans-Serif" font-size="11" text-anchor="start">99</text></g></g></svg>