<svg xmlns="http://www.w3.org/2000/svg" xmlns:xlink="http://www.w3.org/1999/xlink" width="245pt" height="77pt" viewBox="0 0 245 77"><g id="graph0" class="graph" transform="scale(1 1) rotate(0) translate(4 73)"><title>G</title><polygon fill="#fff" stroke="transparent" points="-4 4 -4 -73 241 -73 241 4 -4 4"/><g id="node1" class="node"><title>node4399237384</title><polygon fill="#d9e6f5" stroke="#444443" stroke-width=".5" points="73 -69 0 -69 0 -7 73 -7 73 -69"/><polygon fill="#d9e6f5" stroke="transparent" points="2.5 -54 2.5 -67 71.5 -67 71.5 -54 2.5 -54"/><polyline fill="none" stroke="#444443" points="2.5 -54 71.5 -54"/><text x="20.803" y="-57.2" fill="#444443" font-family="Times,serif" font-size="11" font-style="italic" text-anchor="start">globals</text><polygon fill="#d9e6f5" stroke="transparent" points="2.5 -52 2.5 -54 71.5 -54 71.5 -52 2.5 -52"/><polygon fill="#d9e6f5" stroke="transparent" points="2.5 -39 2.5 -52 48.5 -52 48.5 -39 2.5 -39"/><polyline fill="none" stroke="#444443" points="48.5 -39 48.5 -52"/><text x="23.663" y="-42.2" fill="#444443" font-family="Helvetica,sans-Serif" font-size="11" text-anchor="start">sum</text><polygon fill="#d9e6f5" stroke="transparent" points="48.5 -39 48.5 -52 71.5 -52 71.5 -39 48.5 -39"/><text x="49.295" y="-42.2" fill="#444443" font-family="Helvetica,sans-Serif" font-size="11" text-anchor="start">207</text><polygon fill="#d9e6f5" stroke="transparent" points="2.5 -37 2.5 -39 71.5 -39 71.5 -37 2.5 -37"/><polygon fill="#d9e6f5" stroke="transparent" points="2.5 -24 2.5 -37 48.5 -37 48.5 -24 2.5 -24"/><polyline fill="none" stroke="#444443" points="48.5 -24 48.5 -37"/><text x="38.326" y="-27.2" fill="#444443" font-family="Helvetica,sans-Serif" font-size="11" text-anchor="start">q</text><polygon fill="#d9e6f5" stroke="transparent" points="48.5 -24 48.5 -37 71.5 -37 71.5 -24 48.5 -24"/><text x="49.5" y="-27.2" fill="#444443" font-family="Helvetica,sans-Serif" font-size="11" text-anchor="start">21</text><polygon fill="#d9e6f5" stroke="transparent" points="2.5 -22 2.5 -24 71.5 -24 71.5 -22 2.5 -22"/><polygon fill="#d9e6f5" stroke="transparent" points="2.5 -9 2.5 -22 48.5 -22 48.5 -9 2.5 -9"/><polyline fill="none" stroke="#444443" points="48.5 -9 48.5 -22"/><text x="3.489" y="-12.2" fill="#444443" font-family="Helvetica,sans-Serif" font-size="11" text-anchor="start">Quantity</text><polygon fill="#d9e6f5" stroke="transparent" points="48.5 -9 48.5 -22 71.5 -22 71.5 -9 48.5 -9"/></g><g id="node2" class="node"><title>node4399267208</title><polygon fill="none" stroke="#000" stroke-width=".5" points="237 -30 81 -30 81 0 237 0 237 -30"/><polygon fill="#fefecd" stroke="transparent" points="82 -18 82 -29 94 -29 94 -18 82 -18"/><polyline fill="none" stroke="#000" points="82 -18 94 -18 94 -29"/><text x="85.497" y="-20.8" fill="#444443" font-family="Helvetica,sans-Serif" font-size="9" text-anchor="start">0</text><polygon fill="#fefecd" stroke="transparent" points="94 -18 94 -29 112 -29 112 -18 94 -18"/><polyline fill="none" stroke="#000" points="94 -18 112 -18 112 -29"/><text x="100.497" y="-20.8" fill="#444443" font-family="Helvetica,sans-Serif" font-size="9" text-anchor="start">1</text><polygon fill="#fefecd" stroke="transparent" points="112 -18 112 -29 130 -29 130 -18 112 -18"/><polyline fill="none" stroke="#000" points="112 -18 130 -18 130 -29"/><text x="118.497" y="-20.8" fill="#444443" font-family="Helvetica,sans-Serif" font-size="9" text-anchor="start">2</text><polygon fill="#fefecd" stroke="transparent" points="130 -18 130 -29 148 -29 148 -18 130 -18"/><polyline fill="none" stroke="#000" points="130 -18 148 -18 148 -29"/><text x="136.497" y="-20.8" fill="#444443" font-family="Helvetica,sans-Serif" font-size="9" text-anchor="start">3</text><polygon fill="#fefecd" stroke="transparent" points="148 -18 148 -29 166 -29 166 -18 148 -18"/><polyline fill="none" stroke="#000" points="148 -18 166 -18 166 -29"/><text x="154.497" y="-20.8" fill="#444443" font-family="Helvetica,sans-Serif" font-size="9" text-anchor="start">4</text><polygon fill="#fefecd" stroke="transparent" points="166 -18 166 -29 184 -29 184 -18 166 -18"/><polyline fill="none" stroke="#000" points="166 -18 184 -18 184 -29"/><text x="172.497" y="-20.8" fill="#444443" font-family="Helvetica,sans-Serif" font-size="9" text-anchor="start">5</text><polygon fill="#fefecd" stroke="transparent" points="184 -18 184 -29 202 -29 202 -18 184 -18"/><polyline fill="none" stroke="#000" points="184 -18 202 -18 202 -29"/><text x="190.497" y="-20.8" fill="#444443" font-family="Helvetica,sans-Serif" font-size="9" text-anchor="start">6</text><polygon fill="#fefecd" stroke="transparent" points="202 -18 202 -29 220 -29 220 -18 202 -18"/><polyline fill="none" stroke="#000" points="202 -18 220 -18 220 -29"/><text x="208.497" y="-20.8" fill="#444443" font-family="Helvetica,sans-Serif" font-size="9" text-anchor="start">7</text><polygon fill="#fefecd" stroke="transparent" points="220 -18 220 -29 236 -29 236 -18 220 -18"/><polyline fill="none" stroke="#000" points="220 -18 236 -18"/><text x="225.497" y="-20.8" fill="#444443" font-family="Helvetica,sans-Serif" font-size="9" text-anchor="start">8</text><polygon fill="#fefecd" stroke="transparent" points="82 -1 82 -18 94 -18 94 -1 82 -1"/><polyline fill="none" stroke="#000" points="94 -1 94 -18"/><text x="84.941" y="-6.2" fill="#444443" font-family="Helvetica,sans-Serif" font-size="11" text-anchor="start">6</text><polygon fill="#fefecd" stroke="transparent" points="94 -1 94 -18 112 -18 112 -1 94 -1"/><polyline fill="none" stroke="#000" points="112 -1 112 -18"/><text x="96.882" y="-6.2" fill="#444443" font-family="Helvetica,sans-Serif" font-size="11" text-anchor="start">49</text><polygon fill="#fefecd" stroke="transparent" points="112 -1 112 -18 130 -18 130 -1 112 -1"/><polyline fill="none" stroke="#000" points="130 -1 130 -18"/><text x="114.882" y="-6.2" fill="#444443" font-family="Helvetica,sans-Serif" font-size="11" text-anchor="start">27</text><polygon fill="#fefecd" stroke="transparent" points="130 -1 130 -18 148 -18 148 -1 130 -1"/><polyline fill="none" stroke="#000" points="148 -1 148 -18"/><text x="132.882" y="-6.2" fill="#444443" font-family="Helvetica,sans-Serif" font-size="11" text-anchor="start">30</text><polygon fill="#fefecd" stroke="transparent" points="148 -1 148 -18 166 -18 166 -1 148 -1"/><polyline fill="none" stroke="#000" points="166 -1 166 -18"/><text x="150.882" y="-6.2" fill="#444443" font-family="Helvetica,sans-Serif" font-size="11" text-anchor="start">19</text><polygon fill="#fefecd" stroke="transparent" points="166 -1 166 -18 184 -18 184 -1 166 -1"/><polyline fill="none" stroke="#000" points="184 -1 184 -18"/><text x="168.882" y="-6.2" fill="#444443" font-family="Helvetica,sans-Serif" font-size="11" text-anchor="start">21</text><polygon fill="#fefecd" stroke="transparent" points="184 -1 184 -18 202 -18 202 -1 184 -1"/><polyline fill="none" stroke="#000" points="202 -1 202 -18"/><text x="186.882" y="-6.2" fill="#444443" font-family="Helvetica,sans-Serif" font-size="11" text-anchor="start">12</text><polygon fill="#fefecd" stroke="transparent" points="202 -1 202 -18 220 -18 220 -1 202 -1"/><polyline fill="none" stroke="#000" points="220 -1 220 -18"/><text x="204.882" y="-6.2" fill="#444443" font-family="Helvetica,sans-Serif" font-size="11" text-anchor="start">22</text><polygon fill="#fefecd" stroke="transparent" points="220 -1 220 -18 236 -18 236 -1 220 -1"/><text x="221.882" y="-6.2" fill="#444443" font-family="Helvetica,sans-Serif" font-size="11" text-anchor="start">21</text></g><g id="edge1" class="edge"><title>node4399237384:c-&gt;node4399267208</title><path fill="none" stroke="#444443" stroke-width=".5" d="M63.8054,-15C66.6716,-15 71.2389,-15 76.8585,-15"/><ellipse cx="62.1" cy="-15" fill="#444443" stroke="#444443" stroke-width=".5" rx="1.6" ry="1.6"/><polygon fill="#444443" stroke="#444443" stroke-width=".5" points="76.909 -16.4 80.909 -15 76.909 -13.6 76.909 -16.4"/></g></g></svg>