<svg xmlns="http://www.w3.org/2000/svg" xmlns:xlink="http://www.w3.org/1999/xlink" width="46pt" height="95pt" viewBox="0 0 46 94.5"><g id="graph0" class="graph" transform="scale(1 1) rotate(0) translate(4 90.5)"><title>G</title><polygon fill="#fff" stroke="transparent" points="-4 4 -4 -90.5 42 -90.5 42 4 -4 4"/><g id="node1" class="node"><title>node4400719816</title><polygon fill="#d9e6f5" stroke="#444443" stroke-width=".5" points="38 -86.5 0 -86.5 0 -54.5 38 -54.5 38 -86.5"/><polygon fill="#d9e6f5" stroke="transparent" points="2 -71.5 2 -84.5 36 -84.5 36 -71.5 2 -71.5"/><polyline fill="none" stroke="#444443" points="2 -71.5 36 -71.5"/><text x="2.804" y="-74.7" fill="#444443" font-family="Times,serif" font-size="11" font-style="italic" text-anchor="start">globals</text><polygon fill="#d9e6f5" stroke="transparent" points="2 -69.5 2 -71.5 36 -71.5 36 -69.5 2 -69.5"/><polygon fill="#d9e6f5" stroke="transparent" points="2 -56.5 2 -69.5 15 -69.5 15 -56.5 2 -56.5"/><polyline fill="none" stroke="#444443" points="15 -56.5 15 -69.5"/><text x="5.444" y="-59.7" fill="#444443" font-family="Helvetica,sans-Serif" font-size="11" text-anchor="start">z</text><polygon fill="#d9e6f5" stroke="transparent" points="17 -56.5 17 -69.5 36 -69.5 36 -56.5 17 -56.5"/><text x="18" y="-59.7" fill="#444443" font-family="Helvetica,sans-Serif" font-size="11" text-anchor="start">99</text></g><g id="node2" class="node"><title>node140650211574408</title><polygon fill="#d9e6f5" stroke="#444443" stroke-width=".5" points="35 -47 3 -47 3 0 35 0 35 -47"/><polygon fill="#d9e6f5" stroke="transparent" points="5 -31.5 5 -44.5 33 -44.5 33 -31.5 5 -31.5"/><polyline fill="none" stroke="#444443" points="5 -31.5 33 -31.5"/><text x="17.472" y="-34.7" fill="#444443" font-family="Times,serif" font-size="11" font-style="italic" text-anchor="start">f</text><polygon fill="#d9e6f5" stroke="transparent" points="5 -29.5 5 -31.5 33 -31.5 33 -29.5 5 -29.5"/><polygon fill="#d9e6f5" stroke="transparent" points="5 -16.5 5 -29.5 16 -29.5 16 -16.5 5 -16.5"/><polyline fill="none" stroke="#444443" points="16 -16.5 16 -29.5"/><text x="7.368" y="-19.7" fill="#444443" font-family="Times,serif" font-size="11" font-style="italic" text-anchor="start">x</text><polygon fill="#d9e6f5" stroke="transparent" points="16 -16.5 16 -29.5 33 -29.5 33 -16.5 16 -16.5"/><text x="16.854" y="-19.7" fill="#444443" font-family="Helvetica,sans-Serif" font-size="11" text-anchor="start">33</text><polygon fill="#d9e6f5" stroke="transparent" points="5 -14.5 5 -16.5 33 -16.5 33 -14.5 5 -14.5"/><polygon fill="#d9e6f5" stroke="transparent" points="5 -1.5 5 -14.5 16 -14.5 16 -1.5 5 -1.5"/><polyline fill="none" stroke="#444443" points="16 -1.5 16 -14.5"/><text x="5.913" y="-4.7" fill="#444443" font-family="Helvetica,sans-Serif" font-size="11" text-anchor="start">q</text><polygon fill="#d9e6f5" stroke="transparent" points="16 -1.5 16 -14.5 33 -14.5 33 -1.5 16 -1.5"/><text x="17" y="-4.7" fill="#444443" font-family="Helvetica,sans-Serif" font-size="11" text-anchor="start">0</text></g></g></svg>