<svg xmlns="http://www.w3.org/2000/svg" xmlns:xlink="http://www.w3.org/1999/xlink" width="236pt" height="47pt" viewBox="0 0 236 47"><g id="graph0" class="graph" transform="scale(1 1) rotate(0) translate(4 43)"><title>G</title><polygon fill="#fff" stroke="transparent" points="-4 4 -4 -43 232 -43 232 4 -4 4"/><g id="node1" class="node"><title>node4400734760</title><polygon fill="#d9e6f5" stroke="#444443" stroke-width=".5" points="64 -39 0 -39 0 -7 64 -7 64 -39"/><polygon fill="#d9e6f5" stroke="transparent" points="2 -24 2 -37 62 -37 62 -24 2 -24"/><polyline fill="none" stroke="#444443" points="2 -24 62 -24"/><text x="15.803" y="-27.2" fill="#444443" font-family="Times,serif" font-size="11" font-style="italic" text-anchor="start">globals</text><polygon fill="#d9e6f5" stroke="transparent" points="2 -22 2 -24 62 -24 62 -22 2 -22"/><polygon fill="#d9e6f5" stroke="transparent" points="2 -9 2 -22 48 -22 48 -9 2 -9"/><polyline fill="none" stroke="#444443" points="48 -9 48 -22"/><text x="2.989" y="-12.2" fill="#444443" font-family="Helvetica,sans-Serif" font-size="11" text-anchor="start">Quantity</text><polygon fill="#d9e6f5" stroke="transparent" points="48 -9 48 -22 62 -22 62 -9 48 -9"/></g><g id="node2" class="node"><title>node4397861960</title><polygon fill="none" stroke="#000" stroke-width=".5" points="228 -30 72 -30 72 0 228 0 228 -30"/><polygon fill="#fefecd" stroke="transparent" points="73 -18 73 -29 85 -29 85 -18 73 -18"/><polyline fill="none" stroke="#000" points="73 -18 85 -18 85 -29"/><text x="76.497" y="-20.8" fill="#444443" font-family="Helvetica,sans-Serif" font-size="9" text-anchor="start">0</text><polygon fill="#fefecd" stroke="transparent" points="85 -18 85 -29 103 -29 103 -18 85 -18"/><polyline fill="none" stroke="#000" points="85 -18 103 -18 103 -29"/><text x="91.497" y="-20.8" fill="#444443" font-family="Helvetica,sans-Serif" font-size="9" text-anchor="start">1</text><polygon fill="#fefecd" stroke="transparent" points="103 -18 103 -29 121 -29 121 -18 103 -18"/><polyline fill="none" stroke="#000" points="103 -18 121 -18 121 -29"/><text x="109.497" y="-20.8" fill="#444443" font-family="Helvetica,sans-Serif" font-size="9" text-anchor="start">2</text><polygon fill="#fefecd" stroke="transparent" points="121 -18 121 -29 139 -29 139 -18 121 -18"/><polyline fill="none" stroke="#000" points="121 -18 139 -18 139 -29"/><text x="127.497" y="-20.8" fill="#444443" font-family="Helvetica,sans-Serif" font-size="9" text-anchor="start">3</text><polygon fill="#fefecd" stroke="transparent" points="139 -18 139 -29 157 -29 157 -18 139 -18"/><polyline fill="none" stroke="#000" points="139 -18 157 -18 157 -29"/><text x="145.497" y="-20.8" fill="#444443" font-family="Helvetica,sans-Serif" font-size="9" text-anchor="start">4</text><polygon fill="#fefecd" stroke="transparent" points="157 -18 157 -29 175 -29 175 -18 157 -18"/><polyline fill="none" stroke="#000" points="157 -18 175 -18 175 -29"/><text x="163.497" y="-20.8" fill="#444443" font-family="Helvetica,sans-Serif" font-size="9" text-anchor="start">5</text><polygon fill="#fefecd" stroke="transparent" points="175 -18 175 -29 193 -29 193 -18 175 -18"/><polyline fill="none" stroke="#000" points="175 -18 193 -18 193 -29"/><text x="181.497" y="-20.8" fill="#444443" font-family="Helvetica,sans-Serif" font-size="9" text-anchor="start">6</text><polygon fill="#fefecd" stroke="transparent" points="193 -18 193 -29 211 -29 211 -18 193 -18"/><polyline fill="none" stroke="#000" points="193 -18 211 -18 211 -29"/><text x="199.497" y="-20.8" fill="#444443" font-family="Helvetica,sans-Serif" font-size="9" text-anchor="start">7</text><polygon fill="#fefecd" stroke="transparent" points="211 -18 211 -29 227 -29 227 -18 211 -18"/><polyline fill="none" stroke="#000" points="211 -18 227 -18"/><text x="216.497" y="-20.8" fill="#444443" font-family="Helvetica,sans-Serif" font-size="9" text-anchor="start">8</text><polygon fill="#fefecd" stroke="transparent" points="73 -1 73 -18 85 -18 85 -1 73 -1"/><polyline fill="none" stroke="#000" points="85 -1 85 -18"/><text x="75.941" y="-6.2" fill="#444443" font-family="Helvetica,sans-Serif" font-size="11" text-anchor="start">6</text><polygon fill="#fefecd" stroke="transparent" points="85 -1 85 -18 103 -18 103 -1 85 -1"/><polyline fill="none" stroke="#000" points="103 -1 103 -18"/><text x="87.882" y="-6.2" fill="#444443" font-family="Helvetica,sans-Serif" font-size="11" text-anchor="start">49</text><polygon fill="#fefecd" stroke="transparent" points="103 -1 103 -18 121 -18 121 -1 103 -1"/><polyline fill="none" stroke="#000" points="121 -1 121 -18"/><text x="105.882" y="-6.2" fill="#444443" font-family="Helvetica,sans-Serif" font-size="11" text-anchor="start">27</text><polygon fill="#fefecd" stroke="transparent" points="121 -1 121 -18 139 -18 139 -1 121 -1"/><polyline fill="none" stroke="#000" points="139 -1 139 -18"/><text x="123.882" y="-6.2" fill="#444443" font-family="Helvetica,sans-Serif" font-size="11" text-anchor="start">30</text><polygon fill="#fefecd" stroke="transparent" points="139 -1 139 -18 157 -18 157 -1 139 -1"/><polyline fill="none" stroke="#000" points="157 -1 157 -18"/><text x="141.882" y="-6.2" fill="#444443" font-family="Helvetica,sans-Serif" font-size="11" text-anchor="start">19</text><polygon fill="#fefecd" stroke="transparent" points="157 -1 157 -18 175 -18 175 -1 157 -1"/><polyline fill="none" stroke="#000" points="175 -1 175 -18"/><text x="159.882" y="-6.2" fill="#444443" font-family="Helvetica,sans-Serif" font-size="11" text-anchor="start">21</text><polygon fill="#fefecd" stroke="transparent" points="175 -1 175 -18 193 -18 193 -1 175 -1"/><polyline fill="none" stroke="#000" points="193 -1 193 -18"/><text x="177.882" y="-6.2" fill="#444443" font-family="Helvetica,sans-Serif" font-size="11" text-anchor="start">12</text><polygon fill="#fefecd" stroke="transparent" points="193 -1 193 -18 211 -18 211 -1 193 -1"/><polyline fill="none" stroke="#000" points="211 -1 211 -18"/><text x="195.882" y="-6.2" fill="#444443" font-family="Helvetica,sans-Serif" font-size="11" text-anchor="start">22</text><polygon fill="#fefecd" stroke="transparent" points="211 -1 211 -18 227 -18 227 -1 211 -1"/><text x="212.882" y="-6.2" fill="#444443" font-family="Helvetica,sans-Serif" font-size="11" text-anchor="start">21</text></g><g id="edge1" class="edge"><title>node4400734760:c-&gt;node4397861960</title><path fill="none" stroke="#444443" stroke-width=".5" d="M58.6514,-15C60.8986,-15 64.0844,-15 67.9296,-15"/><ellipse cx="56.6" cy="-15" fill="#444443" stroke="#444443" stroke-width=".5" rx="1.6" ry="1.6"/><polygon fill="#444443" stroke="#444443" stroke-width=".5" points="67.984 -16.4 71.984 -15 67.984 -13.6 67.984 -16.4"/></g></g></svg>