<svg xmlns="http://www.w3.org/2000/svg" xmlns:xlink="http://www.w3.org/1999/xlink" width="86pt" height="40pt" viewBox="0 0 86 40"><g id="graph0" class="graph" transform="scale(1 1) rotate(0) translate(4 36)"><title>G</title><polygon fill="#fff" stroke="transparent" points="-4 4 -4 -36 82 -36 82 4 -4 4"/><g id="node1" class="node"><title>node4659646248</title><polygon fill="#fefecd" stroke="#444443" stroke-width=".5" points="78 -32 0 -32 0 0 78 0 78 -32"/><polygon fill="#fefecd" stroke="transparent" points="2 -17 2 -30 76 -30 76 -17 2 -17"/><polyline fill="none" stroke="#444443" points="2 -17 76 -17"/><text x="20.98" y="-20.2" fill="#444443" font-family="Times,serif" font-size="11" font-style="italic" text-anchor="start">Account</text><polygon fill="#fefecd" stroke="transparent" points="2 -15 2 -17 76 -17 76 -15 2 -15"/><polygon fill="#fefecd" stroke="transparent" points="2 -2 2 -15 45 -15 45 -2 2 -2"/><polyline fill="none" stroke="#444443" points="45 -2 45 -15"/><text x="2.706" y="-5.2" fill="#444443" font-family="Helvetica,sans-Serif" font-size="11" text-anchor="start">balance</text><polygon fill="#fefecd" stroke="transparent" points="45 -2 45 -15 76 -15 76 -2 45 -2"/><text x="45.614" y="-5.2" fill="#444443" font-family="Helvetica,sans-Serif" font-size="11" text-anchor="start">115.0</text></g></g></svg>