<svg xmlns="http://www.w3.org/2000/svg" xmlns:xlink="http://www.w3.org/1999/xlink" width="235pt" height="139pt" viewBox="0 0 234.74 139"><g id="graph0" class="graph" transform="scale(1 1) rotate(0) translate(4 135)"><title>G</title><polygon fill="#fff" stroke="transparent" points="-4 4 -4 -135 230.743 -135 230.743 4 -4 4"/><g id="node1" class="node"><title>node4660237000</title><polygon fill="#cfe2d4" stroke="#444443" stroke-width=".5" points="13 -81 0 -81 0 -49 13 -49 13 -81"/><polygon fill="#cfe2d4" stroke="transparent" points="1.5 -65 1.5 -80 12.5 -80 12.5 -65 1.5 -65"/><polyline fill="none" stroke="#444443" points="1.5 -65 12.5 -65"/><text x="4.497" y="-69.8" fill="#444443" font-family="Helvetica,sans-Serif" font-size="9" text-anchor="start">0</text><polygon fill="#cfe2d4" stroke="transparent" points="1.5 -50 1.5 -65 12.5 -65 12.5 -50 1.5 -50"/><text x="4.497" y="-54.8" fill="#444443" font-family="Helvetica,sans-Serif" font-size="9" text-anchor="start">1</text></g><g id="node2" class="node"><title>node4660207288</title><polygon fill="#fefecd" stroke="#444443" stroke-width=".5" points="157.5 -131 43.5 -131 43.5 -69 157.5 -69 157.5 -131"/><polygon fill="#fefecd" stroke="transparent" points="45.5 -116 45.5 -129 155.5 -129 155.5 -116 45.5 -116"/><polyline fill="none" stroke="#444443" points="45.5 -116 155.5 -116"/><text x="89.199" y="-119.2" fill="#444443" font-family="Times,serif" font-size="11" font-style="italic" text-anchor="start">Book</text><polygon fill="#fefecd" stroke="transparent" points="45.5 -114 45.5 -116 155.5 -116 155.5 -114 45.5 -114"/><polygon fill="#fefecd" stroke="transparent" points="45.5 -101 45.5 -114 92.5 -114 92.5 -101 45.5 -101"/><polyline fill="none" stroke="#444443" points="92.5 -101 92.5 -114"/><text x="71.326" y="-104.2" fill="#444443" font-family="Helvetica,sans-Serif" font-size="11" text-anchor="start">title</text><polygon fill="#fefecd" stroke="transparent" points="92.5 -101 92.5 -114 155.5 -114 155.5 -101 92.5 -101"/><text x="93.5" y="-104.2" fill="#444443" font-family="Helvetica,sans-Serif" font-size="11" text-anchor="start">&apos;Gridlinked&apos;</text><polygon fill="#fefecd" stroke="transparent" points="45.5 -99 45.5 -101 155.5 -101 155.5 -99 45.5 -99"/><polygon fill="#fefecd" stroke="transparent" points="45.5 -86 45.5 -99 92.5 -99 92.5 -86 45.5 -86"/><polyline fill="none" stroke="#444443" points="92.5 -86 92.5 -99"/><text x="57.254" y="-89.2" fill="#444443" font-family="Helvetica,sans-Serif" font-size="11" text-anchor="start">author</text><polygon fill="#fefecd" stroke="transparent" points="92.5 -86 92.5 -99 155.5 -99 155.5 -86 92.5 -86"/><text x="93.465" y="-89.2" fill="#444443" font-family="Helvetica,sans-Serif" font-size="11" text-anchor="start">&apos;Neal Asher&apos;</text><polygon fill="#fefecd" stroke="transparent" points="45.5 -84 45.5 -86 155.5 -86 155.5 -84 45.5 -84"/><polygon fill="#fefecd" stroke="transparent" points="45.5 -71 45.5 -84 92.5 -84 92.5 -71 45.5 -71"/><polyline fill="none" stroke="#444443" points="92.5 -71 92.5 -84"/><text x="46.377" y="-74.2" fill="#444443" font-family="Helvetica,sans-Serif" font-size="11" text-anchor="start">chapters</text><polygon fill="#fefecd" stroke="transparent" points="92.5 -71 92.5 -84 155.5 -84 155.5 -71 92.5 -71"/></g><g id="edge1" class="edge"><title>node4660237000:0-&gt;node4660207288:w</title><path fill="none" stroke="#444443" stroke-width=".5" d="M12.5,-73C29.2008,-73 26.0057,-95.5588 39.2869,-99.4361"/><polygon fill="#444443" stroke="#444443" stroke-width=".5" points="39.35 -100.857 43.5 -100 39.721 -98.082 39.35 -100.857"/></g><g id="node4" class="node"><title>node4660207176</title><polygon fill="#fefecd" stroke="#444443" stroke-width=".5" points="166 -62 35 -62 35 0 166 0 166 -62"/><polygon fill="#fefecd" stroke="transparent" points="37.5 -47 37.5 -60 164.5 -60 164.5 -47 37.5 -47"/><polyline fill="none" stroke="#444443" points="37.5 -47 164.5 -47"/><text x="89.699" y="-50.2" fill="#444443" font-family="Times,serif" font-size="11" font-style="italic" text-anchor="start">Book</text><polygon fill="#fefecd" stroke="transparent" points="37.5 -45 37.5 -47 164.5 -47 164.5 -45 37.5 -45"/><polygon fill="#fefecd" stroke="transparent" points="37.5 -32 37.5 -45 84.5 -45 84.5 -32 37.5 -32"/><polyline fill="none" stroke="#444443" points="84.5 -32 84.5 -45"/><text x="63.326" y="-35.2" fill="#444443" font-family="Helvetica,sans-Serif" font-size="11" text-anchor="start">title</text><polygon fill="#fefecd" stroke="transparent" points="84.5 -32 84.5 -45 164.5 -45 164.5 -32 84.5 -32"/><text x="85.5" y="-35.2" fill="#444443" font-family="Helvetica,sans-Serif" font-size="11" text-anchor="start">&apos;David Brin&apos;</text><polygon fill="#fefecd" stroke="transparent" points="37.5 -30 37.5 -32 164.5 -32 164.5 -30 37.5 -30"/><polygon fill="#fefecd" stroke="transparent" points="37.5 -17 37.5 -30 84.5 -30 84.5 -17 37.5 -17"/><polyline fill="none" stroke="#444443" points="84.5 -17 84.5 -30"/><text x="49.254" y="-20.2" fill="#444443" font-family="Helvetica,sans-Serif" font-size="11" text-anchor="start">author</text><polygon fill="#fefecd" stroke="transparent" points="84.5 -17 84.5 -30 164.5 -30 164.5 -17 84.5 -17"/><text x="85.106" y="-20.2" fill="#444443" font-family="Helvetica,sans-Serif" font-size="11" text-anchor="start">&apos;Startide Rising&apos;</text><polygon fill="#fefecd" stroke="transparent" points="37.5 -15 37.5 -17 164.5 -17 164.5 -15 37.5 -15"/><polygon fill="#fefecd" stroke="transparent" points="37.5 -2 37.5 -15 84.5 -15 84.5 -2 37.5 -2"/><polyline fill="none" stroke="#444443" points="84.5 -2 84.5 -15"/><text x="38.377" y="-5.2" fill="#444443" font-family="Helvetica,sans-Serif" font-size="11" text-anchor="start">chapters</text><polygon fill="#fefecd" stroke="transparent" points="84.5 -2 84.5 -15 164.5 -15 164.5 -2 84.5 -2"/></g><g id="edge2" class="edge"><title>node4660237000:1-&gt;node4660207176:w</title><path fill="none" stroke="#444443" stroke-width=".5" d="M12.5,-57C26.2297,-57 21.1154,-36.0131 31.0174,-31.7501"/><polygon fill="#444443" stroke="#444443" stroke-width=".5" points="31.328 -33.116 35 -31 30.81 -30.365 31.328 -33.116"/></g><g id="node3" class="node"><title>node4660184264</title><text x="190" y="-74.3" fill="#444443" font-family="Times,serif" font-size="9" font-style="italic" text-anchor="start">empty list</text></g><g id="edge3" class="edge"><title>node4660207288:c-&gt;node4660184264</title><path fill="none" stroke="#444443" stroke-width=".5" d="M127.9439,-77C137.293,-77 163.7753,-77 183.6093,-77"/><ellipse cx="126.1" cy="-77" fill="#444443" stroke="#444443" stroke-width=".5" rx="1.6" ry="1.6"/><polygon fill="#444443" stroke="#444443" stroke-width=".5" points="183.732 -78.4 187.732 -77 183.732 -75.6 183.732 -78.4"/></g><g id="node5" class="node"><title>node4660186312</title><text x="190" y="-5.3" fill="#444443" font-family="Times,serif" font-size="9" font-style="italic" text-anchor="start">empty list</text></g><g id="edge4" class="edge"><title>node4660207176:c-&gt;node4660186312</title><path fill="none" stroke="#444443" stroke-width=".5" d="M127.9439,-8C137.293,-8 163.7753,-8 183.6093,-8"/><ellipse cx="126.1" cy="-8" fill="#444443" stroke="#444443" stroke-width=".5" rx="1.6" ry="1.6"/><polygon fill="#444443" stroke="#444443" stroke-width=".5" points="183.732 -9.4 187.732 -8 183.732 -6.6 183.732 -9.4"/></g></g></svg>