<svg xmlns="http://www.w3.org/2000/svg" xmlns:xlink="http://www.w3.org/1999/xlink" width="97pt" height="55pt" viewBox="0 0 97 55"><g id="graph0" class="graph" transform="scale(1 1) rotate(0) translate(4 51)"><title>G</title><polygon fill="#fff" stroke="transparent" points="-4 4 -4 -51 93 -51 93 4 -4 4"/><g id="node1" class="node"><title>node4660203760</title><polygon fill="#fefecd" stroke="#444443" stroke-width=".5" points="89 -47 0 -47 0 0 89 0 89 -47"/><polygon fill="#fefecd" stroke="transparent" points="2.5 -31.5 2.5 -44.5 87.5 -44.5 87.5 -31.5 2.5 -31.5"/><polyline fill="none" stroke="#444443" points="2.5 -31.5 87.5 -31.5"/><text x="3.353" y="-34.7" fill="#444443" font-family="Times,serif" font-size="11" font-style="italic" text-anchor="start">InterestingAccount</text><polygon fill="#fefecd" stroke="transparent" points="2.5 -29.5 2.5 -31.5 87.5 -31.5 87.5 -29.5 2.5 -29.5"/><polygon fill="#fefecd" stroke="transparent" points="2.5 -16.5 2.5 -29.5 50.5 -29.5 50.5 -16.5 2.5 -16.5"/><polyline fill="none" stroke="#444443" points="50.5 -16.5 50.5 -29.5"/><text x="7.912" y="-19.7" fill="#444443" font-family="Helvetica,sans-Serif" font-size="11" text-anchor="start">balance</text><polygon fill="#fefecd" stroke="transparent" points="53.5 -16.5 53.5 -29.5 87.5 -29.5 87.5 -16.5 53.5 -16.5"/><text x="54.5" y="-19.7" fill="#444443" font-family="Helvetica,sans-Serif" font-size="11" text-anchor="start">115.0</text><polygon fill="#fefecd" stroke="transparent" points="2.5 -14.5 2.5 -16.5 87.5 -16.5 87.5 -14.5 2.5 -14.5"/><polygon fill="#fefecd" stroke="transparent" points="2.5 -1.5 2.5 -14.5 50.5 -14.5 50.5 -1.5 2.5 -1.5"/><polyline fill="none" stroke="#444443" points="50.5 -1.5 50.5 -14.5"/><text x="27.489" y="-4.7" fill="#444443" font-family="Helvetica,sans-Serif" font-size="11" text-anchor="start">rate</text><polygon fill="#fefecd" stroke="transparent" points="53.5 -1.5 53.5 -14.5 87.5 -14.5 87.5 -1.5 53.5 -1.5"/><text x="54.5" y="-4.7" fill="#444443" font-family="Helvetica,sans-Serif" font-size="11" text-anchor="start">0.15</text></g></g></svg>