<svg xmlns="http://www.w3.org/2000/svg" xmlns:xlink="http://www.w3.org/1999/xlink" width="148" height="55pt" viewBox="0 0 111 55"><g id="graph0" class="graph" transform="scale(1 1) rotate(0) translate(4 51)"><title>G</title><polygon fill="#fff" stroke="transparent" points="-4 4 -4 -51 107 -51 107 4 -4 4"/><g id="node1" class="node"><title>node4660207568</title><polygon fill="#fefecd" stroke="#444443" stroke-width=".5" points="103 -47 0 -47 0 0 103 0 103 -47"/><polygon fill="#fefecd" stroke="transparent" points="2.5 -31.5 2.5 -44.5 101.5 -44.5 101.5 -31.5 2.5 -31.5"/><polyline fill="none" stroke="#444443" points="2.5 -31.5 101.5 -31.5"/><text x="40.699" y="-34.7" fill="#444443" font-family="Times,serif" font-size="11" font-style="italic" text-anchor="start">Book</text><polygon fill="#fefecd" stroke="transparent" points="2.5 -29.5 2.5 -31.5 101.5 -31.5 101.5 -29.5 2.5 -29.5"/><polygon fill="#fefecd" stroke="transparent" points="2.5 -16.5 2.5 -29.5 38.5 -29.5 38.5 -16.5 2.5 -16.5"/><polyline fill="none" stroke="#444443" points="38.5 -16.5 38.5 -29.5"/><text x="17.326" y="-19.7" fill="#444443" font-family="Helvetica,sans-Serif" font-size="11" text-anchor="start">title</text><polygon fill="#fefecd" stroke="transparent" points="38.5 -16.5 38.5 -29.5 101.5 -29.5 101.5 -16.5 38.5 -16.5"/><text x="39.5" y="-19.7" fill="#444443" font-family="Helvetica,sans-Serif" font-size="11" text-anchor="start">&apos;Gridlinked&apos;</text><polygon fill="#fefecd" stroke="transparent" points="2.5 -14.5 2.5 -16.5 101.5 -16.5 101.5 -14.5 2.5 -14.5"/><polygon fill="#fefecd" stroke="transparent" points="2.5 -1.5 2.5 -14.5 38.5 -14.5 38.5 -1.5 2.5 -1.5"/><polyline fill="none" stroke="#444443" points="38.5 -1.5 38.5 -14.5"/><text x="3.377" y="-4.7" fill="#444443" font-family="Helvetica,sans-Serif" font-size="11" text-anchor="start">author</text><polygon fill="#fefecd" stroke="transparent" points="38.5 -1.5 38.5 -14.5 101.5 -14.5 101.5 -1.5 38.5 -1.5"/><text x="39.465" y="-4.7" fill="#444443" font-family="Helvetica,sans-Serif" font-size="11" text-anchor="start">&apos;Neal Asher&apos;</text></g></g></svg>