<svg xmlns="http://www.w3.org/2000/svg" xmlns:xlink="http://www.w3.org/1999/xlink" width="184pt" height="100" viewBox="0 0 184 75"><g id="graph0" class="graph" transform="scale(1 1) rotate(0) translate(4 71)"><title>G</title><polygon fill="#fff" stroke="transparent" points="-4 4 -4 -71 180 -71 180 4 -4 4"/><g id="node1" class="node"><title>node4660184264</title><polygon fill="#cfe2d4" stroke="#444443" stroke-width=".5" points="13 -49 0 -49 0 -17 13 -17 13 -49"/><polygon fill="#cfe2d4" stroke="transparent" points="1.5 -33 1.5 -48 12.5 -48 12.5 -33 1.5 -33"/><polyline fill="none" stroke="#444443" points="1.5 -33 12.5 -33"/><text x="4.497" y="-37.8" fill="#444443" font-family="Helvetica,sans-Serif" font-size="9" text-anchor="start">0</text><polygon fill="#cfe2d4" stroke="transparent" points="1.5 -18 1.5 -33 12.5 -33 12.5 -18 1.5 -18"/><text x="4.497" y="-22.8" fill="#444443" font-family="Helvetica,sans-Serif" font-size="9" text-anchor="start">1</text></g><g id="node2" class="node"><title>node4659494024</title><polygon fill="none" stroke="#000" stroke-width=".5" points="167 -67 44 -67 44 -37 167 -37 167 -67"/><polygon fill="#fefecd" stroke="transparent" points="45.5 -55 45.5 -66 104.5 -66 104.5 -55 45.5 -55"/><polyline fill="none" stroke="#000" points="45.5 -55 104.5 -55 104.5 -66"/><text x="72.497" y="-57.8" fill="#444443" font-family="Helvetica,sans-Serif" font-size="9" text-anchor="start">0</text><polygon fill="#fefecd" stroke="transparent" points="104.5 -55 104.5 -66 166.5 -66 166.5 -55 104.5 -55"/><polyline fill="none" stroke="#000" points="104.5 -55 166.5 -55"/><text x="132.997" y="-57.8" fill="#444443" font-family="Helvetica,sans-Serif" font-size="9" text-anchor="start">1</text><polygon fill="#fefecd" stroke="transparent" points="45.5 -38 45.5 -55 104.5 -55 104.5 -38 45.5 -38"/><polyline fill="none" stroke="#000" points="104.5 -38 104.5 -55"/><text x="48.139" y="-43.2" fill="#444443" font-family="Helvetica,sans-Serif" font-size="11" text-anchor="start">&apos;Gridlinked&apos;</text><polygon fill="#fefecd" stroke="transparent" points="104.5 -38 104.5 -55 166.5 -55 166.5 -38 104.5 -38"/><text x="106.493" y="-43.2" fill="#444443" font-family="Helvetica,sans-Serif" font-size="11" text-anchor="start">&apos;Neal Asher&apos;</text></g><g id="edge1" class="edge"><title>node4660184264:0-&gt;node4659494024:w</title><path fill="none" stroke="#444443" stroke-width=".5" d="M12.5,-41C25.6347,-41 28.3902,-49.8791 39.4166,-51.6827"/><polygon fill="#444443" stroke="#444443" stroke-width=".5" points="39.404 -53.086 43.5 -52 39.62 -50.294 39.404 -53.086"/></g><g id="node3" class="node"><title>node4659494280</title><polygon fill="none" stroke="#000" stroke-width=".5" points="176 -30 35 -30 35 0 176 0 176 -30"/><polygon fill="#fefecd" stroke="transparent" points="36.5 -18 36.5 -29 117.5 -29 117.5 -18 36.5 -18"/><polyline fill="none" stroke="#000" points="36.5 -18 117.5 -18 117.5 -29"/><text x="74.497" y="-20.8" fill="#444443" font-family="Helvetica,sans-Serif" font-size="9" text-anchor="start">0</text><polygon fill="#fefecd" stroke="transparent" points="117.5 -18 117.5 -29 175.5 -29 175.5 -18 117.5 -18"/><polyline fill="none" stroke="#000" points="117.5 -18 175.5 -18"/><text x="143.997" y="-20.8" fill="#444443" font-family="Helvetica,sans-Serif" font-size="9" text-anchor="start">1</text><polygon fill="#fefecd" stroke="transparent" points="36.5 -1 36.5 -18 117.5 -18 117.5 -1 36.5 -1"/><polyline fill="none" stroke="#000" points="117.5 -1 117.5 -18"/><text x="39.134" y="-6.2" fill="#444443" font-family="Helvetica,sans-Serif" font-size="11" text-anchor="start">&apos;Startide Rising&apos;</text><polygon fill="#fefecd" stroke="transparent" points="117.5 -1 117.5 -18 175.5 -18 175.5 -1 117.5 -1"/><text x="119.029" y="-6.2" fill="#444443" font-family="Helvetica,sans-Serif" font-size="11" text-anchor="start">&apos;David Brin&apos;</text></g><g id="edge2" class="edge"><title>node4660184264:1-&gt;node4659494280:w</title><path fill="none" stroke="#444443" stroke-width=".5" d="M12.5,-25C21.9043,-25 23.68,-17.6147 30.9387,-15.5376"/><polygon fill="#444443" stroke="#444443" stroke-width=".5" points="31.218 -16.913 35 -15 30.851 -14.137 31.218 -16.913"/></g></g></svg>