<svg xmlns="http://www.w3.org/2000/svg" xmlns:xlink="http://www.w3.org/1999/xlink" width="308pt" height="26pt" viewBox="0 0 308 26"><g id="graph0" class="graph" transform="scale(1 1) rotate(0) translate(4 22)"><title>G</title><polygon fill="#fff" stroke="transparent" points="-4 4 -4 -22 304 -22 304 4 -4 4"/><g id="node1" class="node"><title>node4589648272</title><polygon fill="none" stroke="#000" stroke-width=".5" points="300 -18 0 -18 0 0 300 0 300 -18"/><polygon fill="#fefecd" stroke="transparent" points="1 -1 1 -17 32 -17 32 -1 1 -1"/><text x="3.988" y="-6" fill="#444443" font-family="Helvetica,sans-Serif" font-size="10" text-anchor="start">0.605</text><polygon fill="#fefecd" stroke="transparent" points="32 -1 32 -17 51 -17 51 -1 32 -1"/><text x="34.549" y="-6" fill="#444443" font-family="Helvetica,sans-Serif" font-size="10" text-anchor="start">0.6</text><polygon fill="#fefecd" stroke="transparent" points="51 -1 51 -17 82 -17 82 -1 51 -1"/><text x="53.988" y="-6" fill="#444443" font-family="Helvetica,sans-Serif" font-size="10" text-anchor="start">0.594</text><polygon fill="#fefecd" stroke="transparent" points="82 -1 82 -17 113 -17 113 -1 82 -1"/><text x="84.988" y="-6" fill="#444443" font-family="Helvetica,sans-Serif" font-size="10" text-anchor="start">0.592</text><polygon fill="#fefecd" stroke="transparent" points="113 -1 113 -17 132 -17 132 -1 113 -1"/><text x="115.549" y="-6" fill="#444443" font-family="Helvetica,sans-Serif" font-size="10" text-anchor="start">0.6</text><polygon fill="#fefecd" stroke="transparent" points="132 -1 132 -17 144 -17 144 -1 132 -1"/><text x="133.833" y="-6" fill="#444443" font-family="Helvetica,sans-Serif" font-size="10" text-anchor="start">...</text><polygon fill="#fefecd" stroke="transparent" points="144 -1 144 -17 175 -17 175 -1 144 -1"/><text x="146.988" y="-6" fill="#444443" font-family="Helvetica,sans-Serif" font-size="10" text-anchor="start">2.009</text><polygon fill="#fefecd" stroke="transparent" points="175 -1 175 -17 206 -17 206 -1 175 -1"/><text x="177.988" y="-6" fill="#444443" font-family="Helvetica,sans-Serif" font-size="10" text-anchor="start">2.041</text><polygon fill="#fefecd" stroke="transparent" points="206 -1 206 -17 237 -17 237 -1 206 -1"/><text x="208.988" y="-6" fill="#444443" font-family="Helvetica,sans-Serif" font-size="10" text-anchor="start">1.939</text><polygon fill="#fefecd" stroke="transparent" points="237 -1 237 -17 268 -17 268 -1 237 -1"/><text x="239.988" y="-6" fill="#444443" font-family="Helvetica,sans-Serif" font-size="10" text-anchor="start">1.898</text><polygon fill="#fefecd" stroke="transparent" points="268 -1 268 -17 299 -17 299 -1 268 -1"/><text x="270.988" y="-6" fill="#444443" font-family="Helvetica,sans-Serif" font-size="10" text-anchor="start">1.891</text></g></g></svg>