<svg xmlns="http://www.w3.org/2000/svg" xmlns:xlink="http://www.w3.org/1999/xlink" width="97pt" height="140" viewBox="0 0 97 105"><g id="graph0" class="graph" transform="scale(1 1) rotate(0) translate(4 101)"><title>G</title><polygon fill="#fff" stroke="transparent" points="-4 4 -4 -101 93 -101 93 4 -4 4"/><g id="node1" class="node"><title>node4716907400</title><polygon fill="#d9e6f5" stroke="#444443" stroke-width=".5" points="89 -97 0 -97 0 -35 89 -35 89 -97"/><polygon fill="#d9e6f5" stroke="transparent" points="2.5 -82 2.5 -95 87.5 -95 87.5 -82 2.5 -82"/><polyline fill="none" stroke="#444443" points="2.5 -82 87.5 -82"/><text x="28.803" y="-85.2" fill="#444443" font-family="Times,serif" font-size="11" font-style="italic" text-anchor="start">globals</text><polygon fill="#d9e6f5" stroke="transparent" points="2.5 -80 2.5 -82 87.5 -82 87.5 -80 2.5 -80"/><polygon fill="#d9e6f5" stroke="transparent" points="2.5 -67 2.5 -80 21.5 -80 21.5 -67 2.5 -67"/><polyline fill="none" stroke="#444443" points="21.5 -67 21.5 -80"/><text x="11.326" y="-70.2" fill="#444443" font-family="Helvetica,sans-Serif" font-size="11" text-anchor="start">a</text><polygon fill="#d9e6f5" stroke="transparent" points="21.5 -67 21.5 -80 87.5 -80 87.5 -67 21.5 -67"/><text x="22.5" y="-70.2" fill="#444443" font-family="Helvetica,sans-Serif" font-size="11" text-anchor="start">16807</text><polygon fill="#d9e6f5" stroke="transparent" points="2.5 -65 2.5 -67 87.5 -67 87.5 -65 2.5 -65"/><polygon fill="#d9e6f5" stroke="transparent" points="2.5 -52 2.5 -65 21.5 -65 21.5 -52 2.5 -52"/><polyline fill="none" stroke="#444443" points="21.5 -52 21.5 -65"/><text x="8.281" y="-55.2" fill="#444443" font-family="Helvetica,sans-Serif" font-size="11" text-anchor="start">m</text><polygon fill="#d9e6f5" stroke="transparent" points="21.5 -52 21.5 -65 87.5 -65 87.5 -52 21.5 -52"/><text x="22.384" y="-55.2" fill="#444443" font-family="Helvetica,sans-Serif" font-size="11" text-anchor="start">2147483647</text><polygon fill="#d9e6f5" stroke="transparent" points="2.5 -50 2.5 -52 87.5 -52 87.5 -50 2.5 -50"/><polygon fill="#d9e6f5" stroke="transparent" points="2.5 -37 2.5 -50 21.5 -50 21.5 -37 2.5 -37"/><polyline fill="none" stroke="#444443" points="21.5 -37 21.5 -50"/><text x="3.441" y="-40.2" fill="#444443" font-family="Helvetica,sans-Serif" font-size="11" text-anchor="start">x_i</text><polygon fill="#d9e6f5" stroke="transparent" points="21.5 -37 21.5 -50 87.5 -50 87.5 -37 21.5 -37"/><text x="22.5" y="-40.2" fill="#444443" font-family="Helvetica,sans-Serif" font-size="11" text-anchor="start">11193462</text></g><g id="node2" class="node"><title>node4716906920</title><polygon fill="#d9e6f5" stroke="#444443" stroke-width=".5" points="63.5 -28 25.5 -28 25.5 0 63.5 0 63.5 -28"/><polygon fill="#d9e6f5" stroke="transparent" points="27.5 -13 27.5 -26 61.5 -26 61.5 -13 27.5 -13"/><polyline fill="none" stroke="#444443" points="27.5 -13 61.5 -13"/><text x="28.303" y="-16.2" fill="#444443" font-family="Times,serif" font-size="11" font-style="italic" text-anchor="start">runif01</text><polygon fill="#d9e6f5" stroke="transparent" points="27.5 -11 27.5 -13 61.5 -13 61.5 -11 27.5 -11"/><text x="32.749" y="-3.8" fill="#444443" font-family="Helvetica,sans-Serif" font-size="9" text-anchor="start">...</text></g></g></svg>