<svg xmlns="http://www.w3.org/2000/svg" xmlns:xlink="http://www.w3.org/1999/xlink" width="157pt" height="211pt" viewBox="0 0 156.5 211"><g id="graph0" class="graph" transform="scale(1 1) rotate(0) translate(4 207)"><title>G</title><polygon fill="#fff" stroke="transparent" points="-4 4 -4 -207 152.5 -207 152.5 4 -4 4"/><g id="node1" class="node"><title>node4398310848</title><polygon fill="#fefecd" stroke="#444443" stroke-width=".5" points="116 -203 50 -203 50 -150 116 -150 116 -203"/><polygon fill="#fefecd" stroke="transparent" points="52 -187.5 52 -200.5 114 -200.5 114 -187.5 52 -187.5"/><polyline fill="none" stroke="#444443" points="52 -187.5 114 -187.5"/><text x="68.332" y="-190.7" fill="#444443" font-family="Times,serif" font-size="11" font-style="italic" text-anchor="start">TNode</text><polygon fill="#fefecd" stroke="transparent" points="52 -185.5 52 -187.5 114 -187.5 114 -185.5 52 -185.5"/><polygon fill="#fefecd" stroke="transparent" points="52 -172.5 52 -185.5 83 -185.5 83 -172.5 52 -172.5"/><polyline fill="none" stroke="#444443" points="83 -172.5 83 -185.5"/><text x="52.824" y="-175.7" fill="#444443" font-family="Helvetica,sans-Serif" font-size="11" text-anchor="start">value</text><polygon fill="#fefecd" stroke="transparent" points="83 -172.5 83 -185.5 114 -185.5 114 -172.5 83 -172.5"/><text x="83.864" y="-175.7" fill="#444443" font-family="Helvetica,sans-Serif" font-size="11" text-anchor="start">&apos;Paul&apos;</text><polyline fill="none" stroke="#444443" points="52 -169.5 114 -169.5"/><polygon fill="#fefecd" stroke="transparent" points="52 -167.5 52 -169.5 114 -169.5 114 -167.5 52 -167.5"/><polygon fill="#fefecd" stroke="transparent" points="52 -159.5 52 -167.5 83 -167.5 83 -159.5 52 -159.5"/><polyline fill="none" stroke="#444443" points="83 -159.5 83 -167.5"/><text x="53" y="-161.7" fill="#444443" font-family="Helvetica,sans-Serif" font-size="6" text-anchor="start">left</text><polygon fill="#fefecd" stroke="transparent" points="83 -159.5 83 -167.5 83 -167.5 83 -159.5 83 -159.5"/><polygon fill="#fefecd" stroke="transparent" points="83 -159.5 83 -167.5 114 -167.5 114 -159.5 83 -159.5"/><text x="101.328" y="-161.7" fill="#444443" font-family="Helvetica,sans-Serif" font-size="6" text-anchor="start">right</text><polygon fill="#fefecd" stroke="transparent" points="52 -156.5 52 -159.5 83 -159.5 83 -156.5 52 -156.5"/><polyline fill="none" stroke="#444443" points="83 -156.5 83 -159.5"/><polygon fill="#fefecd" stroke="transparent" points="83 -156.5 83 -159.5 83 -159.5 83 -156.5 83 -156.5"/><polygon fill="#fefecd" stroke="transparent" points="83 -156.5 83 -159.5 114 -159.5 114 -156.5 83 -156.5"/><polygon fill="#fefecd" stroke="transparent" points="52 -151.5 52 -156.5 83 -156.5 83 -151.5 52 -151.5"/><polyline fill="none" stroke="#444443" points="83 -151.5 83 -156.5"/><polygon fill="#fefecd" stroke="transparent" points="83 -151.5 83 -156.5 83 -156.5 83 -151.5 83 -151.5"/><polygon fill="#fefecd" stroke="transparent" points="83 -151.5 83 -156.5 114 -156.5 114 -151.5 83 -151.5"/></g><g id="node2" class="node"><title>node4398311408</title><polygon fill="#fefecd" stroke="#444443" stroke-width=".5" points="99 -128 35 -128 35 -75 99 -75 99 -128"/><polygon fill="#fefecd" stroke="transparent" points="37 -112.5 37 -125.5 97 -125.5 97 -112.5 37 -112.5"/><polyline fill="none" stroke="#444443" points="37 -112.5 97 -112.5"/><text x="52.331" y="-115.7" fill="#444443" font-family="Times,serif" font-size="11" font-style="italic" text-anchor="start">TNode</text><polygon fill="#fefecd" stroke="transparent" points="37 -110.5 37 -112.5 97 -112.5 97 -110.5 37 -110.5"/><polygon fill="#fefecd" stroke="transparent" points="37 -97.5 37 -110.5 68 -110.5 68 -97.5 37 -97.5"/><polyline fill="none" stroke="#444443" points="68 -97.5 68 -110.5"/><text x="37.824" y="-100.7" fill="#444443" font-family="Helvetica,sans-Serif" font-size="11" text-anchor="start">value</text><polygon fill="#fefecd" stroke="transparent" points="68 -97.5 68 -110.5 97 -110.5 97 -97.5 68 -97.5"/><text x="68.782" y="-100.7" fill="#444443" font-family="Helvetica,sans-Serif" font-size="11" text-anchor="start">&apos;Don&apos;</text><polyline fill="none" stroke="#444443" points="37 -94.5 97 -94.5"/><polygon fill="#fefecd" stroke="transparent" points="37 -92.5 37 -94.5 97 -94.5 97 -92.5 37 -92.5"/><polygon fill="#fefecd" stroke="transparent" points="37 -84.5 37 -92.5 68 -92.5 68 -84.5 37 -84.5"/><polyline fill="none" stroke="#444443" points="68 -84.5 68 -92.5"/><text x="38" y="-86.7" fill="#444443" font-family="Helvetica,sans-Serif" font-size="6" text-anchor="start">left</text><polygon fill="#fefecd" stroke="transparent" points="68 -84.5 68 -92.5 68 -92.5 68 -84.5 68 -84.5"/><polygon fill="#fefecd" stroke="transparent" points="68 -84.5 68 -92.5 97 -92.5 97 -84.5 68 -84.5"/><text x="84.328" y="-86.7" fill="#444443" font-family="Helvetica,sans-Serif" font-size="6" text-anchor="start">right</text><polygon fill="#fefecd" stroke="transparent" points="37 -81.5 37 -84.5 68 -84.5 68 -81.5 37 -81.5"/><polyline fill="none" stroke="#444443" points="68 -81.5 68 -84.5"/><polygon fill="#fefecd" stroke="transparent" points="68 -81.5 68 -84.5 68 -84.5 68 -81.5 68 -81.5"/><polygon fill="#fefecd" stroke="transparent" points="68 -81.5 68 -84.5 97 -84.5 97 -81.5 68 -81.5"/><polygon fill="#fefecd" stroke="transparent" points="37 -76.5 37 -81.5 68 -81.5 68 -76.5 37 -76.5"/><polyline fill="none" stroke="#444443" points="68 -76.5 68 -81.5"/><polygon fill="#fefecd" stroke="transparent" points="68 -76.5 68 -81.5 68 -81.5 68 -76.5 68 -76.5"/><polygon fill="#fefecd" stroke="transparent" points="68 -76.5 68 -81.5 97 -81.5 97 -76.5 68 -76.5"/></g><g id="edge1" class="edge"><title>node4398310848:c-&gt;node4398311408</title><path fill="none" stroke="#444443" stroke-width=".5" d="M67,-153.9651C67,-149.4411 67,-141.1454 67,-132.4652"/><ellipse cx="67" cy="-155.9" fill="#444443" stroke="#444443" stroke-width=".5" rx="1.6" ry="1.6"/><polygon fill="#444443" stroke="#444443" stroke-width=".5" points="68.4 -132.188 67 -128.188 65.6 -132.188 68.4 -132.188"/></g><g id="node3" class="node"><title>node4398312584</title><polygon fill="#fefecd" stroke="#444443" stroke-width=".5" points="58 -53 0 -53 0 0 58 0 58 -53"/><polygon fill="#fefecd" stroke="transparent" points="2 -37.5 2 -50.5 56 -50.5 56 -37.5 2 -37.5"/><polyline fill="none" stroke="#444443" points="2 -37.5 56 -37.5"/><text x="14.332" y="-40.7" fill="#444443" font-family="Times,serif" font-size="11" font-style="italic" text-anchor="start">TNode</text><polygon fill="#fefecd" stroke="transparent" points="2 -35.5 2 -37.5 56 -37.5 56 -35.5 2 -35.5"/><polygon fill="#fefecd" stroke="transparent" points="2 -22.5 2 -35.5 33 -35.5 33 -22.5 2 -22.5"/><polyline fill="none" stroke="#444443" points="33 -22.5 33 -35.5"/><text x="2.824" y="-25.7" fill="#444443" font-family="Helvetica,sans-Serif" font-size="11" text-anchor="start">value</text><polygon fill="#fefecd" stroke="transparent" points="33 -22.5 33 -35.5 56 -35.5 56 -22.5 33 -22.5"/><text x="33.841" y="-25.7" fill="#444443" font-family="Helvetica,sans-Serif" font-size="11" text-anchor="start">&apos;Liz&apos;</text><polyline fill="none" stroke="#444443" points="2 -19.5 56 -19.5"/><polygon fill="#fefecd" stroke="transparent" points="2 -17.5 2 -19.5 56 -19.5 56 -17.5 2 -17.5"/><polygon fill="#fefecd" stroke="transparent" points="2 -9.5 2 -17.5 33 -17.5 33 -9.5 2 -9.5"/><polyline fill="none" stroke="#444443" points="33 -9.5 33 -17.5"/><text x="3" y="-11.7" fill="#444443" font-family="Helvetica,sans-Serif" font-size="6" text-anchor="start">left</text><polygon fill="#fefecd" stroke="transparent" points="33 -9.5 33 -17.5 33 -17.5 33 -9.5 33 -9.5"/><polygon fill="#fefecd" stroke="transparent" points="33 -9.5 33 -17.5 56 -17.5 56 -9.5 33 -9.5"/><text x="43.328" y="-11.7" fill="#444443" font-family="Helvetica,sans-Serif" font-size="6" text-anchor="start">right</text><polygon fill="#fefecd" stroke="transparent" points="2 -6.5 2 -9.5 33 -9.5 33 -6.5 2 -6.5"/><polyline fill="none" stroke="#444443" points="33 -6.5 33 -9.5"/><polygon fill="#fefecd" stroke="transparent" points="33 -6.5 33 -9.5 33 -9.5 33 -6.5 33 -6.5"/><polygon fill="#fefecd" stroke="transparent" points="33 -6.5 33 -9.5 56 -9.5 56 -6.5 33 -6.5"/><polygon fill="#fefecd" stroke="transparent" points="2 -1.5 2 -6.5 33 -6.5 33 -1.5 2 -1.5"/><polyline fill="none" stroke="#444443" points="33 -1.5 33 -6.5"/><polygon fill="#fefecd" stroke="transparent" points="33 -1.5 33 -6.5 33 -6.5 33 -1.5 33 -1.5"/><polygon fill="#fefecd" stroke="transparent" points="33 -1.5 33 -6.5 56 -6.5 56 -1.5 33 -1.5"/></g><g id="edge2" class="edge"><title>node4398311408:c-&gt;node4398312584</title><path fill="none" stroke="#444443" stroke-width=".5" d="M50.6892,-79.3084C48.8397,-74.8052 45.273,-66.1212 41.5578,-57.0756"/><ellipse cx="51.392" cy="-81.02" fill="#444443" stroke="#444443" stroke-width=".5" rx="1.6" ry="1.6"/><polygon fill="#444443" stroke="#444443" stroke-width=".5" points="42.776 -56.356 39.961 -53.188 40.186 -57.42 42.776 -56.356"/></g><g id="node4" class="node"><title>node4398311352</title><polygon fill="#fefecd" stroke="#444443" stroke-width=".5" points="148.5 -53 65.5 -53 65.5 0 148.5 0 148.5 -53"/><polygon fill="#fefecd" stroke="transparent" points="68 -37.5 68 -50.5 147 -50.5 147 -37.5 68 -37.5"/><polyline fill="none" stroke="#444443" points="68 -37.5 147 -37.5"/><text x="92.832" y="-40.7" fill="#444443" font-family="Times,serif" font-size="11" font-style="italic" text-anchor="start">TNode</text><polygon fill="#fefecd" stroke="transparent" points="68 -35.5 68 -37.5 147 -37.5 147 -35.5 68 -35.5"/><polygon fill="#fefecd" stroke="transparent" points="68 -22.5 68 -35.5 99 -35.5 99 -22.5 68 -22.5"/><polyline fill="none" stroke="#444443" points="99 -22.5 99 -35.5"/><text x="68.823" y="-25.7" fill="#444443" font-family="Helvetica,sans-Serif" font-size="11" text-anchor="start">value</text><polygon fill="#fefecd" stroke="transparent" points="99 -22.5 99 -35.5 147 -35.5 147 -22.5 99 -22.5"/><text x="99.81" y="-25.7" fill="#444443" font-family="Helvetica,sans-Serif" font-size="11" text-anchor="start">&apos;Marcelo&apos;</text><polyline fill="none" stroke="#444443" points="68 -19.5 147 -19.5"/><polygon fill="#fefecd" stroke="transparent" points="68 -17.5 68 -19.5 147 -19.5 147 -17.5 68 -17.5"/><polygon fill="#fefecd" stroke="transparent" points="68 -9.5 68 -17.5 99 -17.5 99 -9.5 68 -9.5"/><polyline fill="none" stroke="#444443" points="99 -9.5 99 -17.5"/><text x="69" y="-11.7" fill="#444443" font-family="Helvetica,sans-Serif" font-size="6" text-anchor="start">left</text><polygon fill="#fefecd" stroke="transparent" points="99 -9.5 99 -17.5 99 -17.5 99 -9.5 99 -9.5"/><polygon fill="#fefecd" stroke="transparent" points="99 -9.5 99 -17.5 147 -17.5 147 -9.5 99 -9.5"/><text x="134.328" y="-11.7" fill="#444443" font-family="Helvetica,sans-Serif" font-size="6" text-anchor="start">right</text><polygon fill="#fefecd" stroke="transparent" points="68 -6.5 68 -9.5 99 -9.5 99 -6.5 68 -6.5"/><polyline fill="none" stroke="#444443" points="99 -6.5 99 -9.5"/><polygon fill="#fefecd" stroke="transparent" points="99 -6.5 99 -9.5 99 -9.5 99 -6.5 99 -6.5"/><polygon fill="#fefecd" stroke="transparent" points="99 -6.5 99 -9.5 147 -9.5 147 -6.5 99 -6.5"/><polygon fill="#fefecd" stroke="transparent" points="68 -1.5 68 -6.5 99 -6.5 99 -1.5 68 -1.5"/><polyline fill="none" stroke="#444443" points="99 -1.5 99 -6.5"/><polygon fill="#fefecd" stroke="transparent" points="99 -1.5 99 -6.5 99 -6.5 99 -1.5 99 -1.5"/><polygon fill="#fefecd" stroke="transparent" points="99 -1.5 99 -6.5 147 -6.5 147 -1.5 99 -1.5"/></g><g id="edge3" class="edge"><title>node4398311408:c-&gt;node4398311352</title><path fill="none" stroke="#444443" stroke-width=".5" d="M84.3678,-79.3084C86.2978,-74.8052 90.0195,-66.1212 93.8962,-57.0756"/><ellipse cx="83.63" cy="-81.029" fill="#444443" stroke="#444443" stroke-width=".5" rx="1.6" ry="1.6"/><polygon fill="#444443" stroke="#444443" stroke-width=".5" points="95.273 -57.416 95.562 -53.188 92.7 -56.313 95.273 -57.416"/></g></g></svg>